<svg xmlns="http://www.w3.org/2000/svg" viewBox="0 0 500 500"><g id="freepik--background-complete--inject-38"><rect y="382.4" width="500" height="0.25" style="fill:#ebebeb"></rect><rect x="90.46" y="391.92" width="24.87" height="0.25" style="fill:#ebebeb"></rect><rect x="152.33" y="389.21" width="27.5" height="0.25" style="fill:#ebebeb"></rect><rect x="47.67" y="401.21" width="58.11" height="0.25" style="fill:#ebebeb"></rect><rect x="428.3" y="399.53" width="21.6" height="0.25" style="fill:#ebebeb"></rect><rect x="214.79" y="391.14" width="27.93" height="0.25" style="fill:#ebebeb"></rect><rect x="300.67" y="395.31" width="70.22" height="0.25" style="fill:#ebebeb"></rect><path d="M237,337.8H43.91a5.71,5.71,0,0,1-5.7-5.71V60.66A5.71,5.71,0,0,1,43.91,55H237a5.71,5.71,0,0,1,5.71,5.71V332.09A5.71,5.71,0,0,1,237,337.8ZM43.91,55.2a5.46,5.46,0,0,0-5.45,5.46V332.09a5.46,5.46,0,0,0,5.45,5.46H237a5.47,5.47,0,0,0,5.46-5.46V60.66A5.47,5.47,0,0,0,237,55.2Z" style="fill:#ebebeb"></path><path d="M453.31,337.8H260.21a5.72,5.72,0,0,1-5.71-5.71V60.66A5.72,5.72,0,0,1,260.21,55h193.1A5.71,5.71,0,0,1,459,60.66V332.09A5.71,5.71,0,0,1,453.31,337.8ZM260.21,55.2a5.47,5.47,0,0,0-5.46,5.46V332.09a5.47,5.47,0,0,0,5.46,5.46h193.1a5.47,5.47,0,0,0,5.46-5.46V60.66a5.47,5.47,0,0,0-5.46-5.46Z" style="fill:#ebebeb"></path><path d="M206.28,330.67c-3.55-58.58-18-204.12-32.72-221.78C149.46,79.94,79,123.68,79,123.68s76.33-10.2,85.89-9.61,8.63,6.22,9.88,11.5c2.31,9.8,10.53,62,13.89,89.13s11.49,106.21,11.31,116Z" style="fill:#f0f0f0"></path><path d="M177.47,130.3c4,2-7.52-21.79-15.29-21.69-5.7.08-49.75,6.88-78.79,53.29C130.86,134,170.75,126.91,177.47,130.3Z" style="fill:#f0f0f0"></path><path d="M177.47,121.55c2.07,3.18-2.54-17.34-8.27-19.84-4.2-1.84-32.95-22.14-81.39-3.57C110.94,99.24,174,116.18,177.47,121.55Z" style="fill:#f0f0f0"></path><path d="M209.52,330.67c-1.19-43.95,11.12-148.35,12.83-165.63S286,141.83,286,141.83s-38.11,17.22-49.95,23.92c-2.13,1.21-7.39,2.15-9,9.31-1.55,6.7-5.91,19.87-8.56,66.55-1.15,20.3-5,81.74-4.28,89.06Z" style="fill:#ebebeb"></path><path d="M237.18,155.05c-4.17,1.25-14.62,21.8-13.09,19.18,2.57-4.41,38.56-6.4,55.35-2.9C259.16,150.14,240.25,154.13,237.18,155.05Z" style="fill:#ebebeb"></path><path d="M223.61,174.72c-.43,2.79-3.68-12.36-.49-15.86,2.34-2.58,27.13-25.28,46.7-26.49C254.12,140.54,224.35,170,223.61,174.72Z" style="fill:#ebebeb"></path><path d="M167,119.63c1.36,3.41-17.18-16.08-15.83-20.94,3.91-14.09,26.91-33.39,61-28.14C181.87,87.08,164.69,113.88,167,119.63Z" style="fill:#f0f0f0"></path><path d="M181.71,130.82c.49,2.67-17.77-23.46-15.2-25.77,1.89-1.7,24.46-23.73,45.64-8.34C196.57,98.76,178,110.4,181.71,130.82Z" style="fill:#f0f0f0"></path><path d="M205.82,361.44c2.65-31,13.49-108,24.49-117.38,18-15.32,70.76,7.83,70.76,7.83s-57.13-5.4-64.28-5.08-6.47,3.28-7.4,6.08c-1.73,5.19-7.88,32.83-10.39,47.17s-8.6,56.21-8.47,61.38Z" style="fill:#f0f0f0"></path><path d="M227.38,255.39c-3,1.07,5.63-11.53,11.44-11.47,4.27,0,37.24,3.63,59,28.2C262.27,257.34,232.41,253.6,227.38,255.39Z" style="fill:#f0f0f0"></path><path d="M227.38,250.76c-1.55,1.68,1.9-9.18,6.19-10.5,3.14-1,24.66-11.71,60.91-1.89C277.17,239,230,247.92,227.38,250.76Z" style="fill:#f0f0f0"></path><path d="M235.22,249.74c-1,1.81,12.86-8.5,11.85-11.08-2.93-7.45-20.14-17.67-45.64-14.89C224.08,232.52,236.94,246.7,235.22,249.74Z" style="fill:#f0f0f0"></path><path d="M224.2,255.67c-.36,1.41,13.31-12.42,11.38-13.64-1.41-.9-18.31-12.56-34.15-4.41C213.09,238.7,227,244.86,224.2,255.67Z" style="fill:#f0f0f0"></path><path d="M225.74,180.94c-.3,1.8.68-17.53,3.54-17.79,2.1-.2,31.11,1,38.2,20.39C253,177.92,226.24,177.92,225.74,180.94Z" style="fill:#ebebeb"></path><path d="M222.93,190.77c-.28,1.43.9-21.07,2.94-21.27C238,168.31,252.82,179.56,255.1,199,244.87,180.26,225,180.48,222.93,190.77Z" style="fill:#ebebeb"></path><path d="M227.74,173.33c.8,2.18-1.43-11.93-3.42-13.63-1.46-1.25-15.87-10.59-23.44-3.82C208.59,156.55,226.4,169.65,227.74,173.33Z" style="fill:#ebebeb"></path><path d="M226.06,184.22c.68,1.83-1.75-18.35-3.84-19.12-1.53-.56-16.13-3.18-27.87,7.64C202.42,170.05,220.85,170.19,226.06,184.22Z" style="fill:#ebebeb"></path><path d="M221.93,171.3c.08,2.27,10-7.9,9-10.93-.76-2.23-9.78-21.51-25.53-27.69C213.12,140.35,221.45,157.82,221.93,171.3Z" style="fill:#ebebeb"></path><path d="M176.09,309.57h67.68l-10.3,69.06a4.17,4.17,0,0,1-3.95,3.77H190.33a4.19,4.19,0,0,1-4-3.77Z" style="fill:#f0f0f0"></path><path d="M174.16,303.49h71.53a2.53,2.53,0,0,1,2.08,3.55l-2.65,7a2.27,2.27,0,0,1-2.08,1.56H176.82a2.3,2.3,0,0,1-2.09-1.56l-2.65-7A2.54,2.54,0,0,1,174.16,303.49Z" style="fill:#e6e6e6"></path><rect x="341.8" y="94.84" width="54.33" height="61.17" style="fill:#e0e0e0"></rect><path d="M392,97.66a.46.46,0,0,1-.29-.1c-10.32-7.41-20.26-14.36-22.11-15.64-1.83,1.43-11.89,9.27-20.27,15.3a.51.51,0,0,1-.7-.11.5.5,0,0,1,.12-.7C358,89.8,369.2,81,369.31,80.9a.49.49,0,0,1,.59,0c.11.07,11,7.68,22.43,15.86a.51.51,0,0,1,.11.7A.49.49,0,0,1,392,97.66Z" style="fill:#e0e0e0"></path><rect x="343.52" y="94.84" width="55.65" height="61.17" style="fill:#f5f5f5"></rect><rect x="345.59" y="101.99" width="51.53" height="46.87" transform="translate(496.77 -245.93) rotate(90)" style="fill:#fff"></rect><path d="M370.64,180.19c-5.72,19.24-1.7,72.2-1.7,72.2l6.47,0C378.6,235.16,373.3,191.94,370.64,180.19Z" style="fill:#e6e6e6"></path><path d="M368.37,251.65h4.77s-6.07-46.19-12.36-61.36C359.05,210.45,368.37,251.65,368.37,251.65Z" style="fill:#f0f0f0"></path><path d="M403.41,187.79C405.66,205,392,252.2,392,252.2l-6.51,0C385.43,236.82,398.6,198.27,403.41,187.79Z" style="fill:#e6e6e6"></path><path d="M392.72,251.53h-4.8s14.49-41.19,23.57-54.73C409.57,214.79,392.72,251.53,392.72,251.53Z" style="fill:#f0f0f0"></path><path d="M393.32,183.12c4.11,18.44-8.51,69.18-8.51,69.18l-7.85,0C375.62,235.79,388.37,194.38,393.32,183.12Z" style="fill:#e6e6e6"></path><path d="M379.48,251.65h-4.77s1-46.19,5.55-61.36C384.23,210.45,379.48,251.65,379.48,251.65Z" style="fill:#f0f0f0"></path><path d="M400.46,245.79c0,14-3.91,26.35-9.73,33H370.51c-5.83-6.68-9.73-19-9.73-33Z" style="fill:#f0f0f0"></path><polygon points="436.54 382.4 441.81 382.4 441.81 357.52 429.51 357.52 436.54 382.4" style="fill:#f5f5f5"></polygon><polygon points="346.96 382.4 341.69 382.4 341.69 357.52 353.99 357.52 346.96 382.4" style="fill:#e0e0e0"></polygon><polygon points="320.15 382.4 314.89 382.4 314.89 357.52 327.19 357.52 320.15 382.4" style="fill:#e0e0e0"></polygon><rect x="314.89" y="292.04" width="126.92" height="77.06" rx="10.95" style="fill:#f5f5f5"></rect><polygon points="414.12 382.4 419.38 382.4 419.38 357.52 407.08 357.52 414.12 382.4" style="fill:#f5f5f5"></polygon><rect x="314.89" y="292.04" width="52.37" height="77.06" rx="10.95" style="fill:#e0e0e0"></rect><path d="M420.78,292H335.92a6.6,6.6,0,0,1-6.58-6.58h0a6.6,6.6,0,0,1,6.58-6.58h84.86a6.6,6.6,0,0,1,6.58,6.58h0A6.6,6.6,0,0,1,420.78,292Z" style="fill:#fafafa"></path><path d="M362.05,292H335.92a6.6,6.6,0,0,1-6.58-6.58h0a6.6,6.6,0,0,1,6.58-6.58h26.13a6.6,6.6,0,0,1,6.58,6.58h0A6.6,6.6,0,0,1,362.05,292Z" style="fill:#ebebeb"></path></g><g id="freepik--Shadow--inject-38"><ellipse id="freepik--path--inject-38" cx="250" cy="416.24" rx="193.89" ry="11.32" style="fill:#f5f5f5"></ellipse></g><g id="freepik--Plants--inject-38"><path d="M207.33,316.9c-29.16-3.26-66.18-24.13-84.92-53.45C108.87,242.27,104.24,225,103,209.16c10-1,19-2.81,19-2.81a101.52,101.52,0,0,1-21.6-2.56c.06-13.82,3.4-26.66,3.27-40.24a78.28,78.28,0,0,0,8.48-6.2,79.48,79.48,0,0,1-9.48,3.53c-.42-13.34-1.83-27.82-9.74-44.37h0c26.87,12.66,55.46,37.15,77.63,93.46C188.62,255.92,248.75,321.53,207.33,316.9Z" style="fill:#407BFF"></path><path d="M207.33,316.9c-29.16-3.26-66.18-24.13-84.92-53.45C108.87,242.27,104.24,225,103,209.16c10-1,19-2.81,19-2.81a101.52,101.52,0,0,1-21.6-2.56c.06-13.82,3.4-26.66,3.27-40.24a78.28,78.28,0,0,0,8.48-6.2,79.48,79.48,0,0,1-9.48,3.53c-.42-13.34-1.83-27.82-9.74-44.37h0c26.87,12.66,55.46,37.15,77.63,93.46C188.62,255.92,248.75,321.53,207.33,316.9Z" style="fill:#fff;opacity:0.7000000000000001"></path><path d="M207.33,316.9c-29.16-3.26-66.18-24.13-84.92-53.45C108.87,242.27,104.24,225,103,209.16c10-1,19-2.81,19-2.81a101.52,101.52,0,0,1-21.6-2.56c.06-13.82,3.4-26.66,3.27-40.24a78.28,78.28,0,0,0,8.48-6.2,79.48,79.48,0,0,1-9.48,3.53c-.42-13.34-1.83-27.82-9.74-44.37h0c1.54,1,51.38,35,62.62,109.67C164.5,286,207.33,316.9,207.33,316.9Z" style="fill:#fff;opacity:0.2"></path><path d="M216.28,346.13c-21.15,11.52-55.3,11.47-80.74-5-38.64-25-43.2-54.37-58.24-82.21,3.84-3.78,5.47-10.24,5.47-10.24s-4.24,4.85-9.3,7.08c-5.55-9.37-11.6-20.28-21.92-29,23.71-2.14,53.73,5.22,93.28,43.72C177.07,301.86,246.34,329.77,216.28,346.13Z" style="fill:#407BFF"></path><path d="M216.28,346.13c-21.15,11.52-55.3,11.47-80.74-5-38.64-25-43.2-54.37-58.24-82.21,3.84-3.78,5.47-10.24,5.47-10.24s-4.24,4.85-9.3,7.08c-5.55-9.37-11.6-20.28-21.92-29,23.71-2.14,53.73,5.22,93.28,43.72C177.07,301.86,246.34,329.77,216.28,346.13Z" style="fill:#fff;opacity:0.7000000000000001"></path><path d="M216.28,346.13c-21.15,11.52-55.3,11.47-80.74-5-38.64-25-43.2-54.37-58.24-82.21,3.84-3.78,5.47-10.24,5.47-10.24s-4.24,4.85-9.3,7.08c-5.55-9.37-11.6-20.28-21.92-29,0,0,49.4,4.39,90.17,65.35C173.83,340.1,216.28,346.13,216.28,346.13Z" style="fill:#fff;opacity:0.2"></path><path d="M451.55,214.08c-.64,17.87-9,39.56-41.39,65.41-.87.69-1.72,1.41-2.59,2.16-4.69-1.49-9.52-4.76-12.41-6.93l-.83.42-1,.5a42.4,42.4,0,0,0,6.81,12.94c-23.05,23.18-45,58-53.16,37.05-6.59-16.86-3.32-42.31,11.37-59.72C389.55,228.94,420.73,242.41,451.55,214.08Z" style="fill:#407BFF"></path><path d="M451.55,214.08c-.64,17.87-9,39.56-41.39,65.41-.87.69-1.72,1.41-2.59,2.16-4.69-1.49-9.52-4.76-12.41-6.93l-.83.42-1,.5a42.4,42.4,0,0,0,6.81,12.94c-23.05,23.18-45,58-53.16,37.05-6.59-16.86-3.32-42.31,11.37-59.72C389.55,228.94,420.73,242.41,451.55,214.08Z" style="fill:#fff;opacity:0.7000000000000001"></path><path d="M451.55,214.08s-7.85,36-56.39,60.64l-.83.42-1,.5c-38,19.43-46.35,50-46.35,50-6.59-16.86-3.32-42.31,11.37-59.72C389.55,228.94,420.73,242.41,451.55,214.08Z" style="fill:#fff;opacity:0.2"></path><path d="M448.44,153.82A41.63,41.63,0,0,0,428.07,131S435.49,147.48,448.44,153.82Z" style="fill:#407BFF"></path><path d="M448.44,153.82A41.63,41.63,0,0,0,428.07,131S435.49,147.48,448.44,153.82Z" style="opacity:0.30000000000000004"></path><path d="M448.36,161.2c-9.76-17.42-26-19.41-26-19.41S433.29,158.45,448.36,161.2Z" style="fill:#407BFF"></path><path d="M448.36,161.2c-9.76-17.42-26-19.41-26-19.41S433.29,158.45,448.36,161.2Z" style="opacity:0.30000000000000004"></path><path d="M447.5,172.23c-10.72-18.18-28-19.55-28-19.55S431.5,170,447.5,172.23Z" style="fill:#407BFF"></path><path d="M447.5,172.23c-10.72-18.18-28-19.55-28-19.55S431.5,170,447.5,172.23Z" style="opacity:0.30000000000000004"></path><path d="M446.15,180.19c-14.49-18-33.51-14.35-33.51-14.35S428.35,182.48,446.15,180.19Z" style="fill:#407BFF"></path><path d="M446.15,180.19c-14.49-18-33.51-14.35-33.51-14.35S428.35,182.48,446.15,180.19Z" style="opacity:0.30000000000000004"></path><path d="M443.91,190.85c-16.46-19.09-37.16-13.7-37.16-13.7S424.52,194.6,443.91,190.85Z" style="fill:#407BFF"></path><path d="M443.91,190.85c-16.46-19.09-37.16-13.7-37.16-13.7S424.52,194.6,443.91,190.85Z" style="opacity:0.30000000000000004"></path><path d="M440.09,204.27c-16.93-19.46-38.1-13.76-38.1-13.76S420.25,208.27,440.09,204.27Z" style="fill:#407BFF"></path><path d="M440.09,204.27c-16.93-19.46-38.1-13.76-38.1-13.76S420.25,208.27,440.09,204.27Z" style="opacity:0.30000000000000004"></path><path d="M435.72,216.26a40.79,40.79,0,0,0-43.92-8.42S414,225,435.72,216.26Z" style="fill:#407BFF"></path><path d="M435.72,216.26a40.79,40.79,0,0,0-43.92-8.42S414,225,435.72,216.26Z" style="opacity:0.30000000000000004"></path><path d="M427.49,233.47c-22.68-19.25-46.55-5.83-46.55-5.83S404.9,244.38,427.49,233.47Z" style="fill:#407BFF"></path><path d="M427.49,233.47c-22.68-19.25-46.55-5.83-46.55-5.83S404.9,244.38,427.49,233.47Z" style="opacity:0.30000000000000004"></path><path d="M415.47,253.82c-26.13-22.13-53.61-6.61-53.61-6.61S389.48,266.44,415.47,253.82Z" style="fill:#407BFF"></path><path d="M415.47,253.82c-26.13-22.13-53.61-6.61-53.61-6.61S389.48,266.44,415.47,253.82Z" style="opacity:0.30000000000000004"></path><path d="M400,274.64c-29.48-22.37-58.78-2.66-58.78-2.66S372.18,291,400,274.64Z" style="fill:#407BFF"></path><path d="M400,274.64c-29.48-22.37-58.78-2.66-58.78-2.66S372.18,291,400,274.64Z" style="opacity:0.30000000000000004"></path><path d="M381.31,294.46c-35-20.59-65.82,7.84-65.82,7.84S351.81,318.7,381.31,294.46Z" style="fill:#407BFF"></path><path d="M381.31,294.46c-35-20.59-65.82,7.84-65.82,7.84S351.81,318.7,381.31,294.46Z" style="opacity:0.30000000000000004"></path><path d="M322.89,334.41a.62.62,0,0,1-.26-1.19c50.22-22.45,80.35-59.42,96.79-86.48,20-32.93,30.51-69.41,28.12-97.6a.63.63,0,0,1,1.25-.11c2.41,28.45-8.17,65.21-28.3,98.35-16.53,27.22-46.84,64.4-97.35,87A.56.56,0,0,1,322.89,334.41Z" style="fill:#407BFF"></path><path d="M448.44,153.82c-1.7-17.7-14.17-30.52-14.17-30.52S437.21,141.39,448.44,153.82Z" style="fill:#407BFF"></path><path d="M448.36,161.2a46.65,46.65,0,0,0-23.85-25.51S433.38,154.44,448.36,161.2Z" style="fill:#407BFF"></path><path d="M447.5,172.23a49.72,49.72,0,0,0-25.36-27.18S431.57,165,447.5,172.23Z" style="fill:#407BFF"></path><path d="M446.15,180.19c-11.62-21.68-31.62-24.86-31.62-24.86S427.65,176.14,446.15,180.19Z" style="fill:#407BFF"></path><path d="M443.91,190.85c-13.61-23.16-35.57-25-35.57-25S423.55,187.94,443.91,190.85Z" style="fill:#407BFF"></path><path d="M440.09,204.27c-13.77-23.94-36.31-26.2-36.31-26.2S419.2,200.91,440.09,204.27Z" style="fill:#407BFF"></path><path d="M435.72,216.26c-17.83-25.18-43.2-23.19-43.2-23.19S412.07,216.64,435.72,216.26Z" style="fill:#407BFF"></path><path d="M427.49,233.47c-18.56-27.36-45.73-26.24-45.73-26.24S402.2,232.94,427.49,233.47Z" style="fill:#407BFF"></path><path d="M415.47,253.82C395.38,220.72,363.69,219,363.69,219S386.05,250.4,415.47,253.82Z" style="fill:#407BFF"></path><path d="M400,274.64c-21-37.77-56.27-42.26-56.27-42.26S367.35,268.52,400,274.64Z" style="fill:#407BFF"></path><path d="M381.31,294.46c-28.76-37.57-67.68-31.74-67.68-31.74S345,297.57,381.31,294.46Z" style="fill:#407BFF"></path></g><g id="freepik--Candle--inject-38"><path d="M211.51,357.82a1,1,0,0,1-1-1.05v-220a48.79,48.79,0,0,1,97.58,0,1,1,0,1,1-2.09,0,46.7,46.7,0,0,0-93.4,0v220A1,1,0,0,1,211.51,357.82Z" style="fill:#263238"></path><path d="M286.08,159.48c0,1.16,4.27,6.35,20.92,6.35s20.93-5.19,20.93-6.35Z" style="fill:#263238"></path><path d="M327.93,159.48c0,1.16-9.37,2.11-20.93,2.11s-20.92-1-20.92-2.11,9.37-2.12,20.92-2.12S327.93,158.31,327.93,159.48Z" style="fill:#407BFF"></path><ellipse cx="307" cy="152.83" rx="9.81" ry="0.46" style="fill:#407BFF"></ellipse><ellipse cx="307" cy="152.83" rx="9.81" ry="0.46" style="fill:#fff;opacity:0.5"></ellipse><path d="M307,153.28c-5.41,0-9.8-.2-9.8-.45v7c0,.26,4.39.46,9.8.46s9.81-.2,9.81-.46v-7C316.81,153.08,312.42,153.28,307,153.28Z" style="fill:#407BFF"></path><path d="M307,153.28c-5.41,0-9.8-.2-9.8-.45v7c0,.26,4.39.46,9.8.46s9.81-.2,9.81-.46v-7C316.81,153.08,312.42,153.28,307,153.28Z" style="fill:#fff;opacity:0.30000000000000004"></path><path d="M308.7,151c0,1.69-.76,1.85-1.7,1.85s-1.7-.16-1.7-1.85,1.7-5.43,1.7-5.43S308.7,149.32,308.7,151Z" style="fill:#407BFF"></path><path d="M308.7,151c0,1.69-.76,1.85-1.7,1.85s-1.7-.16-1.7-1.85,1.7-5.43,1.7-5.43S308.7,149.32,308.7,151Z" style="fill:#fff;opacity:0.7000000000000001"></path><path d="M286.08,159.74a.25.25,0,0,1-.18-.08.16.16,0,0,1-.06-.08.2.2,0,0,1,0-.1.26.26,0,0,1,.07-.19.27.27,0,0,1,.45.19.44.44,0,0,1,0,.1.16.16,0,0,1-.06.08A.25.25,0,0,1,286.08,159.74Z" style="fill:#263238"></path><path d="M286.6,158.91a.27.27,0,0,1,0-.37h0a.27.27,0,0,1,.37,0h0a.26.26,0,0,1,0,.37h0a.27.27,0,0,1-.19.08h0A.24.24,0,0,1,286.6,158.91Zm.7-.76a.26.26,0,0,1,0-.37h0a.27.27,0,0,1,.37,0h0a.27.27,0,0,1,0,.37h0a.27.27,0,0,1-.2.08h0A.23.23,0,0,1,287.3,158.15Zm.69-.75a.27.27,0,0,1,0-.37h0a.26.26,0,0,1,.37,0h0a.27.27,0,0,1,0,.37h0a.25.25,0,0,1-.19.09h0A.31.31,0,0,1,288,157.4Zm.7-.76a.27.27,0,0,1,0-.37h0a.27.27,0,0,1,.37,0h0a.27.27,0,0,1,0,.37h0a.27.27,0,0,1-.19.08h0A.26.26,0,0,1,288.69,156.64Zm.7-.76a.25.25,0,0,1,0-.36h0a.26.26,0,0,1,.37,0h0a.26.26,0,0,1,0,.37h0a.27.27,0,0,1-.19.08h0A.24.24,0,0,1,289.39,155.88Zm.69-.75a.27.27,0,0,1,0-.37h0a.27.27,0,0,1,.37,0h0a.26.26,0,0,1,0,.37h0a.25.25,0,0,1-.19.09h0A.34.34,0,0,1,290.08,155.13Zm.7-.76a.27.27,0,0,1,0-.37h0a.26.26,0,0,1,.37,0h0a.27.27,0,0,1,0,.37h0a.27.27,0,0,1-.19.08h0A.26.26,0,0,1,290.78,154.37Zm.7-.76a.26.26,0,0,1,0-.37h0a.27.27,0,0,1,.37,0h0a.27.27,0,0,1,0,.37h0a.24.24,0,0,1-.19.08h0A.26.26,0,0,1,291.48,153.61Zm.7-.75a.27.27,0,0,1,0-.37h0a.27.27,0,0,1,.37,0h0a.27.27,0,0,1,0,.37h0a.25.25,0,0,1-.19.09h0A.29.29,0,0,1,292.18,152.86Zm.69-.76a.27.27,0,0,1,0-.37h0a.26.26,0,0,1,.37,0h0a.26.26,0,0,1,0,.37h0a.27.27,0,0,1-.19.08h0A.26.26,0,0,1,292.87,152.1Zm.7-.75a.28.28,0,0,1,0-.38h0a.27.27,0,0,1,.37,0h0a.27.27,0,0,1,0,.37h0a.24.24,0,0,1-.19.08h0A.3.3,0,0,1,293.57,151.35Zm.7-.76a.26.26,0,0,1,0-.37h0a.26.26,0,0,1,.37,0h0a.27.27,0,0,1,0,.37h0a.25.25,0,0,1-.19.09h0A.29.29,0,0,1,294.27,150.59Zm.7-.76a.27.27,0,0,1,0-.37h0a.27.27,0,0,1,.37,0h0a.26.26,0,0,1,0,.37h0a.27.27,0,0,1-.19.08h0A.24.24,0,0,1,295,149.83Zm.69-.76a.27.27,0,0,1,0-.37h0a.27.27,0,0,1,.37,0h0a.26.26,0,0,1,0,.37h0a.27.27,0,0,1-.19.08h0A.27.27,0,0,1,295.66,149.07Zm.7-.75a.26.26,0,0,1,0-.37h0a.26.26,0,0,1,.37,0h0a.27.27,0,0,1,0,.37h0a.25.25,0,0,1-.19.09h0A.31.31,0,0,1,296.36,148.32Zm.7-.76a.27.27,0,0,1,0-.37h0a.26.26,0,0,1,.37,0h0a.26.26,0,0,1,0,.37h0a.27.27,0,0,1-.19.08h0A.24.24,0,0,1,297.06,147.56Zm.7-.76a.26.26,0,0,1,0-.37h0a.27.27,0,0,1,.37,0h0a.26.26,0,0,1,0,.37h0a.32.32,0,0,1-.2.08h0A.23.23,0,0,1,297.76,146.8Zm.69-.75a.27.27,0,0,1,0-.37h0a.26.26,0,0,1,.37,0h0a.26.26,0,0,1,0,.37h0a.25.25,0,0,1-.19.09h0A.34.34,0,0,1,298.45,146.05Zm.7-.76a.27.27,0,0,1,0-.37h0a.26.26,0,0,1,.37,0h0a.27.27,0,0,1,0,.37h0a.27.27,0,0,1-.19.08h0A.26.26,0,0,1,299.15,145.29Zm.7-.76a.27.27,0,0,1,0-.37h0a.27.27,0,0,1,.37,0h0a.26.26,0,0,1,0,.37h0a.24.24,0,0,1-.19.08h0A.24.24,0,0,1,299.85,144.53Zm.7-.75a.26.26,0,0,1,0-.37h0a.26.26,0,0,1,.37,0h0a.26.26,0,0,1,0,.37h0a.28.28,0,0,1-.2.09h0A.28.28,0,0,1,300.55,143.78Zm.69-.76a.27.27,0,0,1,0-.37h0a.26.26,0,0,1,.37,0h0a.25.25,0,0,1,0,.36h0a.25.25,0,0,1-.19.09h0A.27.27,0,0,1,301.24,143Zm.7-.76a.27.27,0,0,1,0-.37h0a.27.27,0,0,1,.37,0h0a.27.27,0,0,1,0,.37h0a.27.27,0,0,1-.19.08h0A.26.26,0,0,1,301.94,142.26Zm.7-.75a.26.26,0,0,1,0-.37h0a.25.25,0,0,1,.36,0h0a.26.26,0,0,1,0,.37h0a.25.25,0,0,1-.19.09h0A.29.29,0,0,1,302.64,141.51Zm.7-.76a.26.26,0,0,1,0-.37h0a.26.26,0,0,1,.37,0h0a.26.26,0,0,1,0,.37h0a.32.32,0,0,1-.2.08h0A.23.23,0,0,1,303.34,140.75ZM304,140a.27.27,0,0,1,0-.37h0a.27.27,0,0,1,.37,0h0a.26.26,0,0,1,0,.37h0a.27.27,0,0,1-.19.08h0A.26.26,0,0,1,304,140Zm.7-.75a.27.27,0,0,1,0-.37h0a.26.26,0,0,1,.37,0h0a.27.27,0,0,1,0,.37h0a.25.25,0,0,1-.19.09h0A.31.31,0,0,1,304.73,139.24Zm.7-.76a.27.27,0,0,1,0-.37h0a.27.27,0,0,1,.37,0h0a.27.27,0,0,1,0,.38h0a.27.27,0,0,1-.19.08h0A.24.24,0,0,1,305.43,138.48Zm.7-.76a.26.26,0,0,1,0-.37h0a.27.27,0,0,1,.37,0h0a.26.26,0,0,1,0,.37h0a.32.32,0,0,1-.2.08h0A.23.23,0,0,1,306.13,137.72Z" style="fill:#263238"></path><path d="M307,137a.27.27,0,0,1-.26-.26.27.27,0,0,1,.08-.19.26.26,0,0,1,.44.19.24.24,0,0,1-.07.18A.27.27,0,0,1,307,137Z" style="fill:#263238"></path><path d="M327.93,159.74a.26.26,0,0,1-.19-.08.25.25,0,0,1-.08-.18.27.27,0,0,1,.08-.19.27.27,0,0,1,.37,0,.27.27,0,0,1,.08.19.27.27,0,0,1-.26.26Z" style="fill:#263238"></path><path d="M327,158.9a.27.27,0,0,1,0-.37h0a.27.27,0,0,1,.37,0h0a.27.27,0,0,1,0,.37h0a.26.26,0,0,1-.18.07h0A.27.27,0,0,1,327,158.9Zm-.7-.76a.27.27,0,0,1,0-.37h0a.26.26,0,0,1,.37,0h0a.27.27,0,0,1,0,.37h0a.28.28,0,0,1-.18.06h0A.24.24,0,0,1,326.34,158.14Zm-.7-.76a.26.26,0,0,1,0-.37h0a.27.27,0,0,1,.37,0h0a.27.27,0,0,1,0,.37h0a.24.24,0,0,1-.18.07h0A.25.25,0,0,1,325.64,157.38Zm-.7-.75a.26.26,0,0,1,0-.37h0a.27.27,0,0,1,.37,0h0a.26.26,0,0,1,0,.37h0a.23.23,0,0,1-.17.07h0A.32.32,0,0,1,324.94,156.63Zm-.69-.76a.26.26,0,0,1,0-.37h0a.26.26,0,0,1,.37,0h0a.25.25,0,0,1,0,.36h0a.26.26,0,0,1-.18.07h0A.24.24,0,0,1,324.25,155.87Zm-.7-.76a.27.27,0,0,1,0-.37h0a.27.27,0,0,1,.37,0h0a.27.27,0,0,1,0,.37h0a.31.31,0,0,1-.18.07h0A.25.25,0,0,1,323.55,155.11Zm-.7-.75a.27.27,0,0,1,0-.37h0a.28.28,0,0,1,.38,0h0a.27.27,0,0,1,0,.37h0a.24.24,0,0,1-.18.07h0A.27.27,0,0,1,322.85,154.36Zm-.7-.76a.26.26,0,0,1,0-.37h0a.27.27,0,0,1,.37,0h0a.26.26,0,0,1,0,.37h0a.23.23,0,0,1-.17.07h0A.27.27,0,0,1,322.15,153.6Zm-.69-.76a.26.26,0,0,1,0-.37h0a.26.26,0,0,1,.37,0h0a.27.27,0,0,1,0,.37h0a.31.31,0,0,1-.18.07h0A.25.25,0,0,1,321.46,152.84Zm-.7-.75a.27.27,0,0,1,0-.37h0a.26.26,0,0,1,.37,0h0a.27.27,0,0,1,0,.37h0a.26.26,0,0,1-.18.07h0A.27.27,0,0,1,320.76,152.09Zm-.7-.76a.26.26,0,0,1,0-.37h0a.25.25,0,0,1,.36,0h0a.26.26,0,0,1,0,.37h0a.24.24,0,0,1-.18.07h0A.27.27,0,0,1,320.06,151.33Zm-.7-.76a.27.27,0,0,1,0-.37h0a.26.26,0,0,1,.37,0h0a.26.26,0,0,1,0,.37h0a.28.28,0,0,1-.17.07h0A.27.27,0,0,1,319.36,150.57Zm-.69-.76a.26.26,0,0,1,0-.37h0a.27.27,0,0,1,.37,0h0a.26.26,0,0,1,0,.37h0a.22.22,0,0,1-.17.07h0A.25.25,0,0,1,318.67,149.81Zm-.7-.75a.26.26,0,0,1,0-.37h0a.25.25,0,0,1,.36,0h0a.27.27,0,0,1,0,.37h0a.24.24,0,0,1-.18.07h0A.27.27,0,0,1,318,149.06Zm-.7-.76a.26.26,0,0,1,0-.37h0a.27.27,0,0,1,.37,0h0a.27.27,0,0,1,0,.37h0a.29.29,0,0,1-.18.07h0A.25.25,0,0,1,317.27,148.3Zm-.7-.75a.27.27,0,0,1,0-.37h0a.26.26,0,0,1,.37,0h0a.26.26,0,0,1,0,.37h0a.23.23,0,0,1-.17.07h0A.32.32,0,0,1,316.57,147.55Zm-.69-.76a.27.27,0,0,1,0-.37h0a.26.26,0,0,1,.37,0h0a.25.25,0,0,1,0,.36h0a.26.26,0,0,1-.18.07h0A.27.27,0,0,1,315.88,146.79Zm-.7-.76a.27.27,0,0,1,0-.37h0a.26.26,0,0,1,.37,0h0a.27.27,0,0,1,0,.37h0a.31.31,0,0,1-.18.07h0A.25.25,0,0,1,315.18,146Zm-.7-.75a.26.26,0,0,1,0-.37h0a.26.26,0,0,1,.37,0h0a.27.27,0,0,1,0,.37h0a.24.24,0,0,1-.18.07h0A.27.27,0,0,1,314.48,145.28Zm-.7-.76a.27.27,0,0,1,0-.37h0a.27.27,0,0,1,.37,0h0a.26.26,0,0,1,0,.37h0a.23.23,0,0,1-.17.07h0A.32.32,0,0,1,313.78,144.52Zm-.69-.76a.27.27,0,0,1,0-.37h0a.26.26,0,0,1,.37,0h0a.27.27,0,0,1,0,.37h0a.31.31,0,0,1-.18.07h0A.25.25,0,0,1,313.09,143.76Zm-.7-.76a.25.25,0,0,1,0-.36h0a.26.26,0,0,1,.37,0h0a.27.27,0,0,1,0,.37h0a.26.26,0,0,1-.18.07h0A.25.25,0,0,1,312.39,143Zm-.7-.75a.26.26,0,0,1,0-.37h0a.25.25,0,0,1,.36,0h0a.26.26,0,0,1,0,.37h0a.24.24,0,0,1-.18.07h0A.27.27,0,0,1,311.69,142.25Zm-.7-.76a.27.27,0,0,1,0-.37h0a.26.26,0,0,1,.37,0h0a.26.26,0,0,1,0,.37h0a.28.28,0,0,1-.17.07h0A.28.28,0,0,1,311,141.49Zm-.69-.76a.26.26,0,0,1,0-.37h0a.27.27,0,0,1,.37,0h0a.27.27,0,0,1,0,.37h0a.26.26,0,0,1-.18.07h0A.25.25,0,0,1,310.3,140.73Zm-.7-.75a.26.26,0,0,1,0-.37h0a.25.25,0,0,1,.36,0h0a.27.27,0,0,1,0,.37h0a.24.24,0,0,1-.18.07h0A.27.27,0,0,1,309.6,140Zm-.7-.76a.26.26,0,0,1,0-.37h0a.26.26,0,0,1,.37,0h0a.27.27,0,0,1,0,.37h0a.29.29,0,0,1-.18.07h0A.25.25,0,0,1,308.9,139.22Zm-.69-.75a.26.26,0,0,1,0-.37h0a.26.26,0,0,1,.37,0h0a.26.26,0,0,1,0,.37h0a.23.23,0,0,1-.17.07h0A.27.27,0,0,1,308.21,138.47Zm-.7-.76a.26.26,0,0,1,0-.37h0a.27.27,0,0,1,.37,0h0a.27.27,0,0,1,0,.37h0a.27.27,0,0,1-.18.07h0A.27.27,0,0,1,307.51,137.71Z" style="fill:#263238"></path><path d="M307,137a.27.27,0,0,1-.26-.26.27.27,0,0,1,.08-.19.26.26,0,0,1,.44.19.24.24,0,0,1-.07.18A.27.27,0,0,1,307,137Z" style="fill:#263238"></path><path d="M315.12,161.85a.26.26,0,0,1-.19-.07.27.27,0,0,1-.08-.19.25.25,0,0,1,.08-.18.28.28,0,0,1,.29-.06.16.16,0,0,1,.08.06.25.25,0,0,1,.08.18.27.27,0,0,1-.08.19A.24.24,0,0,1,315.12,161.85Z" style="fill:#263238"></path><path d="M314.54,160.68a.27.27,0,0,1,.17-.33h0a.27.27,0,0,1,.33.17h0a.27.27,0,0,1-.17.33h-.08A.27.27,0,0,1,314.54,160.68Zm-.32-1a.26.26,0,0,1,.16-.33h0a.27.27,0,0,1,.34.17h0a.28.28,0,0,1-.17.33h-.08A.26.26,0,0,1,314.22,159.69Zm-.33-1a.27.27,0,0,1,.17-.33h0a.26.26,0,0,1,.33.17h0a.25.25,0,0,1-.17.33h-.08A.25.25,0,0,1,313.89,158.69Zm-.32-1a.26.26,0,0,1,.17-.33h0a.27.27,0,0,1,.33.17h0a.27.27,0,0,1-.17.33h-.08A.27.27,0,0,1,313.57,157.7Zm-.33-1a.27.27,0,0,1,.17-.33h0a.26.26,0,0,1,.33.17h0a.26.26,0,0,1-.17.33h-.08A.27.27,0,0,1,313.24,156.71Zm-.32-1a.26.26,0,0,1,.17-.33h0a.26.26,0,0,1,.33.16h0a.26.26,0,0,1-.17.33h0l-.08,0h0A.27.27,0,0,1,312.92,155.72Zm-.32-1a.26.26,0,0,1,.16-.33h0a.26.26,0,0,1,.33.17h0a.26.26,0,0,1-.16.33h-.09A.25.25,0,0,1,312.6,154.72Zm-.33-1a.27.27,0,0,1,.17-.33h0a.27.27,0,0,1,.33.17h0a.27.27,0,0,1-.17.33h-.08A.27.27,0,0,1,312.27,153.73Zm-.32-1a.26.26,0,0,1,.16-.33h0a.25.25,0,0,1,.33.17h0a.26.26,0,0,1-.16.33h-.08A.25.25,0,0,1,312,152.74Zm-.33-1a.26.26,0,0,1,.17-.33h0a.26.26,0,0,1,.33.16h0a.26.26,0,0,1-.17.33h0l-.08,0h0A.27.27,0,0,1,311.62,151.75Zm-.32-1a.26.26,0,0,1,.16-.33h0a.26.26,0,0,1,.33.17h0a.26.26,0,0,1-.16.33h-.08A.26.26,0,0,1,311.3,150.75Zm-.33-1a.27.27,0,0,1,.17-.33h0a.27.27,0,0,1,.33.17h0a.27.27,0,0,1-.17.33h-.08A.27.27,0,0,1,311,149.76Zm-.32-1a.26.26,0,0,1,.16-.33h0a.25.25,0,0,1,.33.17h0a.26.26,0,0,1-.16.33h-.08A.26.26,0,0,1,310.65,148.77Zm-.33-1a.27.27,0,0,1,.17-.33h0a.26.26,0,0,1,.33.17h0a.26.26,0,0,1-.17.33h0l-.08,0h0A.26.26,0,0,1,310.32,147.77Zm-.32-1a.26.26,0,0,1,.17-.33h0a.26.26,0,0,1,.32.17h0a.25.25,0,0,1-.16.33h-.08A.26.26,0,0,1,310,146.78Zm-.33-1a.26.26,0,0,1,.17-.33h0a.26.26,0,0,1,.33.17h0a.26.26,0,0,1-.17.33h-.08A.27.27,0,0,1,309.67,145.79Zm-.32-1a.26.26,0,0,1,.17-.33h0a.26.26,0,0,1,.33.16h0a.26.26,0,0,1-.17.33h0l-.08,0h0A.27.27,0,0,1,309.35,144.8Zm-.32-1a.26.26,0,0,1,.16-.33h0a.26.26,0,0,1,.33.17h0a.26.26,0,0,1-.16.33h-.09A.25.25,0,0,1,309,143.8Zm-.33-1a.27.27,0,0,1,.17-.33h0a.27.27,0,0,1,.33.17h0a.27.27,0,0,1-.17.33H309A.27.27,0,0,1,308.7,142.81Zm-.32-1a.26.26,0,0,1,.16-.33h0a.25.25,0,0,1,.33.17h0a.26.26,0,0,1-.16.33h-.09A.25.25,0,0,1,308.38,141.82Zm-.33-1a.26.26,0,0,1,.17-.33h0a.26.26,0,0,1,.33.16h0a.26.26,0,0,1-.17.33h0l-.08,0h0A.27.27,0,0,1,308.05,140.83Zm-.32-1a.26.26,0,0,1,.16-.33h0a.26.26,0,0,1,.33.17h0a.26.26,0,0,1-.16.33H308A.26.26,0,0,1,307.73,139.83Zm-.33-1a.27.27,0,0,1,.17-.33h0a.27.27,0,0,1,.33.17h0a.26.26,0,0,1-.17.33h-.08A.27.27,0,0,1,307.4,138.84Zm-.32-1a.25.25,0,0,1,.17-.33h0a.26.26,0,0,1,.33.17h0a.27.27,0,0,1-.17.33h-.08A.26.26,0,0,1,307.08,137.85Z" style="fill:#263238"></path><path d="M307,137a.27.27,0,0,1-.26-.26.27.27,0,0,1,.08-.19.26.26,0,0,1,.44.19.24.24,0,0,1-.07.18A.27.27,0,0,1,307,137Z" style="fill:#263238"></path></g><g id="freepik--Characters--inject-38"><path d="M249.93,402.56c-83.8,0-151.73-4.23-151.73-9.45v20.24c0,5.22,67.93,9.45,151.73,9.45s151.73-4.23,151.73-9.45V393.11C401.66,398.33,333.73,402.56,249.93,402.56Z" style="fill:#407BFF"></path><path d="M249.93,402.56c-83.8,0-151.73-4.23-151.73-9.45v20.24c0,5.22,67.93,9.45,151.73,9.45s151.73-4.23,151.73-9.45V393.11C401.66,398.33,333.73,402.56,249.93,402.56Z" style="opacity:0.2"></path><path d="M249.93,328.73c-86,0-155.78-4.34-155.78-9.7v89.91c0,5.36,69.75,9.71,155.78,9.71s155.77-4.35,155.77-9.71V319C405.7,324.39,336,328.73,249.93,328.73Z" style="fill:#407BFF"></path><g style="opacity:0.1"><path d="M101.34,411.87V322.62a.38.38,0,1,0-.76,0v89.09Z"></path><path d="M115.53,323.94l-.76-.08v89.91l.76.08Z"></path><path d="M129.72,325.2l-.77-.06v89.92l.77.06Z"></path><path d="M143.91,326.14l-.77-.05V416l.77,0Z"></path><path d="M158.09,326.87l-.76,0v89.92l.76,0Z"></path><path d="M172.28,327.44l-.76,0v89.92l.76,0Z"></path><path d="M186.47,327.89l-.77,0v89.92l.77,0Z"></path><path d="M200.66,328.24l-.77,0v89.92h.77Z"></path><path d="M214.84,328.49l-.76,0v89.92h.76Z"></path><path d="M229,328.65h-.77v89.91H229Z"></path><path d="M243.22,328.72h-.77v89.92h.77Z"></path><path d="M256.64,418.64h.76V328.72h-.76Z"></path><path d="M271.59,328.64h-.76v89.91h.76Z"></path><path d="M285.78,328.47l-.77,0V418.4h.77Z"></path><path d="M300,328.22l-.77,0v89.91H300Z"></path><path d="M314.15,327.87l-.76,0v89.92l.76,0Z"></path><path d="M328.34,327.41l-.76,0v89.92l.76,0Z"></path><path d="M342.53,326.83l-.77,0v89.91l.77,0Z"></path><path d="M356.72,326.09l-.77.05v89.91l.77,0Z"></path><path d="M370.9,325.14l-.76.06v89.92l.76-.06Z"></path><path d="M384.32,413.85l.77-.08V323.86l-.77.08Z"></path><path d="M398.89,322.23a.38.38,0,0,0-.38.39v89.25l.77-.16V322.62A.38.38,0,0,0,398.89,322.23Z"></path></g><ellipse cx="249.93" cy="301.06" rx="159.37" ry="9.93" style="fill:#407BFF"></ellipse><path d="M249.93,311c-88,0-159.37-4.45-159.37-9.93v21.25c0,5.49,71.35,9.93,159.37,9.93s159.37-4.44,159.37-9.93V301.06C409.3,306.54,338,311,249.93,311Z" style="fill:#407BFF"></path><path d="M249.93,311c-88,0-159.37-4.45-159.37-9.93v21.25c0,5.49,71.35,9.93,159.37,9.93s159.37-4.44,159.37-9.93V301.06C409.3,306.54,338,311,249.93,311Z" style="opacity:0.2"></path><path d="M392.65,301.06c0,2.44-63.9,4.42-142.72,4.42s-142.73-2-142.73-4.42,63.9-4.42,142.73-4.42S392.65,298.61,392.65,301.06Z" style="fill:#407BFF"></path><path d="M392.65,301.06c0,2.44-63.9,4.42-142.72,4.42s-142.73-2-142.73-4.42,63.9-4.42,142.73-4.42S392.65,298.61,392.65,301.06Z" style="fill:#fff;opacity:0.7000000000000001"></path><path d="M230.44,298.4a2,2,0,0,0-2.05,2c0,.57,4.1.57,4.1,0A2,2,0,0,0,230.44,298.4Z" style="fill:#fff"></path><path d="M242.07,300.9a1.47,1.47,0,0,0-1.47,1.47c0,.4,2.93.4,2.93,0A1.46,1.46,0,0,0,242.07,300.9Z" style="fill:#fff"></path><path d="M133.71,298.4a2,2,0,0,0-2,2c0,.57,4.09.57,4.09,0A2,2,0,0,0,133.71,298.4Z" style="fill:#fff"></path><path d="M122.67,300a1.47,1.47,0,0,0-1.47,1.47c0,.4,2.94.4,2.94,0A1.47,1.47,0,0,0,122.67,300Z" style="fill:#fff"></path><path d="M265.27,301.44a2,2,0,0,0-2,2.05c0,.56,4.1.56,4.1,0A2,2,0,0,0,265.27,301.44Z" style="fill:#fff"></path><path d="M276.32,298.75a1.46,1.46,0,0,0-1.47,1.46c0,.41,2.93.41,2.93,0A1.46,1.46,0,0,0,276.32,298.75Z" style="fill:#fff"></path><path d="M372,299.63a1.46,1.46,0,0,0-1.46,1.47c0,.4,2.93.4,2.93,0A1.47,1.47,0,0,0,372,299.63Z" style="fill:#fff"></path><path d="M255.63,298.21a1.79,1.79,0,0,0-1.79,1.79c0,.5,3.58.5,3.58,0A1.79,1.79,0,0,0,255.63,298.21Z" style="fill:#fff"></path><path d="M406,284.94c0,.52-2.1.95-4.7.95s-4.71-.43-4.71-.95,2.11-.95,4.71-.95S406,284.41,406,284.94Z" style="fill:#407BFF"></path><path d="M406,284.94c0,.52-2.1.95-4.7.95s-4.71-.43-4.71-.95,2.11-.95,4.71-.95S406,284.41,406,284.94Z" style="fill:#fff;opacity:0.5"></path><path d="M401.31,285.89c-2.6,0-4.71-.43-4.71-.95v14.49c0,.52,2.11.95,4.71.95s4.7-.43,4.7-.95V284.94C406,285.46,403.91,285.89,401.31,285.89Z" style="fill:#407BFF"></path><path d="M401.31,285.89c-2.6,0-4.71-.43-4.71-.95v14.49c0,.52,2.11.95,4.71.95s4.7-.43,4.7-.95V284.94C406,285.46,403.91,285.89,401.31,285.89Z" style="fill:#fff;opacity:0.30000000000000004"></path><path d="M402.43,283.4c0,1.13-.5,1.54-1.12,1.54s-1.13-.41-1.13-1.54a13.37,13.37,0,0,1,1.13-3.58A13.45,13.45,0,0,1,402.43,283.4Z" style="fill:#407BFF"></path><path d="M402.43,283.4c0,1.13-.5,1.54-1.12,1.54s-1.13-.41-1.13-1.54a13.37,13.37,0,0,1,1.13-3.58A13.45,13.45,0,0,1,402.43,283.4Z" style="fill:#fff;opacity:0.8"></path><path d="M102.81,282.91c0,.46-1.86.84-4.16.84s-4.16-.38-4.16-.84,1.86-.85,4.16-.85S102.81,282.44,102.81,282.91Z" style="fill:#407BFF"></path><path d="M102.81,282.91c0,.46-1.86.84-4.16.84s-4.16-.38-4.16-.84,1.86-.85,4.16-.85S102.81,282.44,102.81,282.91Z" style="fill:#fff;opacity:0.5"></path><path d="M98.65,283.75c-2.3,0-4.16-.38-4.16-.84v17.88c0,.46,1.86.84,4.16.84s4.16-.38,4.16-.84V282.91C102.81,283.37,101,283.75,98.65,283.75Z" style="fill:#407BFF"></path><path d="M98.65,283.75c-2.3,0-4.16-.38-4.16-.84v17.88c0,.46,1.86.84,4.16.84s4.16-.38,4.16-.84V282.91C102.81,283.37,101,283.75,98.65,283.75Z" style="fill:#fff;opacity:0.30000000000000004"></path><path d="M99.64,281.55c0,1-.44,1.36-1,1.36s-1-.37-1-1.36a12,12,0,0,1,1-3.17A12,12,0,0,1,99.64,281.55Z" style="fill:#407BFF"></path><path d="M99.64,281.55c0,1-.44,1.36-1,1.36s-1-.37-1-1.36a12,12,0,0,1,1-3.17A12,12,0,0,1,99.64,281.55Z" style="fill:#fff;opacity:0.8"></path><ellipse cx="390.11" cy="298.52" rx="5.91" ry="1.19" style="fill:#407BFF"></ellipse><ellipse cx="390.11" cy="298.52" rx="5.91" ry="1.19" style="fill:#fff;opacity:0.5"></ellipse><path d="M390.11,299.72c-3.26,0-5.91-.54-5.91-1.2v4c0,.66,2.65,1.19,5.91,1.19s5.91-.53,5.91-1.19v-4C396,299.18,393.38,299.72,390.11,299.72Z" style="fill:#407BFF"></path><path d="M390.11,299.72c-3.26,0-5.91-.54-5.91-1.2v4c0,.66,2.65,1.19,5.91,1.19s5.91-.53,5.91-1.19v-4C396,299.18,393.38,299.72,390.11,299.72Z" style="fill:#fff;opacity:0.30000000000000004"></path><path d="M391.52,296.6c0,1.41-.63,1.92-1.41,1.92s-1.4-.51-1.4-1.92a17,17,0,0,1,1.4-4.5S391.52,295.19,391.52,296.6Z" style="fill:#407BFF"></path><path d="M391.52,296.6c0,1.41-.63,1.92-1.41,1.92s-1.4-.51-1.4-1.92a17,17,0,0,1,1.4-4.5S391.52,295.19,391.52,296.6Z" style="fill:#fff;opacity:0.8"></path><path d="M337.26,203.42c-1.82-8.25,3.45-14,10.64-13.25s7.54,6.06,7.54,6.06,5.71-2.77,8.95,1.84c4.63,6.57-1.93,17.37-18.07,15A33.89,33.89,0,0,1,337.26,203.42Z" style="fill:#263238"></path><path d="M325.12,204.52a1.49,1.49,0,0,0-.06-2.21c-2.15-1.86-3.5-1.35-5.05.23-1.8,1.84-.22,3.47,1.53,3.86C322.62,206.64,324.12,205.47,325.12,204.52Z" style="fill:#407BFF"></path><path d="M322.4,202c-1.2-3.22,4.31-3.69,4.31-7.28C331.23,200.22,324.21,206.9,322.4,202Z" style="fill:#407BFF"></path><path d="M321.67,203.77c-1.69-3-5.59.93-8.34-1.39C314.61,209.37,324.24,208.3,321.67,203.77Z" style="fill:#407BFF"></path><path d="M281.08,253.11,281,249a8.47,8.47,0,0,0-1.21-4.24l-1.44-2.43a3.89,3.89,0,0,0-4.68-1.65l-2.64,1a3.87,3.87,0,0,0-2.27,5l.86,2.24s1.64,6.49,5.81,9.8l1.36-.61A7.3,7.3,0,0,0,281.08,253.11Z" style="fill:#7f3e3b"></path><path d="M318.88,270l-.82,1.1-.74.93c-.49.61-1,1.19-1.51,1.76-1,1.15-2.08,2.24-3.19,3.29a52.68,52.68,0,0,1-7.27,5.82,42.24,42.24,0,0,1-8.67,4.48,37.33,37.33,0,0,1-4.92,1.46,32.61,32.61,0,0,1-5.26.67c-.44,0-.9,0-1.34,0h-.85l-.55,0a9.73,9.73,0,0,1-1.07-.12,10,10,0,0,1-3.75-1.47,11.1,11.1,0,0,1-1.32-1,12.71,12.71,0,0,1-1-1,13.37,13.37,0,0,1-2.14-3.39,20.58,20.58,0,0,1-1-2.76,41.19,41.19,0,0,1-1.42-9.23,80,80,0,0,1,0-8.49,74.32,74.32,0,0,1,.89-8.33,4.28,4.28,0,0,1,8.39-.25l0,.14c1.15,5,2.16,10.24,3.47,15a37.29,37.29,0,0,0,2.18,6.3,5.3,5.3,0,0,0,.56.91c.14.19.28.21.07-.09a4.41,4.41,0,0,0-2.67-1.46c-.2,0-.39-.06-.58-.07h-.22l.32-.05c.22,0,.43,0,.65-.09a20.93,20.93,0,0,0,5.24-1.74A32.84,32.84,0,0,0,295.7,269a51.85,51.85,0,0,0,5-4.33c.81-.78,1.59-1.61,2.36-2.43l1.12-1.25.94-1.08.49-.57A8.49,8.49,0,0,1,318.88,270Z" style="fill:#803e3c"></path><ellipse cx="325.91" cy="300.31" rx="28.16" ry="2.05" style="fill:#fff"></ellipse><path d="M206.22,302.88c3.55-.06,12.18-2.24,6.77-2.9C222.93,300.47,212.64,303.07,206.22,302.88Z" style="fill:#fff"></path><path d="M292.63,302.88c-3.55-.06-12.18-2.24-6.77-2.9C275.92,300.47,286.2,303.07,292.63,302.88Z" style="fill:#fff"></path><path d="M353.18,267.73a97,97,0,0,0-1.54,27.35c.11,1.54.23,3,.37,4.42-5.57,1.16-15.44,1.93-26.69,1.93A173.87,173.87,0,0,1,301.67,300c.19-2,.45-3.87.72-5.51A27.77,27.77,0,0,1,303.7,289c-7.87-5.41-1.49-14.76-1.67-18.8a14.09,14.09,0,0,1,12.12-14.56c2-.29,4.07-.54,6.08-.72a133.36,133.36,0,0,1,18.66,0c1.78.1,3.52.23,5.16.39A10.4,10.4,0,0,1,353.18,267.73Z" style="fill:#7f3e3b"></path><path d="M303,269.59c-2.75,5.85-9.94,18.28,1,21.49,8.28,2.45,42.39,1.11,47.46,0,1.79-5.44.26-11.72.26-11.72s-16.09-1.52-15.15-8.66c-7.6,4.77-12.64,1.74-20.12,1.3C311.32,271.71,304.69,273.32,303,269.59Z" style="fill:#407BFF"></path><path d="M303,269.59c-2.75,5.85-9.94,18.28,1,21.49,8.28,2.45,42.39,1.11,47.46,0,1.79-5.44.26-11.72.26-11.72s-16.09-1.52-15.15-8.66c-7.6,4.77-12.64,1.74-20.12,1.3C311.32,271.71,304.69,273.32,303,269.59Z" style="fill:#fff;opacity:0.5"></path><path d="M339.47,233.86c-1.49,6-2.94,15.8-.57,21,0,0-7.94.39-19.27,9.43-5.33-7.83-.09-9.37-.09-9.37,4.71-1.1,5.46-6.83,5.45-11.29Z" style="fill:#7f3e3b"></path><path d="M325,243.65l8.23-5.57a7.15,7.15,0,0,1-.73,3.65,15.68,15.68,0,0,1-8,7.15A25.25,25.25,0,0,0,325,243.65Z" style="opacity:0.2"></path><path d="M343.38,222.85c-2.34,9.77-3.13,14-8.92,18.15-8.7,6.32-19.94,1.33-20.51-8.93-.51-9.24,3.41-23.65,13.58-25.9S345.72,213.09,343.38,222.85Z" style="fill:#7f3e3b"></path><path d="M335.59,211.14c-2.86,5.32-1.92,17.43,3.89,18.19,5.94-1.82,13.92-8.16,8.86-19.36-5.29-11.71-24.91-11.94-27.31-1.09C330.27,211.67,335.59,211.14,335.59,211.14Z" style="fill:#263238"></path><path d="M326.71,203.71c-9.58,2.11-9.48,7-14.69,9,15.35,2.72,29.21.07,26.67-4.74C337.11,205,332,202.56,326.71,203.71Z" style="fill:#263238"></path><path d="M343.78,230.26c-3.25-8.95-9.89-21.68-20.89-25.39.5-1.78,2.68-2.68,4.74-3,4.39-.69,19.48,10.94,17.2,27.46A1.3,1.3,0,0,1,343.78,230.26Z" style="fill:#407BFF"></path><path d="M328.09,224.1c-.14.81-.68,1.38-1.2,1.29s-.84-.82-.7-1.62.69-1.38,1.21-1.29S328.24,223.3,328.09,224.1Z" style="fill:#263238"></path><path d="M318.19,222.5c-.15.8-.69,1.38-1.21,1.28s-.84-.82-.7-1.62.69-1.38,1.21-1.29S318.33,221.69,318.19,222.5Z" style="fill:#263238"></path><path d="M317.72,221l-1.84-.9S316.61,221.74,317.72,221Z" style="fill:#263238"></path><path d="M320.59,223.15a21.73,21.73,0,0,1-3.78,4.62,3.52,3.52,0,0,0,2.77,1Z" style="fill:#630f0f"></path><path d="M323.78,231.75a8.56,8.56,0,0,1-1.36-.17.26.26,0,0,1-.19-.29.24.24,0,0,1,.29-.18,6.45,6.45,0,0,0,5.68-1.37.25.25,0,0,1,.34,0,.24.24,0,0,1,0,.34A6.71,6.71,0,0,1,323.78,231.75Z" style="fill:#263238"></path><path d="M344.09,232a6.49,6.49,0,0,1-3.95,3.53c-2.23.61-3.33-1.83-2.7-4.31.57-2.23,2.41-5.24,4.64-4.75S345.12,229.76,344.09,232Z" style="fill:#7f3e3b"></path><path d="M331.18,219.07a.46.46,0,0,1-.29-.24,3.84,3.84,0,0,0-2.72-2.15.48.48,0,1,1,.11-1,4.75,4.75,0,0,1,3.47,2.67.48.48,0,0,1-.22.64A.43.43,0,0,1,331.18,219.07Z" style="fill:#263238"></path><path d="M315.72,216.44a.47.47,0,0,1-.32-.16.48.48,0,0,1,0-.67,4.76,4.76,0,0,1,4.22-1.18.48.48,0,0,1,.33.59.49.49,0,0,1-.58.34,3.76,3.76,0,0,0-3.33,1A.48.48,0,0,1,315.72,216.44Z" style="fill:#263238"></path><path d="M327.63,222.57l-1.84-.9S326.52,223.35,327.63,222.57Z" style="fill:#263238"></path><path d="M351.66,279.36h-.1c.07-1,.16-2.08.28-3.13l-7.19-3.94a19.08,19.08,0,0,0,1,6c1.89,4.68,3.88,8.78,6.41,9.88A26.38,26.38,0,0,0,351.66,279.36Z" style="opacity:0.2"></path><path d="M302.42,275.73a1.05,1.05,0,0,1-1.05-1c-.47-4.74,3.52-15,10.61-19.74a1,1,0,1,1,1.16,1.75c-6.65,4.43-10,14-9.67,17.79a1.07,1.07,0,0,1-1,1.15Z" style="fill:#407BFF"></path><path d="M302.42,275.73a1.05,1.05,0,0,1-1.05-1c-.47-4.74,3.52-15,10.61-19.74a1,1,0,1,1,1.16,1.75c-6.65,4.43-10,14-9.67,17.79a1.07,1.07,0,0,1-1,1.15Z" style="fill:#fff;opacity:0.5"></path><path d="M345.16,301l-3.63,5.73,10.39,4s2.39-6.22,1-11.24l-1.44-.25A7.36,7.36,0,0,0,345.16,301Z" style="fill:#7f3e3b"></path><path d="M343.84,313.86l3.77.92a3.24,3.24,0,0,0,3.89-2.35l.42-1.68-10.39-4-.16,3.85A3.23,3.23,0,0,0,343.84,313.86Z" style="fill:#7f3e3b"></path><path d="M350.41,258.17c2.27,2.07,4.28,4.11,6.32,6.26s4,4.34,5.89,6.64c.95,1.15,1.89,2.31,2.83,3.51s1.82,2.43,2.71,3.7a53.18,53.18,0,0,1,5,8.59l.33.71a6.71,6.71,0,0,1-.32,6.17,20.7,20.7,0,0,1-2.37,3.32,26.45,26.45,0,0,1-2.76,2.66,26.12,26.12,0,0,1-6,3.59,31.75,31.75,0,0,1-6.13,1.89c-1,.2-2,.34-3.07.45l-1.56.11-1.67,0a4.17,4.17,0,0,1-2.66-7.43l1.07-.85c.21-.16.62-.38.94-.59l1-.62c.69-.41,1.36-.86,2-1.29a33.6,33.6,0,0,0,3.56-2.73c.52-.48,1-.94,1.45-1.41s.8-1,1.15-1.41a9.09,9.09,0,0,0,1.28-2.59v6.89a54.84,54.84,0,0,0-4.25-5.66c-1.67-2-3.46-3.95-5.29-5.92s-3.72-3.95-5.63-5.9l-5.68-5.83-.07-.08a8.5,8.5,0,0,1,11.83-12.21Z" style="fill:#803e3c"></path><path d="M335.7,275.73a1.05,1.05,0,0,1-1.05-1c-.42-4.31,2.08-13.76,7.87-20.28a1.05,1.05,0,0,1,1.58,1.39c-5.33,6-7.73,14.86-7.35,18.69a1.06,1.06,0,0,1-.95,1.15Z" style="fill:#407BFF"></path><path d="M335.7,275.73a1.05,1.05,0,0,1-1.05-1c-.42-4.31,2.08-13.76,7.87-20.28a1.05,1.05,0,0,1,1.58,1.39c-5.33,6-7.73,14.86-7.35,18.69a1.06,1.06,0,0,1-.95,1.15Z" style="fill:#fff;opacity:0.5"></path><path d="M279.65,259.09c-1.53-.11-4.61-.86-4.89-2.31l-3.18-16.69c3.53-1.3,3.31-8.44.07-25.44l-10.57,2c3.24,17,5.66,23.72,9.41,23.63l3.18,16.7c.28,1.45-2.31,3.28-3.7,3.95s1,.83,5,.07S281.19,259.2,279.65,259.09Z" style="fill:#407BFF;opacity:0.6000000000000001"></path><path d="M279.65,259.09c-1.53-.11-4.61-.86-4.89-2.31l-3.18-16.69c3.53-1.3,3.31-8.44.07-25.44l-10.57,2c3.24,17,5.66,23.72,9.41,23.63l3.18,16.7c.28,1.45-2.31,3.28-3.7,3.95s1,.83,5,.07S281.19,259.2,279.65,259.09Z" style="fill:#fff;opacity:0.4"></path><path d="M266.54,228.53a10.1,10.1,0,0,0-1.7.39c0,.09,0,.18.07.26,2,7.49,3.82,10.43,5.94,10s2.75-3.88,1.83-11.72C271.17,228.43,269.06,228.12,266.54,228.53Z" style="fill:#407BFF;opacity:0.5"></path><path d="M186.85,199.56a24.57,24.57,0,0,1,6.49.88s-1.8,1.16-1.8,2a3.62,3.62,0,0,0,2,.37,10.24,10.24,0,0,1-3.69,2.5C186.76,201.71,186.85,199.56,186.85,199.56Z" style="fill:#263238"></path><path d="M161.58,215.92c0,4.53,4.89,6.18,3.16,9,3.83.88,5.22-4.51,5.22-4.51S165.27,216.8,161.58,215.92Z" style="fill:#263238"></path><path d="M204.39,247.91l1.1,1.79,1.18,1.9c.8,1.27,1.62,2.54,2.47,3.78,1.67,2.51,3.42,5,5.2,7.36s3.66,4.65,5.56,6.84a74.4,74.4,0,0,0,6,5.95L219,274.12c0,.11.68-.12,1.49-.62a20.84,20.84,0,0,0,2.76-2.1,62.36,62.36,0,0,0,5.88-6c1.92-2.23,3.82-4.58,5.63-7q1.33-1.85,2.63-3.75l1.28-1.9a8.59,8.59,0,0,0,1.1-1.94,5.15,5.15,0,0,1,9.93,2.71,5.23,5.23,0,0,1-.75,1.6l-.12.17a13.31,13.31,0,0,0-1.07,2.27l-1,2.26c-.66,1.5-1.34,3-2.06,4.48-1.41,3-2.9,5.95-4.61,8.88a59.44,59.44,0,0,1-6,8.71,31.81,31.81,0,0,1-4.29,4.21,19,19,0,0,1-6.87,3.68,7.39,7.39,0,0,1-6.39-1.07l-.47-.34a74.29,74.29,0,0,1-8.35-7,98.83,98.83,0,0,1-7.13-7.69c-2.22-2.64-4.29-5.38-6.25-8.18-1-1.41-1.91-2.83-2.84-4.28-.46-.72-.92-1.45-1.37-2.19s-.85-1.46-1.36-2.36a8.95,8.95,0,0,1,15.44-9Z" style="fill:#b55b52"></path><path d="M206.64,300c0,1.29-13.77,2.34-30.76,2.34s-30.76-1.05-30.76-2.34,13.77-2.34,30.76-2.34S206.64,298.68,206.64,300Z" style="fill:#fff"></path><path d="M207.48,260c-.06,15.42-2.73,22.78-5.28,39.37,0,.1,0,.21,0,.32a196.33,196.33,0,0,1-28.49,1.73,221.73,221.73,0,0,1-24.91-1.23,2.81,2.81,0,0,1,0-.29c0-1.51,0-3.3-.07-5.48-1.47-12.68-.3-22.23-2.41-39.07-1-8.17,4-15.73,11-16.75a139.6,139.6,0,0,1,33.55-.31C200.32,239.45,207.53,248.86,207.48,260Z" style="fill:#b55b52"></path><path d="M147.23,265.14c.47,6.73.48,12.32.67,17.89,5.25-6.69,5.79-20.22,5.79-20.22Z" style="opacity:0.2"></path><path d="M161.65,298.21l9.85,5.48-9.62,9.49s-8.31-6-5.81-11Z" style="fill:#b55b52"></path><path d="M174.79,314.92l-3.93,2.76a3.9,3.9,0,0,1-5-.46l-4-4,9.62-9.49,4.19,5.73A3.89,3.89,0,0,1,174.79,314.92Z" style="fill:#b55b52"></path><path d="M163.25,254.57l-.68.82-.76,1-1.55,2c-1,1.36-2,2.74-3,4.16q-3,4.23-5.63,8.68c-1.77,3-3.47,6-5,9.06s-3,6.22-4.31,9.38l.24-4.58c-.09,0,0,.36.28.94a11.28,11.28,0,0,0,1.51,2,36.45,36.45,0,0,0,5.16,4.52,73,73,0,0,0,6.4,4.22c1.14.65,2.29,1.28,3.46,1.89l1.76.89.88.42a2.21,2.21,0,0,0,.87.28,5.26,5.26,0,1,1-.17,10.52,5.22,5.22,0,0,1-2.36-.59l-.56-.31a3.9,3.9,0,0,0-1.1-.38l-1.07-.27-2.12-.57c-1.41-.39-2.82-.81-4.22-1.27a76,76,0,0,1-8.44-3.15,41.53,41.53,0,0,1-8.45-4.92,24.66,24.66,0,0,1-4.14-4,17.5,17.5,0,0,1-3.36-6.45,7.22,7.22,0,0,1,.1-4.15l.15-.44c1.23-3.75,2.52-7.49,4.11-11.1.75-1.82,1.6-3.6,2.43-5.39s1.75-3.52,2.7-5.24a117.83,117.83,0,0,1,6.11-10.1c1.11-1.64,2.26-3.25,3.45-4.85.61-.79,1.19-1.6,1.84-2.39l1-1.18,1.11-1.3a8.94,8.94,0,0,1,13.71,11.48Z" style="fill:#b55b52"></path><path d="M167.43,215.7c0,11.13-.38,17.48-2.16,22.69,4,3.94,9.33,6.27,18.22,6.39s7.68-2.87,5.38-6c-6.27-3.38-6.54-8.11-4.91-10.92Z" style="fill:#b55b52"></path><path d="M168.93,214.12l15,13.7a6.39,6.39,0,0,0-.32,5.75,12.56,12.56,0,0,1-8.65-3.1c-3.88-3.3-5.2-7.19-6.16-12.68C168.9,216.63,168.93,215.41,168.93,214.12Z" style="opacity:0.2"></path><path d="M164.44,208.32c.67,10.1-.77,11.72,4.37,16.84,7.72,7.69,19.1,7.38,21.72-1.26,2.72-9,2.83-25.72-7.09-29.61A14,14,0,0,0,164.44,208.32Z" style="fill:#b55b52"></path><path d="M164,214.91a7.44,7.44,0,0,0,8.61-4.6,17.82,17.82,0,0,1-4-.93s4-1.71,4.6-3.46a13.34,13.34,0,0,1-4.17-1.84s3.84-4,9.18-3.69,9.47,2.5,10.72,2.55a10.1,10.1,0,0,1-2.4-2.56s4.57.06,7.24-2.35a28.7,28.7,0,0,1-3.14-.58c1.78-1.31,5.2-3,6-5.65a22.58,22.58,0,0,1-7.74-1.93c-1.69-.79-4.11-1.93-6.3-1.54a9.23,9.23,0,0,1,3.77-1.53s-6.93-1.19-11.14,1.58a3.81,3.81,0,0,1,2.37-3.69s-7.13-.39-9.66,5.35c.45-.88.23-4.3.23-4.3s-2.63,5.94-6.23,7.55-4.82,3.77-2.94,5.48c-5.39,1.32-2.93,7.19-1.44,9.47s-1.87,3.91-1.87,3.91a4.46,4.46,0,0,0,2.79.35c-1.54,4.38,3.55,5.13,2.15,7.63C162.77,220.92,164,214.91,164,214.91Z" style="fill:#263238"></path><path d="M187.83,220.63s-2.79-.93-10.8-1.85c.74,2.31,2.33,4.32,6.43,4.76S187.83,220.63,187.83,220.63Z" style="fill:#fff"></path><path d="M160.35,214.41a8.51,8.51,0,0,0,4.1,4.74c2.45,1.2,3.94-1.19,3.48-4-.41-2.54-2.18-6.23-4.75-6.23S159.41,211.79,160.35,214.41Z" style="fill:#b55b52"></path><path d="M179.13,210c0,.86.43.93,1,.91s1.09-.15,1-1-.52-1.53-1.09-1.5S179.09,209.18,179.13,210Z" style="fill:#263238"></path><path d="M189.33,210.66c0,.86.43.93,1,.91s1.08-.15,1-1-.52-1.53-1.08-1.5S189.3,209.8,189.33,210.66Z" style="fill:#263238"></path><path d="M185.92,210.28A23.62,23.62,0,0,0,189,216a3.84,3.84,0,0,1-3.18.56Z" style="fill:#a02724"></path><path d="M176.1,206.43a.57.57,0,0,1-.23-.12.5.5,0,0,1,0-.71,5.12,5.12,0,0,1,4.3-1.76.51.51,0,0,1,.43.58.52.52,0,0,1-.58.42h0a4.06,4.06,0,0,0-3.39,1.43A.52.52,0,0,1,176.1,206.43Z" style="fill:#263238"></path><path d="M192.91,208.89a.51.51,0,0,1-.39-.28,4,4,0,0,0-2.83-2.3.5.5,0,0,1-.43-.57.51.51,0,0,1,.57-.43,5,5,0,0,1,3.61,2.86.52.52,0,0,1-.24.68A.59.59,0,0,1,192.91,208.89Z" style="fill:#263238"></path><path d="M169.15,268.33c.13.74-.13,1.4-.57,1.48s-.9-.47-1-1.21.14-1.4.58-1.48S169,267.59,169.15,268.33Z" style="opacity:0.2"></path><path d="M199.36,268.33c-.12.74.14,1.4.58,1.48s.89-.47,1-1.21-.13-1.4-.57-1.48S199.48,267.59,199.36,268.33Z" style="opacity:0.2"></path><path d="M256.82,242.26l-3.15-3.62a3.9,3.9,0,0,0-5.57-.34l-5.26,4.76-4.44,10.36,4.54,5.14c5.17,2,10.33-6.9,10.33-6.9l3.6-4.34A3.92,3.92,0,0,0,256.82,242.26Z" style="fill:#b55b52"></path><path d="M255.58,261.88c-1.42-.61-4.08-2.33-3.87-3.79l2.45-16.82c3.75-.07,5.88-6.89,8.37-24l-10.65-1.55c-2.49,17.13-2.4,24.27,1.18,25.41l-2.45,16.82c-.21,1.46-3.26,2.35-4.79,2.53s.68,1.11,4.74,1.7S257,262.48,255.58,261.88Z" style="fill:#407BFF;opacity:0.6000000000000001"></path><path d="M255.58,261.88c-1.42-.61-4.08-2.33-3.87-3.79l2.45-16.82c3.75-.07,5.88-6.89,8.37-24l-10.65-1.55c-2.49,17.13-2.4,24.27,1.18,25.41l-2.45,16.82c-.21,1.46-3.26,2.35-4.79,2.53s.68,1.11,4.74,1.7S257,262.48,255.58,261.88Z" style="fill:#fff;opacity:0.4"></path><path d="M253.17,228.71a10.65,10.65,0,0,0-1.74-.19c0,.09,0,.19,0,.27-.56,7.73.2,11.1,2.34,11.42s3.87-2.77,5.56-10.48C257.58,230.13,255.68,229.14,253.17,228.71Z" style="fill:#407BFF;opacity:0.5"></path></g></svg>