<svg xmlns="http://www.w3.org/2000/svg" viewBox="0 0 500 500"><g id="freepik--background-simple--inject-37"><path d="M454.75,316.64c27.67-63.07,31.06-138.38-6.29-192.76-18.54-27-45.17-47.88-74.58-62.27C316.94,33.75,241.41,29.66,197.31,82.36a114.6,114.6,0,0,0-7.76,10.43C163.43,132.24,162,182.6,107.42,193.14c-47.52,9.17-84.67,38.35-92.36,88.51-6,39.2,11.52,76.82,37.93,105,85.15,90.71,245.82,93,339.49,14.37C419.77,378.07,440.47,349.17,454.75,316.64Z" style="fill:#92E3A9"></path><path d="M454.75,316.64c27.67-63.07,31.06-138.38-6.29-192.76-18.54-27-45.17-47.88-74.58-62.27C316.94,33.75,241.41,29.66,197.31,82.36a114.6,114.6,0,0,0-7.76,10.43C163.43,132.24,162,182.6,107.42,193.14c-47.52,9.17-84.67,38.35-92.36,88.51-6,39.2,11.52,76.82,37.93,105,85.15,90.71,245.82,93,339.49,14.37C419.77,378.07,440.47,349.17,454.75,316.64Z" style="fill:#fff;opacity:0.7000000000000001"></path></g><g id="freepik--Floor--inject-37"><line x1="472.68" y1="331.13" x2="483.57" y2="331.13" style="fill:none;stroke:#263238;stroke-miterlimit:10"></line><line x1="27.12" y1="331.13" x2="462.83" y2="331.13" style="fill:none;stroke:#263238;stroke-miterlimit:10"></line></g><g id="freepik--Wall--inject-37"><rect x="64.86" y="284.61" width="32.45" height="11.16" style="opacity:0.2"></rect><rect x="308.95" y="271.19" width="32.45" height="11.16" style="opacity:0.2"></rect><rect x="176.98" y="271.76" width="32.45" height="11.16" style="opacity:0.2"></rect><rect x="39.03" y="271.76" width="32.45" height="11.16" style="opacity:0.2"></rect><rect x="408.44" y="271.19" width="32.45" height="11.16" style="opacity:0.2"></rect><rect x="334.48" y="206.82" width="32.45" height="11.16" style="opacity:0.2"></rect><rect x="213.96" y="220.61" width="32.45" height="11.16" style="opacity:0.2"></rect><rect x="86.49" y="223.23" width="32.45" height="11.16" style="opacity:0.2"></rect><rect x="122.8" y="223.23" width="32.45" height="11.16" style="opacity:0.2"></rect><rect x="254.91" y="220.61" width="32.45" height="11.16" style="opacity:0.2"></rect><rect x="27.94" y="235.63" width="32.45" height="11.16" style="opacity:0.2"></rect><rect x="388.17" y="286.62" width="32.45" height="11.16" style="opacity:0.1"></rect><rect x="425.25" y="286.62" width="32.45" height="11.16" style="opacity:0.1"></rect><rect x="132.6" y="289.27" width="32.45" height="11.16" style="opacity:0.2"></rect><rect x="112.34" y="304.69" width="32.45" height="11.16" style="opacity:0.1"></rect><rect x="149.42" y="304.69" width="32.45" height="11.16" style="opacity:0.1"></rect><rect x="327.86" y="289.27" width="32.45" height="11.16" style="opacity:0.2"></rect><rect x="307.6" y="304.69" width="32.45" height="11.16" style="opacity:0.1"></rect><rect x="344.68" y="304.69" width="32.45" height="11.16" style="opacity:0.1"></rect><rect x="105.35" y="240.76" width="32.45" height="11.16" style="opacity:0.2"></rect><rect x="85.08" y="256.19" width="32.45" height="11.16" style="opacity:0.1"></rect><rect x="122.17" y="256.19" width="32.45" height="11.16" style="opacity:0.1"></rect><rect x="109.67" y="208.46" width="32.45" height="11.16" style="opacity:0.1"></rect><rect x="56.36" y="196.65" width="32.45" height="11.16" style="opacity:0.1"></rect><rect x="269.88" y="187.27" width="32.45" height="11.16" style="opacity:0.1"></rect><rect x="376.2" y="207.15" width="32.45" height="11.16" style="opacity:0.1"></rect><rect x="354.57" y="226.19" width="32.45" height="11.16" style="opacity:0.1"></rect><rect x="213.51" y="104.17" width="32.45" height="11.16" style="opacity:0.2"></rect><rect x="163.05" y="127.04" width="32.45" height="11.16" style="opacity:0.1"></rect><rect x="233.6" y="123.53" width="32.45" height="11.16" style="opacity:0.1"></rect><rect x="234.05" y="207.15" width="32.45" height="11.16" style="opacity:0.1"></rect><rect x="216.28" y="169.4" width="32.45" height="11.16" style="opacity:0.2"></rect><rect x="179.2" y="169.4" width="32.45" height="11.16" style="opacity:0.2"></rect><rect x="197.84" y="156.27" width="32.45" height="11.16" style="opacity:0.1"></rect><rect x="148.69" y="106.82" width="32.45" height="11.16" style="opacity:0.2"></rect><rect x="292.22" y="102.65" width="32.45" height="11.16" style="opacity:0.2"></rect><rect x="255.13" y="102.65" width="32.45" height="11.16" style="opacity:0.2"></rect><rect x="273.78" y="89.52" width="32.45" height="11.16" style="opacity:0.1"></rect><rect x="181.99" y="77" width="32.45" height="11.16" style="opacity:0.1"></rect><rect x="183.06" y="188.44" width="32.45" height="11.16" style="opacity:0.1"></rect><rect x="419.67" y="156.91" width="32.45" height="11.16" style="opacity:0.2"></rect><rect x="382.59" y="156.91" width="32.45" height="11.16" style="opacity:0.2"></rect><rect x="401.23" y="143.78" width="32.45" height="11.16" style="opacity:0.1"></rect><rect x="386.45" y="175.95" width="32.45" height="11.16" style="opacity:0.1"></rect><rect x="317.92" y="148.05" width="32.45" height="11.16" style="opacity:0.2"></rect><rect x="333.37" y="165.44" width="32.45" height="11.16" style="opacity:0.1"></rect></g><g id="freepik--Picture--inject-37"><path d="M123.52,180.76H41.39V50H143.08V180.76H128.87m10.52-126H45.08V176h94.31ZM139,120.39C126.84,99.82,90.65,106.68,69.32,92.2A45.42,45.42,0,0,1,64,88M51.42,55.25a39.4,39.4,0,0,0,9.9,30m0,90.74c0-16.38,36.95-39.24,28.95-52.19-6.89-11.17-20.37-7.26-30.77-1.77m-2.88,1.6a91.1,91.1,0,0,0-11.3,7.79M94.46,55.25s13.72,21.33,45,15.62m-42.21,1a12.59,12.59,0,1,0,1.45,5.87,12.79,12.79,0,0,0-.09-1.52M124,88.77a5.91,5.91,0,1,0,5.91,5.91A5.9,5.9,0,0,0,124,88.77Zm15.09,50.33a24.38,24.38,0,0,0-9.1-4.59m-4.77-.75c-.47,0-.93,0-1.41,0a24.38,24.38,0,0,0-16.45,42.37" style="fill:none;stroke:#000;stroke-miterlimit:10;opacity:0.30000000000000004"></path></g><g id="freepik--Jacuzzi--inject-37"><ellipse cx="256.54" cy="379.86" rx="224.59" ry="45.59" style="fill:#92E3A9;stroke:#000;stroke-miterlimit:10"></ellipse><ellipse cx="256.54" cy="379.86" rx="187.92" ry="41.43" style="fill:#92E3A9;stroke:#000;stroke-miterlimit:10"></ellipse><path d="M256.54,421.29c96.14,0,175.4-15.92,186.56-36.45-.36-2-.78-4.23-1.2-5.93-1.09-4.36-5.46-5.45-11.45-9.81s-18-7.63-24.54-10.36-32.16-8.18-43.07-8.72-21.26-4.36-30-4.36-30.53-2.73-46.76-3.16-84.64-.66-91.18-.11-10.9,1.09-18.53,2.18-22.9,1.63-31.08,4.9-18,3.82-32.71,7.09S87,366.37,80.43,370.19a56.64,56.64,0,0,0-11.8,9.67C68.63,402.74,152.76,421.29,256.54,421.29Z" style="fill:#fff;stroke:#263238;stroke-miterlimit:10"></path><ellipse cx="253.57" cy="374.68" rx="11.21" ry="9.87" style="fill:#fff;stroke:#263238;stroke-miterlimit:10"></ellipse><path d="M247,376.69a6.19,6.19,0,1,1-6.19-6.19A6.19,6.19,0,0,1,247,376.69Z" style="fill:#fff;stroke:#263238;stroke-miterlimit:10"></path><circle cx="265.95" cy="376.69" r="5.19" style="fill:#fff;stroke:#263238;stroke-miterlimit:10"></circle><path d="M234.33,382a6.19,6.19,0,1,1-6.19-6.19A6.19,6.19,0,0,1,234.33,382Z" style="fill:#fff;stroke:#263238;stroke-miterlimit:10"></path><circle cx="215.42" cy="380.37" r="9.54" style="fill:#fff;stroke:#263238;stroke-miterlimit:10"></circle><circle cx="245.04" cy="384.22" r="7.03" style="fill:#fff;stroke:#263238;stroke-miterlimit:10"></circle><circle cx="265.45" cy="383.88" r="4.35" style="fill:#fff;stroke:#263238;stroke-miterlimit:10"></circle><path d="M242,385.56a4,4,0,1,1-4-4A4,4,0,0,1,242,385.56Z" style="fill:#fff;stroke:#263238;stroke-miterlimit:10"></path><path d="M260.43,380.7a4.19,4.19,0,1,1-4.18-4.18A4.19,4.19,0,0,1,260.43,380.7Z" style="fill:#fff;stroke:#263238;stroke-miterlimit:10"></path><path d="M280.17,381.54a5.69,5.69,0,1,1-5.69-5.69A5.69,5.69,0,0,1,280.17,381.54Z" style="fill:#fff;stroke:#263238;stroke-miterlimit:10"></path><path d="M233.33,372.34a3.18,3.18,0,1,1-3.18-3.18A3.19,3.19,0,0,1,233.33,372.34Z" style="fill:#fff;stroke:#263238;stroke-miterlimit:10"></path><path d="M210.57,382.55a4.69,4.69,0,1,1-4.68-4.69A4.69,4.69,0,0,1,210.57,382.55Z" style="fill:#fff;stroke:#263238;stroke-miterlimit:10"></path><circle cx="195.18" cy="384.55" r="2.68" style="fill:#fff;stroke:#263238;stroke-miterlimit:10"></circle><ellipse cx="286.15" cy="378.64" rx="10" ry="8.81" style="fill:#fff;stroke:#263238;stroke-miterlimit:10"></ellipse><circle cx="278.48" cy="385.12" r="5.52" style="fill:#fff;stroke:#263238;stroke-miterlimit:10"></circle><path d="M302.5,383.78a4.63,4.63,0,1,1-4.63-4.63A4.64,4.64,0,0,1,302.5,383.78Z" style="fill:#fff;stroke:#263238;stroke-miterlimit:10"></path><path d="M227.88,387.79a4.63,4.63,0,1,1-4.63-4.63A4.63,4.63,0,0,1,227.88,387.79Z" style="fill:#fff;stroke:#263238;stroke-miterlimit:10"></path><circle cx="267.14" cy="389.89" r="5.52" style="fill:#fff;stroke:#263238;stroke-miterlimit:10"></circle><circle cx="255.79" cy="388.4" r="8.51" style="fill:#fff;stroke:#263238;stroke-miterlimit:10"></circle><circle cx="282.22" cy="391.83" r="6.27" style="fill:#fff;stroke:#263238;stroke-miterlimit:10"></circle><path d="M300.35,387a3.88,3.88,0,1,1-3.88-3.88A3.88,3.88,0,0,1,300.35,387Z" style="fill:#fff;stroke:#263238;stroke-miterlimit:10"></path><path d="M279.53,393a3.59,3.59,0,1,1-3.59-3.59A3.58,3.58,0,0,1,279.53,393Z" style="fill:#fff;stroke:#263238;stroke-miterlimit:10"></path><path d="M296,388.7a3.73,3.73,0,1,1-3.73-3.73A3.73,3.73,0,0,1,296,388.7Z" style="fill:#fff;stroke:#263238;stroke-miterlimit:10"></path><path d="M214.3,388.7a3.73,3.73,0,1,1-3.73-3.73A3.73,3.73,0,0,1,214.3,388.7Z" style="fill:#fff;stroke:#263238;stroke-miterlimit:10"></path><path d="M203.93,388.7A3.73,3.73,0,1,1,200.2,385,3.73,3.73,0,0,1,203.93,388.7Z" style="fill:#fff;stroke:#263238;stroke-miterlimit:10"></path><path d="M186.48,389.39a3,3,0,1,1-3-3A3,3,0,0,1,186.48,389.39Z" style="fill:#fff;stroke:#263238;stroke-miterlimit:10"></path><path d="M321.33,389.39a3,3,0,1,1-3-3A3,3,0,0,1,321.33,389.39Z" style="fill:#fff;stroke:#263238;stroke-miterlimit:10"></path><path d="M312.23,384.09a5.08,5.08,0,1,1-5.08-5.08A5.08,5.08,0,0,1,312.23,384.09Z" style="fill:#fff;stroke:#263238;stroke-miterlimit:10"></path><circle cx="268.93" cy="381.23" r="2.84" style="fill:#fff;stroke:#263238;stroke-miterlimit:10"></circle><path d="M251.46,390.34a4.18,4.18,0,1,1-4.18-4.18A4.18,4.18,0,0,1,251.46,390.34Z" style="fill:#fff;stroke:#263238;stroke-miterlimit:10"></path><path d="M240.11,392.13a2.39,2.39,0,1,1-2.39-2.39A2.39,2.39,0,0,1,240.11,392.13Z" style="fill:#fff;stroke:#263238;stroke-miterlimit:10"></path></g><g id="freepik--Plant--inject-37"><path d="M405.51,113.38s-16.28-9-17.48,11.45-4.22,153.73-4.22,153.73" style="fill:none;stroke:#263238;stroke-linecap:round;stroke-miterlimit:10;stroke-width:2px"></path><path d="M379.57,126.64s13.28,29.54,7.25,150.11" style="fill:none;stroke:#263238;stroke-linecap:round;stroke-miterlimit:10;stroke-width:2px"></path><path d="M392.62,117.5s-6.23,4-9.77-.58,2.4-12.93-2.84-16.5-14.27,1.88-14.27,1.88,7,2,6.73,5.84-3.57,5.24-4,3.58-3.76-10-9.42-6.55a14,14,0,0,0-6.51,8.88s13.15-1.41,14,3.54-5.39-.86-10.82-1.18-10.38.48-10,3.76a43,43,0,0,1-.51,8.69s4.6-4.09,10.57-3.74,5.74,4.16.32,3.84-10.09,4.85-10.09,4.85,4.94,8.46,11.23,12.64,8.56,2.68,9.29-.54-.95-11.49,2.85-11.27S363,149,367.84,149.8s8.75-.57,10-3.76l1.28-3.19s-1.69-8.27-1-11.5,1.63.1,2.49,4,1.41,13.16,3.07,12.71,7-7.21,8.2-9.86-7-10.76-6.89-12.39,6.45,1.47,7.44,3.16a40.75,40.75,0,0,1,1.94,3.93s4-2.49,3.87-10.12S392.62,117.5,392.62,117.5Z" style="fill:#92E3A9"></path><path d="M392.62,117.5s-6.23,4-9.77-.58,2.4-12.93-2.84-16.5-14.27,1.88-14.27,1.88,7,2,6.73,5.84-3.57,5.24-4,3.58-3.76-10-9.42-6.55a14,14,0,0,0-6.51,8.88s13.15-1.41,14,3.54-5.39-.86-10.82-1.18-10.38.48-10,3.76a43,43,0,0,1-.51,8.69s4.6-4.09,10.57-3.74,5.74,4.16.32,3.84-10.09,4.85-10.09,4.85,4.94,8.46,11.23,12.64,8.56,2.68,9.29-.54-.95-11.49,2.85-11.27S363,149,367.84,149.8s8.75-.57,10-3.76l1.28-3.19s-1.69-8.27-1-11.5,1.63.1,2.49,4,1.41,13.16,3.07,12.71,7-7.21,8.2-9.86-7-10.76-6.89-12.39,6.45,1.47,7.44,3.16a40.75,40.75,0,0,1,1.94,3.93s4-2.49,3.87-10.12S392.62,117.5,392.62,117.5Z" style="fill:#263238;opacity:0.30000000000000004"></path><path d="M361.05,135.39c4.06-5,10.05-11.81,15.06-15" style="fill:none;stroke:#263238;stroke-linecap:round;stroke-miterlimit:10"></path><path d="M356.35,141.5s1-1.45,2.73-3.62" style="fill:none;stroke:#263238;stroke-linecap:round;stroke-miterlimit:10"></path><path d="M378.76,121.58s6,8.53,7.15,17.31" style="fill:none;stroke:#263238;stroke-linecap:round;stroke-miterlimit:10"></path><path d="M371.93,126.63s1.69-1,1.05,9.86" style="fill:none;stroke:#263238;stroke-linecap:round;stroke-miterlimit:10"></path><path d="M376.34,116.54s3.44-3.06,1.63-9.16" style="fill:none;stroke:#263238;stroke-linecap:round;stroke-miterlimit:10"></path><line x1="371.67" y1="121.71" x2="369.22" y2="117.21" style="fill:none;stroke:#263238;stroke-linecap:round;stroke-miterlimit:10"></line><path d="M366.5,126.31s-7.82-5.91-12.7-6.2" style="fill:none;stroke:#263238;stroke-linecap:round;stroke-miterlimit:10"></path><path d="M414.81,101.42s-.25,9-7.24,9.38-11.31-11.21-18.46-8.41S381.27,118,381.27,118s6.79-5.57,10.44-2.76,2.8,7.15.84,6.47-12.61-3.06-13,5A17,17,0,0,0,384,139.21s7.56-14.13,13.06-11.55-4.54,4.81-8.56,10-6.6,10.71-3.07,12.6,8.35,6.43,8.35,6.43-1-7.39,3.46-13.12,8.08-2.93,4.06,2.29-2,13.41-2,13.41,11.84.81,20.31-2.63,8.52-6.74,5.8-9.68-12.16-6.87-9.35-10.52,10.06,16.07,14.2,11.77,5.39-9.14,3.07-12.6L431,132.18s-9.43-3.94-12.16-6.87,1.21-1.57,5.66.2,14.13,7.57,14.81,5.6-2.48-11.89-4.28-14.94-15.54-.34-17.1-1.54,5.87-5.46,8.23-5.29a51.25,51.25,0,0,1,5.26.72s.21-5.66-7.5-10.76S414.81,101.42,414.81,101.42Z" style="fill:#92E3A9"></path><path d="M414.81,101.42s-.25,9-7.24,9.38-11.31-11.21-18.46-8.41S381.27,118,381.27,118s6.79-5.57,10.44-2.76,2.8,7.15.84,6.47-12.61-3.06-13,5A17,17,0,0,0,384,139.21s7.56-14.13,13.06-11.55-4.54,4.81-8.56,10-6.6,10.71-3.07,12.6,8.35,6.43,8.35,6.43-1-7.39,3.46-13.12,8.08-2.93,4.06,2.29-2,13.41-2,13.41,11.84.81,20.31-2.63,8.52-6.74,5.8-9.68-12.16-6.87-9.35-10.52,10.06,16.07,14.2,11.77,5.39-9.14,3.07-12.6L431,132.18s-9.43-3.94-12.16-6.87,1.21-1.57,5.66.2,14.13,7.57,14.81,5.6-2.48-11.89-4.28-14.94-15.54-.34-17.1-1.54,5.87-5.46,8.23-5.29a51.25,51.25,0,0,1,5.26.72s.21-5.66-7.5-10.76S414.81,101.42,414.81,101.42Z" style="fill:#263238;opacity:0.2"></path><path d="M411.21,145.21c-2.26-7.48-5-18.1-4.81-25.33" style="fill:none;stroke:#263238;stroke-linecap:round;stroke-miterlimit:10"></path><path d="M414.12,154.09s-.74-2-1.77-5.2" style="fill:none;stroke:#263238;stroke-linecap:round;stroke-miterlimit:10"></path><path d="M409.45,118.07s12.65-.23,22.2,4.64" style="fill:none;stroke:#263238;stroke-linecap:round;stroke-miterlimit:10"></path><path d="M409.84,128.35S410,126,420.44,134" style="fill:none;stroke:#263238;stroke-linecap:round;stroke-miterlimit:10"></path><path d="M402.75,117.06s-.72-5.54-8.06-7.87" style="fill:none;stroke:#263238;stroke-linecap:round;stroke-miterlimit:10"></path><line x1="404.75" y1="125.25" x2="398.57" y2="124.65" style="fill:none;stroke:#263238;stroke-linecap:round;stroke-miterlimit:10"></line><path d="M405.83,133.57s-11.25,3.8-14.87,8.49" style="fill:none;stroke:#263238;stroke-linecap:round;stroke-miterlimit:10"></path><path d="M339.8,161s35.57,23.51,35,114.54" style="fill:none;stroke:#263238;stroke-linecap:round;stroke-miterlimit:10;stroke-width:2px"></path><path d="M383.65,154.79s-1.13,10.31-9.23,10.15-12-14-20.51-11.45-10.52,17.23-10.52,17.23,8.36-5.79,12.31-2.2,2.56,8.51.35,7.54-14.25-4.73-15.43,4.51a19.59,19.59,0,0,0,3.94,14.92s10.06-15.59,16.16-12.09-5.7,5.12-10.83,10.76-8.62,11.74-4.72,14.25,9,8.21,9,8.21-.41-8.61,5.24-14.81,9.59-2.62,4.46,3-3.6,15.28-3.6,15.28S373.88,222.17,384,219s10.47-7,7.6-10.62-13.38-9.08-9.79-13,10.09,19.5,15.28,14.93,7.08-10,4.72-14.25l-2.36-4.21s-10.51-5.44-13.38-9.08,1.54-1.69,6.51.77,15.59,10.06,16.57,7.86-1.74-14-3.54-17.65-17.89-1.85-19.58-3.39,7.28-5.74,10-5.33a58.09,58.09,0,0,1,6,1.34s.77-6.52-7.64-13.14S383.65,154.79,383.65,154.79Z" style="fill:#92E3A9"></path><path d="M383.65,154.79s-1.13,10.31-9.23,10.15-12-14-20.51-11.45-10.52,17.23-10.52,17.23,8.36-5.79,12.31-2.2,2.56,8.51.35,7.54-14.25-4.73-15.43,4.51a19.59,19.59,0,0,0,3.94,14.92s10.06-15.59,16.16-12.09-5.7,5.12-10.83,10.76-8.62,11.74-4.72,14.25,9,8.21,9,8.21-.41-8.61,5.24-14.81,9.59-2.62,4.46,3-3.6,15.28-3.6,15.28S373.88,222.17,384,219s10.47-7,7.6-10.62-13.38-9.08-9.79-13,10.09,19.5,15.28,14.93,7.08-10,4.72-14.25l-2.36-4.21s-10.51-5.44-13.38-9.08,1.54-1.69,6.51.77,15.59,10.06,16.57,7.86-1.74-14-3.54-17.65-17.89-1.85-19.58-3.39,7.28-5.74,10-5.33a58.09,58.09,0,0,1,6,1.34s.77-6.52-7.64-13.14S383.65,154.79,383.65,154.79Z" style="fill:#263238;opacity:0.30000000000000004"></path><path d="M375.36,205c-1.9-8.85-4-21.37-3.15-29.69" style="fill:none;stroke:#263238;stroke-linecap:round;stroke-miterlimit:10"></path><path d="M377.88,215.51s-.66-2.42-1.54-6.18" style="fill:none;stroke:#263238;stroke-linecap:round;stroke-miterlimit:10"></path><path d="M375.9,173.5s14.62.93,25.18,7.45" style="fill:none;stroke:#263238;stroke-linecap:round;stroke-miterlimit:10"></path><path d="M375.38,185.4s.42-2.72,11.69,7.55" style="fill:none;stroke:#263238;stroke-linecap:round;stroke-miterlimit:10"></path><path d="M368.26,171.71s-.3-6.47-8.56-9.85" style="fill:none;stroke:#263238;stroke-linecap:round;stroke-miterlimit:10"></path><line x1="369.8" y1="181.35" x2="362.72" y2="180.06" style="fill:none;stroke:#263238;stroke-linecap:round;stroke-miterlimit:10"></line><path d="M370.25,191s-13.33,3.33-17.95,8.4" style="fill:none;stroke:#263238;stroke-linecap:round;stroke-miterlimit:10"></path><path d="M353.67,232.74s22.9,17.48,25.32,43.4l-4.83-86.81" style="fill:none;stroke:#263238;stroke-linecap:round;stroke-miterlimit:10;stroke-width:2px"></path><path d="M409.13,220.08C379,214.65,379,276.14,379,276.14" style="fill:none;stroke:#263238;stroke-linecap:round;stroke-miterlimit:10;stroke-width:2px"></path><path d="M382.6,275.54s-17.48-127.2,33.16-127.2" style="fill:none;stroke:#263238;stroke-linecap:round;stroke-miterlimit:10;stroke-width:2px"></path><path d="M397.64,216.42c-4.12-4.63-12.87-4.63-18,7.21s-.52,9.78-.52,9.78,9.78-3.09,16-5.15,14.41-7.21,14.92-4.12-4.11,6.18-9.77,7.21-20.59,5.14-19.05,8.23,5.15,12.35,5.15,12.35a130.79,130.79,0,0,1,13.9-10.29c6.69-4.12,10.8-2.57,7.2,2.06s-13.9,9.78-11.84,15.95S410,273.55,410,273.55s1.55-12.87,5.15-17,3.6.51,2.57,7.72a83.64,83.64,0,0,0-1,9.26l14.42,5.15s5.14-7.72,7.72-10.3l2.57-2.57s-11.32-9.78-11.84-15.95,7.72,0,10.29,1,6.7,8.23,6.7,8.23,2.57-11.84,3.08-15.95l.52-4.12S439.33,235,435.21,235s-6.17,3.09-6.17-1,4.11-6.69,8.75-6.17,12.35,3.08,12.35,3.08,3.09-2.57,2.06-10.29-3.61-7.72-9.78-5.66-10.3,6.69-14.93,6.69-2.06-5.66,1-7.21,10.81-4.63,12.35-5.14-8.23-7.72-13.38-8.75-11.81,2.59-11.32,7.72C417.2,219,401.76,221.05,397.64,216.42Z" style="fill:#92E3A9"></path><path d="M430.77,269.41c.16,1.55.27,3.11.33,4.66" style="fill:none;stroke:#263238;stroke-linecap:round;stroke-miterlimit:10"></path><path d="M420.43,232.47a135.91,135.91,0,0,1,9.69,31.89" style="fill:none;stroke:#263238;stroke-linecap:round;stroke-miterlimit:10"></path><path d="M418.58,228.34c-2.55-5.49-4.47-8.83-4.47-8.83s4.63-2.06,6.69-6.18a17.17,17.17,0,0,1,5.15-6.17" style="fill:none;stroke:#263238;stroke-linecap:round;stroke-miterlimit:10"></path><path d="M396.1,237s18.53-7.72,18.53-6.18" style="fill:none;stroke:#263238;stroke-linecap:round;stroke-miterlimit:10"></path><path d="M424.92,227.23s8.23-4.12,15.44-4.12" style="fill:none;stroke:#263238;stroke-linecap:round;stroke-miterlimit:10"></path><path d="M421.83,239.58a72,72,0,0,0-9.78,9.78,44.49,44.49,0,0,0-7.2,11.84" style="fill:none;stroke:#263238;stroke-linecap:round;stroke-miterlimit:10"></path><path d="M427.49,241.64s10.81-3.09,16.47,2.06" style="fill:none;stroke:#263238;stroke-linecap:round;stroke-miterlimit:10"></path><path d="M447.07,172.1c-5.6-3.32-11.8-3.39-14.84-6.89s2.93-5.26,6.12-3.94,10.58,5.12,12,5.95.43-11.28-2.16-15.84-9.71-7.22-13.26-3.49c-7.48,7.86-19.16-2.45-18.36-8.59s-4.94-12.75-17.25-8.88-7.72,6-7.72,6,8.74,5.36,14.34,8.68,14.89,6.15,12.9,8.57-7.36.94-11.85-2.66-17.39-12.17-18.71-9-5.95,12-5.95,12a131,131,0,0,1,16.88,3.74c7.5,2.36,9,6.48,3.17,6.8s-16.49-4.09-19.81,1.52-1,20-1,20,10.73-7.27,16.2-7.25,2,3.06-4.14,7a84.89,84.89,0,0,0-7.68,5.3l5.57,14.26s9.2-1.18,12.83-.92l3.63.25s0-15,4.29-19.39,5.06,5.83,6,8.44-1.83,10.45-1.83,10.45,10.62-5.81,14.07-8.12l3.44-2.31s-4-10.86-6.67-14-6.38-2.64-3.27-5.34,7.75-1.28,10.4,2.56,5.76,11.35,5.76,11.35,4,.64,9.13-5.2S452.67,175.41,447.07,172.1Zm-48.71,16.47c-4.11-2.06,5.66-6.17,5.66-6.17C407.63,181.88,402.48,190.63,398.36,188.57Zm6.94-19.21c-1.76-.88,3.51-2.63,3.51-2.63C416.41,168.19,407.05,170.24,405.3,169.36Z" style="fill:#92E3A9"></path><path d="M398.25,199.06q-1.61,1.69-3.3,3.29" style="fill:none;stroke:#263238;stroke-linecap:round;stroke-miterlimit:10"></path><path d="M419.38,167c-3.94,8.2-9.9,18.91-17.74,28.22" style="fill:none;stroke:#263238;stroke-linecap:round;stroke-miterlimit:10"></path><path d="M421.28,162.92c2.47-5.52,3.74-9.16,3.74-9.16s4.59,2.15,9.05,1a17.17,17.17,0,0,1,8-.16" style="fill:none;stroke:#263238;stroke-linecap:round;stroke-miterlimit:10"></path><path d="M400,151.63s18,8.93,16.81,9.94" style="fill:none;stroke:#263238;stroke-linecap:round;stroke-miterlimit:10"></path><path d="M426.27,167s8.51,3.52,13.23,9" style="fill:none;stroke:#263238;stroke-linecap:round;stroke-miterlimit:10"></path><path d="M414.92,172.75a71.21,71.21,0,0,0-13.8-1,44.64,44.64,0,0,0-13.66,2.32" style="fill:none;stroke:#263238;stroke-linecap:round;stroke-miterlimit:10"></path><path d="M417.08,178.37s9.41,6.14,9.24,13.79" style="fill:none;stroke:#263238;stroke-linecap:round;stroke-miterlimit:10"></path><path d="M367.1,243.41c-4.51-2.66-9.5-2.72-11.94-5.54s2.35-4.23,4.92-3.17,8.51,4.12,9.64,4.79.35-9.08-1.74-12.75-7.81-5.81-10.67-2.81c-6,6.33-15.42-2-14.77-6.91s-4-10.27-13.89-7.15-6.21,4.85-6.21,4.85,7,4.31,11.54,7,12,5,10.38,6.9-5.92.75-9.54-2.14-14-9.8-15.05-7.23-4.79,9.64-4.79,9.64a104.7,104.7,0,0,1,13.59,3c6,1.89,7.26,5.21,2.55,5.46s-13.28-3.29-15.94,1.22-.84,16.09-.84,16.09,8.63-5.85,13-5.83,1.59,2.46-3.33,5.64a66.05,66.05,0,0,0-6.17,4.26l4.47,11.47a83.82,83.82,0,0,1,10.33-.74l2.92.21s0-12,3.45-15.61,4.07,4.69,4.81,6.8-1.48,8.41-1.48,8.41,8.55-4.69,11.33-6.54l2.77-1.86s-3.2-8.74-5.37-11.25-5.14-2.12-2.64-4.29,6.24-1,8.37,2.06a64.43,64.43,0,0,1,4.64,9.13s3.2.52,7.34-4.18S371.61,246.08,367.1,243.41Zm-39.2,13.26c-3.31-1.66,4.56-5,4.56-5C335.35,251.29,331.21,258.33,327.9,256.67Zm5.58-15.46c-1.41-.71,2.82-2.12,2.82-2.12C342.42,240.27,334.89,241.91,333.48,241.21Z" style="fill:#92E3A9"></path><path d="M327.81,265.11c-.86.91-1.75,1.79-2.65,2.65" style="fill:none;stroke:#263238;stroke-linecap:round;stroke-miterlimit:10"></path><path d="M344.81,239.33A109.38,109.38,0,0,1,330.54,262" style="fill:none;stroke:#263238;stroke-linecap:round;stroke-miterlimit:10"></path><path d="M346.34,236c2-4.45,3-7.38,3-7.38a12.24,12.24,0,0,0,7.28.81,13.81,13.81,0,0,1,6.47-.13" style="fill:none;stroke:#263238;stroke-linecap:round;stroke-miterlimit:10"></path><path d="M329.21,226.94s14.47,7.19,13.53,8" style="fill:none;stroke:#263238;stroke-linecap:round;stroke-miterlimit:10"></path><path d="M350.36,239.3s6.84,2.83,10.65,7.21" style="fill:none;stroke:#263238;stroke-linecap:round;stroke-miterlimit:10"></path><path d="M341.22,243.94a57,57,0,0,0-11.1-.79,35.52,35.52,0,0,0-11,1.87" style="fill:none;stroke:#263238;stroke-linecap:round;stroke-miterlimit:10"></path><path d="M343,248.46s7.58,4.94,7.44,11.1" style="fill:none;stroke:#263238;stroke-linecap:round;stroke-miterlimit:10"></path><path d="M348.71,158.43s-5.66,4.11-9.26,0S341,146.07,335.84,143s-13.38,2.57-13.38,2.57,6.69,1.54,6.69,5.15-3.09,5.14-3.6,3.6-4.12-9.27-9.26-5.66a13.26,13.26,0,0,0-5.67,8.75S323,155.34,324,160s-5.15-.52-10.3-.52-9.78,1-9.26,4.12a41,41,0,0,1,0,8.24s4.12-4.12,9.78-4.12,5.66,3.6.51,3.6-9.26,5.15-9.26,5.15,5.14,7.72,11.32,11.32,8.23,2.06,8.75-1-1.54-10.81,2.06-10.81-5.15,13.9-.52,14.41,8.24-1,9.27-4.11l1-3.09s-2.06-7.72-1.55-10.81,1.55,0,2.58,3.6,2.05,12.36,3.6,11.84,6.17-7.2,7.2-9.78-7.2-9.78-7.2-11.32,6.17,1,7.2,2.57a40.48,40.48,0,0,1,2.06,3.61s3.61-2.58,3.09-9.78S348.71,158.43,348.71,158.43Z" style="fill:#92E3A9"></path><path d="M319.88,177.09c3.55-5,8.83-11.72,13.39-15.06" style="fill:none;stroke:#263238;stroke-linecap:round;stroke-miterlimit:10"></path><path d="M315.77,183.13s.9-1.43,2.38-3.58" style="fill:none;stroke:#263238;stroke-linecap:round;stroke-miterlimit:10"></path><path d="M335.84,163.06s6.18,7.72,7.72,15.95" style="fill:none;stroke:#263238;stroke-linecap:round;stroke-miterlimit:10"></path><path d="M329.67,168.2s1.54-1,1.54,9.27" style="fill:none;stroke:#263238;stroke-linecap:round;stroke-miterlimit:10"></path><path d="M333.27,158.43s3.09-3.09,1-8.75" style="fill:none;stroke:#263238;stroke-linecap:round;stroke-miterlimit:10"></path><line x1="329.15" y1="163.57" x2="326.58" y2="159.45" style="fill:none;stroke:#263238;stroke-linecap:round;stroke-miterlimit:10"></line><path d="M324.52,168.2s-7.72-5.14-12.35-5.14" style="fill:none;stroke:#263238;stroke-linecap:round;stroke-miterlimit:10"></path><path d="M400.46,331h.23V274.49c0-1.84-8.95-3.33-20-3.33s-20,1.49-20,3.33c0,.21.18,1.22.18,1.54v55h.24a1.15,1.15,0,0,0-.24.62c0,2.33,8.91,4.23,19.9,4.23s19.89-1.9,19.89-4.23A1.13,1.13,0,0,0,400.46,331Z" style="fill:#263238;stroke:#263238;stroke-linecap:round;stroke-miterlimit:10;stroke-width:2px"></path></g><g id="freepik--Candles--inject-37"><path d="M411.69,399.7v30c0,2.23,6.11,4,13.65,4s13.65-1.8,13.65-4v-30Z" style="fill:#fff;stroke:#263238;stroke-miterlimit:10"></path><path d="M439,399.7c0,2.23-6.11,4-13.65,4s-13.65-1.8-13.65-4,6.11-4,13.65-4S439,397.48,439,399.7Z" style="fill:#fff;stroke:#263238;stroke-miterlimit:10"></path><path d="M414.44,400.28c0-1.78,4.88-3.22,10.9-3.22s10.9,1.44,10.9,3.22" style="fill:#fff;stroke:#263238;stroke-miterlimit:10"></path><path d="M427.74,394.36c0,2.67-2.71,4.83-2.71,4.83s-2.7-2.16-2.7-4.83,2.7-4.83,2.7-4.83S427.74,391.69,427.74,394.36Z" style="fill:#fff;stroke:#263238;stroke-miterlimit:10"></path><path d="M59.91,313.42v30.31c0,2.25,6.18,4.08,13.8,4.08s13.8-1.83,13.8-4.08V313.42Z" style="fill:#263238;stroke:#263238;stroke-miterlimit:10"></path><path d="M87.51,313.42c0,2.25-6.18,4.07-13.8,4.07s-13.8-1.82-13.8-4.07,6.18-4.07,13.8-4.07S87.51,311.17,87.51,313.42Z" style="fill:#263238;stroke:#263238;stroke-miterlimit:10"></path><path d="M62.7,314c0-1.79,4.93-3.25,11-3.25s11,1.46,11,3.25" style="fill:none;stroke:#fff;stroke-miterlimit:10"></path><path d="M76.13,308c0,2.7-2.73,4.88-2.73,4.88s-2.73-2.18-2.73-4.88,2.73-4.88,2.73-4.88S76.13,305.33,76.13,308Z" style="fill:#fff;stroke:#263238;stroke-miterlimit:10"></path><path d="M388,412.84v22.88c0,1.7,4.66,3.08,10.41,3.08s10.42-1.38,10.42-3.08V412.84Z" style="fill:#fff;stroke:#263238;stroke-miterlimit:10"></path><ellipse cx="398.43" cy="412.84" rx="10.41" ry="3.07" style="fill:#fff;stroke:#263238;stroke-miterlimit:10"></ellipse><path d="M390.12,413.29c0-1.36,3.72-2.46,8.31-2.46s8.31,1.1,8.31,2.46" style="fill:#fff;stroke:#263238;stroke-miterlimit:10"></path><path d="M400.26,408.77c0,2-2.06,3.68-2.06,3.68s-2.06-1.64-2.06-3.68,2.06-3.68,2.06-3.68S400.26,406.74,400.26,408.77Z" style="fill:#fff;stroke:#263238;stroke-miterlimit:10"></path><path d="M89.3,321.34v18.28c0,1.35,3.73,2.45,8.32,2.45s8.32-1.1,8.32-2.45V321.34Z" style="fill:#fff;stroke:#263238;stroke-miterlimit:10"></path><ellipse cx="97.62" cy="321.34" rx="8.32" ry="2.46" style="fill:#fff;stroke:#263238;stroke-miterlimit:10"></ellipse><path d="M91,321.69c0-1.08,3-2,6.64-2s6.64.88,6.64,2" style="fill:#fff;stroke:#263238;stroke-miterlimit:10"></path><path d="M99.09,318.08A4.49,4.49,0,0,1,97.44,321a3.45,3.45,0,0,1,0-5.89A4.49,4.49,0,0,1,99.09,318.08Z" style="fill:#fff;stroke:#263238;stroke-miterlimit:10"></path></g><g id="freepik--Characters--inject-37"><path d="M333.55,354.76s-1.81-12.87-5.19-20.09-6.1-20.09-15.35-28.44-31.15-6.1-40.63-4.07-37.7,8.36-40.63,11.29-5,38.82-5,38.82,72.46,2.94,75.39,3.39,9.26-1.35,12.42-1.35,6.77,2.7,9.7,2.7S333.55,354.76,333.55,354.76Z" style="fill:#fff;stroke:#263238;stroke-miterlimit:10"></path><path d="M308.57,354.14l-1.69-1.35a4.7,4.7,0,0,0,1.24-3.16,4.74,4.74,0,0,0-9.48,0,4.59,4.59,0,0,0,.1,1l-.33-.07a6.2,6.2,0,0,0-11.1-3.7,4.77,4.77,0,0,0-6.23-1,6.67,6.67,0,0,0-1.17-1.79,4.45,4.45,0,0,0,.22-1.32,4.63,4.63,0,0,0-8.89-1.81,6.87,6.87,0,0,0-12-2.21l-1-.4a3.7,3.7,0,0,0-3.49-2.46,3.65,3.65,0,0,0-1.82.5l-.39-.14a6.92,6.92,0,0,0,.52-2.62A6.76,6.76,0,0,0,241.35,329a6.91,6.91,0,0,0-5.58-2.81,6.82,6.82,0,0,0-6.88,6.77c0,.1,0,.2,0,.29a6.76,6.76,0,0,0-3.71,11.67l2.64-.18a65.35,65.35,0,0,1,8.24,8.59c2.68.07,5.46.17,5.46.17l10.13,1.13c-1.65-.11-3.18.05,0,1.58,5.19,2.48,28,1.81,29.34,1.58s-2.93-1.35-2.93-1.35h11.79a6.1,6.1,0,0,0,2.31.45,6.18,6.18,0,0,0,2.32-.45h.73l4.06-.45,15.58-1.81Z" style="fill:#fff;stroke:#263238;stroke-miterlimit:10"></path><path d="M234.78,317.22c-.21.41-.39.81-.55,1.2-.9,2.25-5.41,17.83-5.41,19.86s8.57,16.25,8.57,16.25-5.41-2.93-6.54-2.48-5.42,1.8-6.32,1.58-4.52.9-6.1,2.93-2.71-.22-5.19-1.13-6.77.46-6.77.46a39,39,0,0,1-7.45-3.62c-2.48-1.8-5,1.58-6.09,1.58s-7.45.68-7.45.68,0-13.77,1.35-21.67,6.1-17.83,11.06-25.5,13.55-12.42,13.55-12.42a59.49,59.49,0,0,1,16.25-2.48c8.57,0,19,5.19,20.31,5.42s11.06-.23,14-1.36,9-1.13,12,1.36-.9,7.67-1.81,9-12,5.2-18.73,6.55-16.7,2.71-16.7,2.71Z" style="fill:#fff;stroke:#263238;stroke-miterlimit:10"></path><line x1="234.78" y1="317.22" x2="237.62" y2="312.77" style="fill:none;stroke:#263238;stroke-miterlimit:10"></line><path d="M208.5,312.1s6.77-.91,12.42,6.09,7.9,20.09,7.9,20.09" style="fill:none;stroke:#263238;stroke-miterlimit:10"></path><path d="M201.28,339.18s5.87,11.29,9.25,15.58" style="fill:none;stroke:#263238;stroke-miterlimit:10"></path><line x1="216.18" y1="312.32" x2="222.27" y2="313" style="fill:none;stroke:#263238;stroke-miterlimit:10"></line><path d="M295.33,303.12l1.13,0,6.4-.25s-.58,5.8.58,7.83,3.48,7,3.77,10.43,2.32,1.16,2.61-.58a42.48,42.48,0,0,0-.58-9,7.65,7.65,0,0,1-.29-2s8.7,7.25,9.86,8.7a57.25,57.25,0,0,0,4.93,4.63s1.16.87,1.16-.29-2-4.92-2-4.92a51.24,51.24,0,0,0-3.48-9.28c-2.32-4.64-11.31-11.6-13.05-12.18s-16.52-.87-16.52-.87Z" style="fill:#fff;stroke:#263238;stroke-miterlimit:10"></path><line x1="322.87" y1="317.62" x2="317.65" y2="311.53" style="fill:none;stroke:#263238;stroke-miterlimit:10"></line><path d="M298.23,308.63a57.39,57.39,0,0,1-2.61-10.44c-.87-5.8,0-18.26,0-18.26s-4.06-3.19-11.6-.58-18.55,12.75-18.55,14.78,2.61,10.73,5.22,15.95,3.76,7.25,3.76,7.25" style="fill:#fff;stroke:#263238;stroke-miterlimit:10"></path><polygon points="275.9 298.19 270.11 308.92 266.34 297.9 275.9 298.19" style="fill:#263238"></polygon><path d="M281.12,297.32a36.6,36.6,0,0,1-15.36,4.06c-1.74,0-5.8-.29-6.38-3.19s0-13.33,0-13.33l-3.06-3.77a1.31,1.31,0,0,1,.05-1.7l5.62-6.13v-4.93c0-1.45,1.74-5.79,1.74-5.79a17.43,17.43,0,0,1,7.54-7.54c5.5-2.9,12.17,1.16,18.55,5.22s9.57,14.78,9,18.84a22.2,22.2,0,0,0,.58,8.12l-2.32,1.16-4.93,1.45-2.9,1.16-1.45,2.89" style="fill:#fff;stroke:#263238;stroke-miterlimit:10"></path><path d="M268.69,273.82c-.19,1.07-.66,1.88-1.05,1.81s-.56-1-.38-2.05.65-1.88,1.05-1.81S268.87,272.76,268.69,273.82Z" style="fill:#263238"></path><path d="M261.41,287.47a9.52,9.52,0,0,0,9.57-2.9" style="fill:none;stroke:#263238;stroke-miterlimit:10"></path><path d="M266.05,268.62s3.19-3.76,5.51.87" style="fill:none;stroke:#263238;stroke-miterlimit:10"></path><path d="M275.32,242.24s-6.95,1.74-9.27,4.06a14.15,14.15,0,0,0-3.19,5.8h6.38s-6.67,4.64-9.28,5.22a25.48,25.48,0,0,1-4.93.58s5.22,6.38,9.57,6.38,11.59-5.51,11.59-5.51-3.18,4.93-1.74,6.09,9.28-3.77,9.28-3.77-7.54,5.21-3.19,9.56,5.51,10.15,4.06,10.44l-1.45.29s2.61,1.16,4.06.87,3.48-2.9,3.48-2.9v5.22l4.06-2.32,2.32,6.09a7.22,7.22,0,0,1-2,.87c-1.16.29-2.9.58-2.9.58a4,4,0,0,0,0,4.34c1.45,2.32,4.93,3.77,4.93,3.77v-3.48l3.19,1.16s2-6.08,4.34-6.95,2.09-3.25,7.83-8.12c2.64-2.24,2.91-11.48-1.45-27.54-1.31-4.81-18.06-11.52-18.06-11.52S282.86,237,275.32,242.24Z" style="fill:#263238;stroke:#263238;stroke-miterlimit:10"></path><line x1="258.8" y1="317.33" x2="271.56" y2="323.41" style="fill:none;stroke:#263238;stroke-miterlimit:10"></line><line x1="284.31" y1="323.99" x2="299.1" y2="317.33" style="fill:none;stroke:#263238;stroke-miterlimit:10"></line><path d="M224.3,305.73c2-7.83,10.15-12.18,10.15-12.18a41.41,41.41,0,0,0,7.25.29c2.61-.29,2.61-4.92,2.32-6.95s1.45-8.41,1.45-8.41,2.6-2.61,2.89-3.48-4.05-3.19-4.92-4.64,0-3.48-.29-7.82-4.06-11.31-4.06-11.31-1.25-2.56-5.76-2.11-14.45,12.64-19,17.16-5.64,14.22-5.42,16.25,2.49,5.64,2.49,7.9-5.42,9.7-9.49,13.31" style="fill:#fff;stroke:#263238;stroke-miterlimit:10"></path><path d="M234.45,293.55l-5.14-1.1-1.17,6S231.26,294.13,234.45,293.55Z" style="fill:#263238;stroke:#263238;stroke-miterlimit:10"></path><line x1="240.55" y1="268.08" x2="241" y2="271.47" style="fill:none;stroke:#263238;stroke-miterlimit:10"></line><path d="M242.13,264.47s-2-4.29-3.83.45" style="fill:none;stroke:#263238;stroke-miterlimit:10"></path><path d="M241.23,280l-.68,1.13a3.88,3.88,0,0,0,2.94,1.13" style="fill:none;stroke:#263238;stroke-miterlimit:10"></path><path d="M223.72,270.36s5.51-.29,5.22-2.32-2-3.76,1.45-6.37,7.25-7,6.67-9.57,3.48,1.45,4.06.58l.58-.87.58-1.74s.29-5.8-4.35-7.25-5.51-.29-8.12-1.45-17.1-2-24.64,6.67-10.15,21.74-5.51,28.12,10.15,12.18,15.08,12.76,4.92-12.76,4.92-15.37S223.72,270.36,223.72,270.36Z" style="fill:#263238;stroke:#263238;stroke-miterlimit:10"></path><path d="M208.27,245.74s-1.35-3.62-3.38-3.62-8.58-.45-6.1,2.49,3.28,5.74,6.38,3.43Z" style="fill:#263238;stroke:#263238;stroke-miterlimit:10"></path><path d="M204.89,242.12s5-1.8,2-7.22-12.19-4.06-15.8.23-.23,7.9,2.26,8.8,5.19-.68,5.19-.68Z" style="fill:#263238;stroke:#263238;stroke-miterlimit:10"></path><path d="M225.46,271.52s-5.22-6.66-8.11-2.9,3.47,11,6.08,11.6,3.48-1.16,3.48-1.16" style="fill:#fff;stroke:#263238;stroke-miterlimit:10"></path><path d="M285.7,355.43s4.51-2.7,5.19-2.93,5.41-12.41,6.09-14.45,4.29-2.7,7-5.41,2.93-1.36,2.93-.23-2.25,4.06-2.25,4.06,9.93-4.06,11.73-3.83.91,2.25.91,2.25,3.16-1.12,3.16,0-1.58,3.84-1.58,3.84,2.25,1.58.67,3.16L318,343.47s-1.13,3.16-2.71,4.52-8.35,6.54-9.93,7.44a37.35,37.35,0,0,1-5,2l-1.58,1.12s-10.84.23-14.45.46S282.08,357.47,285.7,355.43Z" style="fill:#fff;stroke:#263238;stroke-miterlimit:10"></path><line x1="317.3" y1="334.89" x2="304.66" y2="341.21" style="fill:none;stroke:#263238;stroke-miterlimit:10"></line><line x1="318.88" y1="338.73" x2="308.94" y2="344.6" style="fill:none;stroke:#263238;stroke-miterlimit:10"></line><line x1="317.97" y1="343.47" x2="310.98" y2="348.44" style="fill:none;stroke:#263238;stroke-miterlimit:10"></line><line x1="304.66" y1="336.47" x2="299.24" y2="339.86" style="fill:none;stroke:#263238;stroke-miterlimit:10"></line><path d="M251.29,353.34a5.08,5.08,0,1,1-5.07-5.08A5.07,5.07,0,0,1,251.29,353.34Z" style="fill:#fff;stroke:#263238;stroke-miterlimit:10"></path><circle cx="259.66" cy="354.7" r="3.72" style="fill:#fff;stroke:#263238;stroke-miterlimit:10"></circle><circle cx="254.27" cy="356.63" r="3.72" style="fill:#fff;stroke:#263238;stroke-miterlimit:10"></circle><circle cx="278.1" cy="356.4" r="3.72" style="fill:#fff;stroke:#263238;stroke-miterlimit:10"></circle><circle cx="209.18" cy="356.4" r="3.72" style="fill:#fff;stroke:#263238;stroke-miterlimit:10"></circle></g></svg>