<svg xmlns="http://www.w3.org/2000/svg" viewBox="0 0 750 500"><g id="freepik--background-complete--inject-45"><rect x="132.14" y="45.28" width="483.24" height="332.68" style="fill:#e0e0e0"></rect><rect x="213.82" y="140.9" width="63.87" height="202.41" style="fill:#f5f5f5"></rect><rect x="245.75" y="140.9" width="31.93" height="201.85" style="fill:#ebebeb"></rect><rect x="221.11" y="121.03" width="22.55" height="19.87" style="fill:#f5f5f5"></rect><rect x="238.29" y="121.03" width="5.38" height="19.87" style="fill:#ebebeb"></rect><polyline points="208.5 140.9 208.5 139.75 279.56 139.75 279.56 140.9" style="fill:#e0e0e0"></polyline><rect x="226.43" y="149.57" width="5.41" height="11.4" style="fill:#fafafa"></rect><path d="M245.75,165.44c0,.12-7.15.22-16,.22s-16-.1-16-.22,7.15-.21,16-.21S245.75,165.32,245.75,165.44Z" style="fill:#e0e0e0"></path><rect x="258.64" y="149.57" width="5.41" height="11.4" style="fill:#e0e0e0"></rect><path d="M278,165.44c0,.12-7.15.22-16,.22s-16-.1-16-.22,7.15-.21,16-.21S278,165.32,278,165.44Z" style="fill:#e0e0e0"></path><rect x="258.64" y="172.2" width="5.41" height="11.4" style="fill:#e0e0e0"></rect><path d="M278,188.08c0,.12-7.15.21-16,.21s-16-.09-16-.21,7.15-.22,16-.22S278,188,278,188.08Z" style="fill:#e0e0e0"></path><rect x="258.64" y="195.52" width="5.41" height="11.4" style="fill:#e0e0e0"></rect><path d="M278,211.39c0,.12-7.15.22-16,.22s-16-.1-16-.22,7.15-.22,16-.22S278,211.27,278,211.39Z" style="fill:#e0e0e0"></path><rect x="258.64" y="218.83" width="5.41" height="11.4" style="fill:#e0e0e0"></rect><path d="M278,234.7c0,.12-7.15.22-16,.22s-16-.1-16-.22,7.15-.21,16-.21S278,234.58,278,234.7Z" style="fill:#e0e0e0"></path><rect x="258.64" y="241.48" width="5.41" height="11.4" style="fill:#e0e0e0"></rect><path d="M278,257.35c0,.12-7.15.22-16,.22s-16-.1-16-.22,7.15-.22,16-.22S278,257.23,278,257.35Z" style="fill:#e0e0e0"></path><rect x="258.64" y="264.22" width="5.41" height="11.4" style="fill:#e0e0e0"></rect><rect x="258.64" y="287.26" width="5.41" height="11.4" style="fill:#e0e0e0"></rect><path d="M278,280.09c0,.12-7.15.22-16,.22s-16-.1-16-.22,7.15-.22,16-.22S278,280,278,280.09Z" style="fill:#e0e0e0"></path><rect x="226.43" y="172.55" width="5.41" height="11.4" style="fill:#fafafa"></rect><path d="M245.75,188.42c0,.12-7.15.22-16,.22s-16-.1-16-.22,7.15-.22,16-.22S245.75,188.3,245.75,188.42Z" style="fill:#e0e0e0"></path><rect x="226.43" y="195.52" width="5.41" height="11.4" style="fill:#fafafa"></rect><path d="M245.75,211.4c0,.12-7.15.22-16,.22s-16-.1-16-.22,7.15-.22,16-.22S245.75,211.28,245.75,211.4Z" style="fill:#e0e0e0"></path><rect x="226.43" y="218.5" width="5.41" height="11.4" style="fill:#fafafa"></rect><path d="M245.75,234.37c0,.13-7.15.22-16,.22s-16-.09-16-.22,7.15-.21,16-.21S245.75,234.25,245.75,234.37Z" style="fill:#e0e0e0"></path><rect x="226.43" y="241.48" width="5.41" height="11.4" style="fill:#fafafa"></rect><path d="M245.75,257.35c0,.12-7.15.22-16,.22s-16-.1-16-.22,7.15-.22,16-.22S245.75,257.23,245.75,257.35Z" style="fill:#e0e0e0"></path><rect x="226.43" y="264.46" width="5.41" height="11.4" style="fill:#fafafa"></rect><path d="M245.75,280.33c0,.12-7.15.22-16,.22s-16-.1-16-.22,7.15-.22,16-.22S245.75,280.21,245.75,280.33Z" style="fill:#e0e0e0"></path><rect x="226.43" y="287.43" width="5.41" height="11.4" style="fill:#fafafa"></rect><rect x="515.35" y="174.26" width="63.87" height="202.41" style="fill:#f5f5f5"></rect><rect x="547.28" y="174.26" width="31.93" height="201.85" style="fill:#ebebeb"></rect><rect x="522.64" y="154.39" width="22.55" height="19.87" style="fill:#f5f5f5"></rect><rect x="539.82" y="154.39" width="5.38" height="19.87" style="fill:#ebebeb"></rect><polyline points="510.03 174.26 510.03 173.1 581.09 173.1 581.09 174.26" style="fill:#e0e0e0"></polyline><rect x="527.96" y="182.93" width="5.41" height="11.4" style="fill:#fafafa"></rect><path d="M547.28,198.8c0,.12-7.15.22-16,.22s-16-.1-16-.22,7.15-.21,16-.21S547.28,198.68,547.28,198.8Z" style="fill:#e0e0e0"></path><rect x="560.17" y="182.93" width="5.41" height="11.4" style="fill:#e0e0e0"></rect><path d="M579.5,198.8c0,.12-7.15.22-16,.22s-16-.1-16-.22,7.15-.21,16-.21S579.5,198.68,579.5,198.8Z" style="fill:#e0e0e0"></path><rect x="560.17" y="205.56" width="5.41" height="11.4" style="fill:#e0e0e0"></rect><path d="M579.5,221.43c0,.13-7.15.22-16,.22s-16-.09-16-.22,7.15-.21,16-.21S579.5,221.31,579.5,221.43Z" style="fill:#e0e0e0"></path><rect x="560.17" y="228.88" width="5.41" height="11.4" style="fill:#e0e0e0"></rect><path d="M579.5,244.75c0,.12-7.15.22-16,.22s-16-.1-16-.22,7.15-.22,16-.22S579.5,244.63,579.5,244.75Z" style="fill:#e0e0e0"></path><rect x="560.17" y="252.19" width="5.41" height="11.4" style="fill:#e0e0e0"></rect><path d="M579.5,268.06c0,.12-7.15.22-16,.22s-16-.1-16-.22,7.15-.21,16-.21S579.5,267.94,579.5,268.06Z" style="fill:#e0e0e0"></path><rect x="560.17" y="274.84" width="5.41" height="11.4" style="fill:#e0e0e0"></rect><path d="M579.5,290.71c0,.12-7.15.22-16,.22s-16-.1-16-.22,7.15-.22,16-.22S579.5,290.59,579.5,290.71Z" style="fill:#e0e0e0"></path><rect x="560.17" y="297.58" width="5.41" height="11.4" style="fill:#e0e0e0"></rect><rect x="560.17" y="320.62" width="5.41" height="11.4" style="fill:#e0e0e0"></rect><path d="M579.5,313.45c0,.12-7.15.22-16,.22s-16-.1-16-.22,7.15-.22,16-.22S579.5,313.33,579.5,313.45Z" style="fill:#e0e0e0"></path><rect x="527.96" y="205.91" width="5.41" height="11.4" style="fill:#fafafa"></rect><path d="M547.28,221.78c0,.12-7.15.22-16,.22s-16-.1-16-.22,7.15-.22,16-.22S547.28,221.66,547.28,221.78Z" style="fill:#e0e0e0"></path><rect x="527.96" y="228.88" width="5.41" height="11.4" style="fill:#fafafa"></rect><path d="M547.28,244.76c0,.12-7.15.22-16,.22s-16-.1-16-.22,7.15-.22,16-.22S547.28,244.64,547.28,244.76Z" style="fill:#e0e0e0"></path><rect x="527.96" y="251.86" width="5.41" height="11.4" style="fill:#fafafa"></rect><path d="M547.28,267.73c0,.12-7.15.22-16,.22s-16-.1-16-.22,7.15-.21,16-.21S547.28,267.61,547.28,267.73Z" style="fill:#e0e0e0"></path><rect x="527.96" y="274.84" width="5.41" height="11.4" style="fill:#fafafa"></rect><path d="M547.28,290.71c0,.12-7.15.22-16,.22s-16-.1-16-.22,7.15-.22,16-.22S547.28,290.59,547.28,290.71Z" style="fill:#e0e0e0"></path><rect x="527.96" y="297.82" width="5.41" height="11.4" style="fill:#fafafa"></rect><path d="M547.28,313.69c0,.12-7.15.22-16,.22s-16-.1-16-.22,7.15-.22,16-.22S547.28,313.57,547.28,313.69Z" style="fill:#e0e0e0"></path><rect x="527.96" y="320.79" width="5.41" height="11.4" style="fill:#fafafa"></rect><rect x="265.65" y="255.71" width="93.24" height="122.98" style="fill:#ebebeb"></rect><rect x="315.17" y="255.71" width="43.72" height="122.98" style="fill:#e0e0e0"></rect><rect x="285.2" y="272.36" width="8.38" height="20.37" style="fill:#f5f5f5"></rect><rect x="285.2" y="352.07" width="8.38" height="20.37" style="fill:#f5f5f5"></rect><path d="M315.17,300.72c0,.23-11.09.41-24.76.41s-24.76-.18-24.76-.41,11.08-.42,24.76-.42S315.17,300.49,315.17,300.72Z" style="fill:#f5f5f5"></path><rect x="285.2" y="312.52" width="8.38" height="20.37" style="fill:#f5f5f5"></rect><path d="M315.17,340.88c0,.23-11.09.41-24.76.41s-24.76-.18-24.76-.41,11.08-.42,24.76-.42S315.17,340.65,315.17,340.88Z" style="fill:#f5f5f5"></path><rect x="324.45" y="272.36" width="8.38" height="20.37" style="fill:#f5f5f5"></rect><rect x="342.64" y="272.36" width="8.38" height="20.37" style="fill:#f5f5f5"></rect><rect x="324.45" y="311" width="8.38" height="20.37" style="fill:#f5f5f5"></rect><rect x="342.64" y="311" width="8.38" height="20.37" style="fill:#f5f5f5"></rect><rect x="324.45" y="349.65" width="8.38" height="20.37" style="fill:#f5f5f5"></rect><rect x="342.64" y="349.65" width="8.38" height="20.37" style="fill:#f5f5f5"></rect><rect x="258.64" y="251.43" width="107.26" height="4.43" style="fill:#e0e0e0"></rect><path d="M359.54,256.28c0,.23-20.84.41-46.54.41s-46.55-.18-46.55-.41,20.84-.42,46.55-.42S359.54,256.05,359.54,256.28Z" style="fill:#ebebeb"></path><polygon points="267.58 377.95 173.6 377.95 173.19 229.42 267.17 229.42 267.58 377.95" style="fill:#ebebeb"></polygon><rect x="220.18" y="229.42" width="46.99" height="148.53" style="fill:#e0e0e0"></rect><rect x="183.92" y="200.18" width="33.19" height="29.24" style="fill:#ebebeb"></rect><rect x="209.2" y="200.18" width="7.91" height="29.24" style="fill:#e0e0e0"></rect><rect x="165.36" y="227.72" width="104.56" height="1.71" style="fill:#e0e0e0"></rect><rect x="191.74" y="242.17" width="7.96" height="16.77" style="fill:#fff"></rect><path d="M220.18,265.53c0,.18-10.52.32-23.49.32s-23.5-.14-23.5-.32,10.52-.32,23.5-.32S220.18,265.36,220.18,265.53Z" style="fill:#e0e0e0"></path><rect x="239.14" y="242.17" width="7.95" height="16.77" style="fill:#f5f5f5"></rect><path d="M267.58,265.53c0,.18-10.52.32-23.49.32s-23.5-.14-23.5-.32,10.52-.32,23.5-.32S267.58,265.36,267.58,265.53Z" style="fill:#ebebeb"></path><rect x="239.14" y="275.48" width="7.95" height="16.77" style="fill:#f5f5f5"></rect><path d="M267.58,298.84c0,.17-10.52.32-23.49.32s-23.5-.15-23.5-.32,10.52-.32,23.5-.32S267.58,298.66,267.58,298.84Z" style="fill:#ebebeb"></path><rect x="239.14" y="309.79" width="7.95" height="16.77" style="fill:#f5f5f5"></rect><path d="M267.58,333.14c0,.18-10.52.32-23.49.32s-23.5-.14-23.5-.32,10.52-.32,23.5-.32S267.58,333,267.58,333.14Z" style="fill:#ebebeb"></path><rect x="239.14" y="344.09" width="7.95" height="16.77" style="fill:#f5f5f5"></rect><path d="M267.58,367.45c0,.18-10.52.32-23.49.32s-23.5-.14-23.5-.32,10.52-.32,23.5-.32S267.58,367.27,267.58,367.45Z" style="fill:#ebebeb"></path><rect x="191.74" y="275.99" width="7.96" height="16.77" style="fill:#fff"></rect><path d="M220.18,299.34c0,.18-10.52.32-23.49.32s-23.5-.14-23.5-.32,10.52-.32,23.5-.32S220.18,299.17,220.18,299.34Z" style="fill:#e0e0e0"></path><rect x="191.74" y="309.8" width="7.96" height="16.77" style="fill:#fff"></rect><path d="M220.18,333.16c0,.17-10.52.32-23.49.32s-23.5-.15-23.5-.32,10.52-.32,23.5-.32S220.18,333,220.18,333.16Z" style="fill:#e0e0e0"></path><rect x="191.74" y="343.61" width="7.96" height="16.77" style="fill:#fff"></rect><path d="M220.18,367c0,.17-10.52.32-23.49.32s-23.5-.15-23.5-.32,10.52-.32,23.5-.32S220.18,366.79,220.18,367Z" style="fill:#e0e0e0"></path><polygon points="530.78 377.95 436.8 377.95 436.39 229.42 530.37 229.42 530.78 377.95" style="fill:#ebebeb"></polygon><rect x="483.38" y="229.42" width="46.99" height="148.53" style="fill:#e0e0e0"></rect><rect x="447.12" y="200.18" width="33.19" height="29.24" style="fill:#ebebeb"></rect><rect x="472.4" y="200.18" width="7.91" height="29.24" style="fill:#e0e0e0"></rect><rect x="428.56" y="227.72" width="104.56" height="1.71" style="fill:#e0e0e0"></rect><rect x="454.94" y="242.17" width="7.96" height="16.77" style="fill:#fff"></rect><path d="M483.38,265.53c0,.18-10.52.32-23.5.32s-23.49-.14-23.49-.32,10.52-.32,23.49-.32S483.38,265.36,483.38,265.53Z" style="fill:#e0e0e0"></path><rect x="502.34" y="242.17" width="7.95" height="16.77" style="fill:#f5f5f5"></rect><path d="M530.78,265.53c0,.18-10.52.32-23.5.32s-23.49-.14-23.49-.32,10.52-.32,23.49-.32S530.78,265.36,530.78,265.53Z" style="fill:#ebebeb"></path><rect x="502.34" y="275.48" width="7.95" height="16.77" style="fill:#f5f5f5"></rect><path d="M530.78,298.84c0,.17-10.52.32-23.5.32s-23.49-.15-23.49-.32,10.52-.32,23.49-.32S530.78,298.66,530.78,298.84Z" style="fill:#ebebeb"></path><rect x="502.34" y="309.79" width="7.95" height="16.77" style="fill:#f5f5f5"></rect><path d="M530.78,333.14c0,.18-10.52.32-23.5.32s-23.49-.14-23.49-.32,10.52-.32,23.49-.32S530.78,333,530.78,333.14Z" style="fill:#ebebeb"></path><rect x="502.34" y="344.09" width="7.95" height="16.77" style="fill:#f5f5f5"></rect><path d="M530.78,367.45c0,.18-10.52.32-23.5.32s-23.49-.14-23.49-.32,10.52-.32,23.49-.32S530.78,367.27,530.78,367.45Z" style="fill:#ebebeb"></path><rect x="454.94" y="275.99" width="7.96" height="16.77" style="fill:#fff"></rect><path d="M483.38,299.34c0,.18-10.52.32-23.5.32s-23.49-.14-23.49-.32,10.52-.32,23.49-.32S483.38,299.17,483.38,299.34Z" style="fill:#e0e0e0"></path><rect x="454.94" y="309.8" width="7.96" height="16.77" style="fill:#fff"></rect><path d="M483.38,333.16c0,.17-10.52.32-23.5.32s-23.49-.15-23.49-.32,10.52-.32,23.49-.32S483.38,333,483.38,333.16Z" style="fill:#e0e0e0"></path><rect x="454.94" y="343.61" width="7.96" height="16.77" style="fill:#fff"></rect><path d="M483.38,367c0,.17-10.52.32-23.5.32s-23.49-.15-23.49-.32,10.52-.32,23.49-.32S483.38,366.79,483.38,367Z" style="fill:#e0e0e0"></path><rect x="367.85" y="45.52" width="5.92" height="335.45" style="fill:#fafafa"></rect><rect x="132.14" y="210.77" width="483.71" height="4.97" style="fill:#fafafa"></rect><path d="M666.86,406.44c-3.15-14.39-15.48-30.74-34.37-37.45s-52.76.14-54.13,20.14c-17.58-13.11-44.44-11.69-60.54,3.19A45,45,0,0,0,441.48,371c-12.34-24.84-49.53-32.63-70.8-14.84-14.43-24.32-48.83-34.26-74-21.36a48.1,48.1,0,0,0-86-9.46c-22.46-7.21-49.23,11.28-50.44,34.84a28.9,28.9,0,0,0-43.56,32.34c-14.21-5.28-56.44,21.47-31.81,64l641.43-1.84C736.88,426.09,697.66,392.05,666.86,406.44Z" style="fill:#f5f5f5"></path><path d="M542.73,342.84a8.89,8.89,0,0,0-14.83-6.53c-3.11-3.14-8.13-4.71-12.12-2.78s-5.71,7.89-2.64,11.07A9,9,0,1,0,517,362.05a11,11,0,0,0,10.15,7A12.85,12.85,0,0,0,538,362.75a15.43,15.43,0,0,0,1.17-12.69,6.62,6.62,0,0,0,3.52-8" style="fill:#f5f5f5"></path><rect x="10.82" y="202.54" width="33.08" height="33.08" style="fill:#f5f5f5"></rect><rect x="50.57" y="202.54" width="33.08" height="33.08" style="fill:#f5f5f5"></rect><rect x="90.33" y="202.54" width="33.08" height="33.08" style="fill:#f5f5f5"></rect><rect x="10.82" y="242.29" width="33.08" height="33.08" style="fill:#f5f5f5"></rect><rect x="50.57" y="242.29" width="33.08" height="33.08" style="fill:#f5f5f5"></rect><rect x="90.33" y="242.29" width="33.08" height="33.08" style="fill:#f5f5f5"></rect><rect x="10.82" y="280.78" width="33.08" height="33.08" style="fill:#f5f5f5"></rect><rect x="50.57" y="280.78" width="33.08" height="33.08" style="fill:#f5f5f5"></rect><rect x="90.33" y="280.78" width="33.08" height="33.08" style="fill:#f5f5f5"></rect><rect x="10.82" y="320.54" width="33.08" height="33.08" style="fill:#f5f5f5"></rect><rect x="50.57" y="320.54" width="33.08" height="33.08" style="fill:#f5f5f5"></rect><rect x="90.33" y="320.54" width="33.08" height="33.08" style="fill:#f5f5f5"></rect><rect x="625.82" y="202.54" width="33.08" height="33.08" style="fill:#f5f5f5"></rect><rect x="665.58" y="202.54" width="33.08" height="33.08" style="fill:#f5f5f5"></rect><rect x="705.33" y="202.54" width="33.08" height="33.08" style="fill:#f5f5f5"></rect><rect x="625.82" y="242.29" width="33.08" height="33.08" style="fill:#f5f5f5"></rect><rect x="665.58" y="242.29" width="33.08" height="33.08" style="fill:#f5f5f5"></rect><rect x="705.33" y="242.29" width="33.08" height="33.08" style="fill:#f5f5f5"></rect><rect x="625.82" y="280.78" width="33.08" height="33.08" style="fill:#f5f5f5"></rect><rect x="665.58" y="280.78" width="33.08" height="33.08" style="fill:#f5f5f5"></rect><rect x="705.33" y="280.78" width="33.08" height="33.08" style="fill:#f5f5f5"></rect><rect x="625.82" y="320.54" width="33.08" height="33.08" style="fill:#f5f5f5"></rect><rect x="665.58" y="320.54" width="33.08" height="33.08" style="fill:#f5f5f5"></rect><rect x="705.33" y="320.54" width="33.08" height="33.08" style="fill:#f5f5f5"></rect></g><g id="freepik--character-2--inject-45"><path d="M365.14,372.07c0-7.2,7.49-34.43,49.13-41.77,23.31-4.11,69.79-12.74,69.79-12.74s30.51,9.79,43.72,11.83c15.32,2.36,39.56,12.07,49.5,25s29.47,62.13,29.47,62.13,15.56,21,18.28,45.57H557.75L365.3,458.73C365.76,458,365.14,372.07,365.14,372.07Z" style="fill:#ffbe9d"></path><path d="M560.4,462.43a6.58,6.58,0,0,1-.62-.52c-.38-.36-1-.87-1.68-1.59a58.79,58.79,0,0,1-5.6-6.41A64,64,0,0,1,541,400.61a60.91,60.91,0,0,1,2.47-8.15c.34-.95.68-1.65.88-2.14a3.7,3.7,0,0,1,.35-.73,5.68,5.68,0,0,1-.25.77c-.17.5-.48,1.22-.79,2.17a67.16,67.16,0,0,0-2.3,8.16,65.2,65.2,0,0,0,11.4,53,71,71,0,0,0,5.45,6.49c.68.74,1.26,1.27,1.62,1.65A6,6,0,0,1,560.4,462.43Z" style="fill:#eb996e"></path><path d="M539.63,413.83a88.62,88.62,0,0,1-3.5-8.82,84.38,84.38,0,0,1-3-9,88.62,88.62,0,0,1,3.5,8.82A84.38,84.38,0,0,1,539.63,413.83Z" style="fill:#eb996e"></path><path d="M390.17,357.86c6.8,38.15,17.76,57,26.46,56l7.93,39.95L410.78,464.9c19.05-1.15,31.8-8.17,31.8-8.17l-14-3.83-7.13-40c14.39-7-6.35-62.08-6.35-62.08Z" style="fill:#fafafa"></path><path d="M390.17,357.86l.41-.13,1.24-.37,4.85-1.42,18.43-5.31.13,0,0,.13a250.67,250.67,0,0,1,8.39,27.38,118.32,118.32,0,0,1,2.95,17.21,41.38,41.38,0,0,1-.17,9.42,16.16,16.16,0,0,1-1.39,4.7,7.66,7.66,0,0,1-3.46,3.63l.13-.25c2.21,12.34,4.62,25.87,7.16,40l-.19-.2,14,3.82.64.18-.58.3c-1.42.75-3,1.45-4.58,2.1a87.62,87.62,0,0,1-27.34,6.1l-.8.05.63-.5,13.79-11.05-.09.24-7.9-40,.23.17a6.9,6.9,0,0,1-3.65-.67,11.69,11.69,0,0,1-3-2,26.83,26.83,0,0,1-4.4-5.32,67.09,67.09,0,0,1-5.71-11.31,151.28,151.28,0,0,1-6.16-19.54c-1.37-5.5-2.23-9.85-2.78-12.82-.29-1.47-.47-2.64-.61-3.4s-.18-1.15-.18-1.15.09.4.25,1.17l.66,3.36c.6,2.95,1.5,7.3,2.9,12.78a153.54,153.54,0,0,0,6.24,19.47,66.53,66.53,0,0,0,5.72,11.23,25.85,25.85,0,0,0,4.35,5.22c1.68,1.54,3.91,2.83,6.31,2.59l.2,0,0,.19c2.41,12.08,5.09,25.53,8,39.95l0,.14-.11.1L410.94,465.1l-.18-.46a87.47,87.47,0,0,0,27.18-6.08c1.58-.64,3.14-1.34,4.52-2.06l.06.48-14-3.83-.15,0,0-.17c-2.52-14.17-4.93-27.71-7.12-40.05l0-.18.16-.08a7.17,7.17,0,0,0,3.25-3.41,15.48,15.48,0,0,0,1.36-4.56,41.63,41.63,0,0,0,.18-9.32,117,117,0,0,0-2.9-17.15A256.29,256.29,0,0,0,415,350.82l.18.09-18.39,5.14-4.91,1.35-1.27.35Z" style="fill:#263238"></path><path d="M396.88,373l20.29-6s14,40,3.86,44.35S403.61,400.8,396.88,373Z" style="fill:#FF725E"></path><g style="opacity:0.30000000000000004"><path d="M404.35,401.09c6.07-7.5,11.73-15.23,16.13-23.81l1.14,4.74L406.7,404.59Z" style="fill:#fff"></path></g><path d="M415.14,350.77a4.24,4.24,0,0,1-.76.74,12.14,12.14,0,0,1-1,.78c-.39.3-.82.63-1.34,1a31.43,31.43,0,0,1-3.71,2.14,34.89,34.89,0,0,1-4.89,1.9,30.9,30.9,0,0,1-5.14,1,25.7,25.7,0,0,1-4.28.14c-.61,0-1.16-.1-1.64-.15a9.89,9.89,0,0,1-1.23-.2,4.4,4.4,0,0,1-1-.27c0-.1,1.49.21,3.9.25a29.75,29.75,0,0,0,4.21-.24,34.77,34.77,0,0,0,5.05-1.08,40.21,40.21,0,0,0,4.84-1.83,35.76,35.76,0,0,0,3.71-2C413.93,351.67,415.08,350.7,415.14,350.77Z" style="fill:#263238"></path><path d="M404.23,440s-2.31-9.84-1-12.54,7.76-9,7.76-9l27.32-4.7,37.39,16.35,1,31.65s-39.91,1.16-43.72.08-11.05,1.69-13.32-1.27l-2.28-3s-5.61-.2-6.66-3.18c0,0-8.92-6-8.52-9.36A10.06,10.06,0,0,1,404.23,440Z" style="fill:#ffbe9d"></path><path d="M426.6,426.55a4.87,4.87,0,0,1-1,.42c-.67.25-1.63.58-2.82,1-2.39.8-5.7,1.88-9.35,3a12,12,0,0,0-4.67,2.42,14.57,14.57,0,0,0-2.71,3.4c-1.26,2.15-1.9,3.58-2,3.54a4.08,4.08,0,0,1,.37-1,25.35,25.35,0,0,1,1.3-2.7,13.83,13.83,0,0,1,2.7-3.56,12.11,12.11,0,0,1,4.83-2.57c3.66-1.16,7-2.18,9.4-2.89,1.2-.36,2.18-.64,2.86-.82A4.26,4.26,0,0,1,426.6,426.55Z" style="fill:#eb996e"></path><path d="M430.11,437.75a4.1,4.1,0,0,1-.73.8,15,15,0,0,1-2.39,1.7,31.1,31.1,0,0,1-3.93,1.86c-1.51.62-3.19,1.24-4.87,2a17.09,17.09,0,0,0-4.36,2.83,24.12,24.12,0,0,0-2.87,3.18c-1.48,1.95-2.32,3.23-2.4,3.18a4.06,4.06,0,0,1,.51-.95c.36-.59.88-1.44,1.6-2.45a21.42,21.42,0,0,1,2.83-3.31,17,17,0,0,1,4.46-2.95c1.72-.82,3.41-1.42,4.92-2a37.3,37.3,0,0,0,3.93-1.73A27.88,27.88,0,0,0,430.11,437.75Z" style="fill:#eb996e"></path><path d="M431.71,450.51c0,.09-1,0-2.47.09a18,18,0,0,0-5.73,1.39,18.18,18.18,0,0,0-4.94,3.22c-1.11,1-1.69,1.8-1.76,1.74a7,7,0,0,1,1.5-2,15.72,15.72,0,0,1,10.91-4.72A7,7,0,0,1,431.71,450.51Z" style="fill:#eb996e"></path><path d="M475.73,430.18s-.24-.08-.7-.27l-2-.84-7.59-3.25L438.25,414l.13,0-27.31,4.73.13-.07c-1.22,1.21-2.45,2.46-3.65,3.76a42.53,42.53,0,0,0-3.44,4.11c-1.19,1.4-1,3.29-.95,5.12a53,53,0,0,0,.76,5.54c.17.91.36,1.82.56,2.72l0,.12-.08.11a9.91,9.91,0,0,0-1.78,4.22c-.5,1.52.5,2.85,1.44,4a37.91,37.91,0,0,0,6.84,5.87l.07,0,0,.08a4.31,4.31,0,0,0,2.76,2.29,13.34,13.34,0,0,0,3.67.72h.12l.07.09,2,2.63a3.84,3.84,0,0,0,.52.59,2.37,2.37,0,0,0,.59.45,4.87,4.87,0,0,0,1.45.49,28.92,28.92,0,0,0,6.24-.17,26.23,26.23,0,0,1,3.07-.08l.77.08.76.16c.48.07.93.18,1.42.21,1.94.16,3.85.19,5.7.23,7.4.11,13.94,0,19.37-.05l12.67-.21,3.39,0h.87a.94.94,0,0,1,.29,0l-.29,0-.87,0-3.38.13c-3,.1-7.26.23-12.68.34s-12,.25-19.38.17c-1.85,0-3.76-.06-5.73-.22a12.88,12.88,0,0,1-1.5-.21l-.71-.14-.72-.08a23.6,23.6,0,0,0-3,.09,28.44,28.44,0,0,1-6.35.18,5.31,5.31,0,0,1-1.6-.54,3.83,3.83,0,0,1-1.26-1.17l-2-2.62.18.09a13.68,13.68,0,0,1-3.82-.74,4.83,4.83,0,0,1-3.07-2.59l.1.12a37.8,37.8,0,0,1-6.95-6,9.44,9.44,0,0,1-1.34-2,3.53,3.53,0,0,1-.35-1.21,6,6,0,0,1,.13-1.24,10.39,10.39,0,0,1,1.89-4.47l0,.23c-.21-.91-.4-1.82-.57-2.74a51.23,51.23,0,0,1-.77-5.6,16.6,16.6,0,0,1,0-2.82,5.13,5.13,0,0,1,.32-1.41,7,7,0,0,1,.72-1.22,43.17,43.17,0,0,1,3.48-4.17q1.81-2,3.68-3.77l0-.05.08,0,27.32-4.66.07,0,.06,0,27.11,12,7.54,3.36,2,.9Z" style="fill:#eb996e"></path><polygon points="475.73 430.18 576.48 434.1 634 461.83 476.77 461.83 475.73 430.18" style="fill:#ffbe9d"></polygon><path d="M383.74,235.57c3.74-4.71,8.36-9.25,9.31-15.19.88-5.46-1.51-11.44.94-16.4,3-6.1,11.67-7.29,15.43-13,1.82-2.75,2.25-6.23,4-9,3.06-4.71,9.34-6.22,14.94-5.9s11.08,2.07,16.69,2.18c7.7.17,15.5-2.72,23-.88,8.25,2,13.57,9,19.2,15.7l7.29,7.74a30.68,30.68,0,0,0,4.78,3.5c3,1.74,6.38,2.87,9,5.14,5.58,4.86,5.61,14.73.06,19.62a14.54,14.54,0,0,1,10.48,13.77c0,3.42-1.29,6.68-2.15,10s-1.3,7,.21,10,5.62,5,8.51,3.19a15.28,15.28,0,0,1-7.84,10.59,9.13,9.13,0,0,0,6.28,2.43c-5.52,14.92-22.09,23.42-38,24.26s-31.39-4.45-46.41-9.68l-43.32-9.09c-3.8-.68-5.58-5.17-5.71-9s.66-7.91-.89-11.45c-2.12-4.84-8-7.19-10.19-12C376.88,246.66,380,240.29,383.74,235.57Z" style="fill:#263238"></path><path d="M486.83,269.8c2.64-9.82,5.24-19.7,6.15-29.83s.07-20.58-4-29.91c-.61-1.42-5.68-10.86-7.2-10.63-1.09.17,2.19,9,1.68,10-4.81,9.34-5.69,20.32-4.3,30.74a137.34,137.34,0,0,0,7.63,29.6" style="fill:#263238"></path><path d="M445.83,355.37c15.72-1.14,46.1-23.68,46.1-23.68L485.83,231c-.48-25.49-15.72-46.45-41.18-45.26l-2.35.25a45.57,45.57,0,0,0-40.79,46.43c.54,22.09,1.43,46.49,2.81,58.22,2.86,24.3,27.59,25.51,27.59,25.51s.19,2.16.64,9.32c0,0-24.55,5.68-18.28,4.81Z" style="fill:#ffbe9d"></path><path d="M431.91,316.17s15.43-.71,30.69-12.7c0,0-5.86,18.51-30.36,18.88Z" style="fill:#eb996e"></path><path d="M409.94,249.93a3.49,3.49,0,0,0,3.72,3.15,3.34,3.34,0,0,0,3.25-3.51,3.49,3.49,0,0,0-3.71-3.15A3.34,3.34,0,0,0,409.94,249.93Z" style="fill:#263238"></path><path d="M407.77,242c.48.4,2.91-1.82,6.65-2.2s6.67,1.19,7,.69c.18-.22-.35-1-1.63-1.74a9.64,9.64,0,0,0-5.69-1.12,9.24,9.24,0,0,0-5.23,2.32C407.84,241,407.54,241.81,407.77,242Z" style="fill:#263238"></path><path d="M444.4,248a3.5,3.5,0,0,0,3.72,3.15,3.34,3.34,0,0,0,3.25-3.51,3.49,3.49,0,0,0-3.71-3.15A3.34,3.34,0,0,0,444.4,248Z" style="fill:#263238"></path><path d="M444.55,239.64c.48.41,2.91-1.82,6.65-2.2s6.67,1.2,7,.69c.18-.22-.34-1-1.63-1.73a9.51,9.51,0,0,0-5.69-1.12,9.17,9.17,0,0,0-5.23,2.32C444.62,238.6,444.32,239.46,444.55,239.64Z" style="fill:#263238"></path><path d="M434.17,269.78c0-.22-2.37-.37-6.19-.46-1,0-1.89-.09-2.12-.72a5,5,0,0,1,.34-2.9c.66-2.41,1.34-4.93,2.06-7.57,2.83-10.76,4.77-19.57,4.34-19.68s-3.08,8.53-5.91,19.29c-.68,2.65-1.32,5.18-1.94,7.6-.24,1.12-.74,2.41-.1,3.79a2.4,2.4,0,0,0,1.72,1.23,6.22,6.22,0,0,0,1.64.06C431.82,270.22,434.18,270,434.17,269.78Z" style="fill:#263238"></path><path d="M445.44,271.2c-.61,0-.19,4.09-3.36,7.34s-7.53,3.25-7.51,3.82c0,.26,1.05.69,2.88.55a10.15,10.15,0,0,0,6.29-3,8.8,8.8,0,0,0,2.56-6.12C446.28,272.11,445.72,271.15,445.44,271.2Z" style="fill:#263238"></path><path d="M443.16,224.45c.47,1,4.16.1,8.6.17s8.11.89,8.6-.09c.21-.46-.51-1.35-2-2.19a15,15,0,0,0-13.1-.06C443.67,223.1,443,224,443.16,224.45Z" style="fill:#263238"></path><path d="M408,229.4c.75.78,3.23-.38,6.32-.74s5.78,0,6.29-1c.22-.46-.28-1.26-1.51-1.95a9.27,9.27,0,0,0-10.17,1.39C407.94,228.1,407.68,229,408,229.4Z" style="fill:#263238"></path><path d="M485.74,249.24c.4-.22,16.2-6.7,17.42,10s-15.78,14.47-15.85,14S485.74,249.24,485.74,249.24Z" style="fill:#ffbe9d"></path><path d="M492,266.52c.07-.06.3.18.81.37a2.89,2.89,0,0,0,2.18-.11c1.71-.78,3-3.68,2.85-6.7a9.59,9.59,0,0,0-1.12-4.1,3.35,3.35,0,0,0-2.35-2.07,1.48,1.48,0,0,0-1.65.92c-.19.48-.06.81-.15.84s-.38-.25-.29-.95a1.84,1.84,0,0,1,.58-1.09,2.12,2.12,0,0,1,1.57-.54,4.08,4.08,0,0,1,3.23,2.36A9.92,9.92,0,0,1,499,260c.14,3.37-1.35,6.64-3.72,7.51a3.12,3.12,0,0,1-2.69-.24C492,266.92,491.89,266.56,492,266.52Z" style="fill:#eb996e"></path><path d="M410.53,204.08c-2.79-1.31,4.75-10.59,11.2-14,9.74-5.2,24.89-9,34.31-7,11.34,2.44,21,7.39,27.2,17.17s9.11,21.46,9.53,33.06c.13,3.54,0,7.24-1.69,10.35-2.1,3.84-6.42,6.46-5.9,11.54a7,7,0,0,1-1.41,5.2c-2.84,3.45-6.77.64-8.69-2.31-4.09-6.31-5-14.09-5.81-21.56-.57-5.31-1.14-10.74,0-15.95.63-2.83,1.78-5.55,2.26-8.41s.18-6.07-1.72-8.26a10.71,10.71,0,0,0-1.45-1.29,17.43,17.43,0,0,0-17.48-2.17c-9.19,3.93-24.93,9.93-29.33,7-6.33-4.2-8-7.1-8-7.1Z" style="fill:#263238"></path><path d="M455,180.88c-9.37-2.48-19.81-1.64-28.11,3.36-4.4,2.66-8.28,6.71-9.35,11.74s1.43,11,6.31,12.61l.34.19c7.28,1.94,11.85.68,18.79-2.23,5.85-2.46,10.92-6.49,16.78-8.91a34,34,0,0,1,19.82-1.86C472.75,188.93,464.39,183.36,455,180.88Z" style="fill:#263238"></path><path d="M517.54,287.65c0-.06-.59.1-1.69.06a8.54,8.54,0,0,1-4.47-1.59,10.74,10.74,0,0,1-4.25-6.07,20.24,20.24,0,0,1,.2-10c.83-3.68,2.43-7.56,3.36-12a21.83,21.83,0,0,0,.36-7.07,13.48,13.48,0,0,0-2.88-7,16,16,0,0,0-6.7-4.24,42.37,42.37,0,0,1-7.31-3.14c-4.6-2.75-7.45-7.92-9.23-13.32s-2.54-11.12-4-16.46-3.66-10.45-7.45-14.08a20,20,0,0,0-13.35-5.3,26.21,26.21,0,0,0-12.28,2.72,38.8,38.8,0,0,0-13.54,11.94c-1.26,1.72-2.14,3.13-2.72,4.1a8.41,8.41,0,0,0-.81,1.51,9.45,9.45,0,0,0,1-1.38c.65-.92,1.59-2.28,2.9-3.95a39.59,39.59,0,0,1,13.54-11.45,25.41,25.41,0,0,1,11.86-2.48,19,19,0,0,1,12.62,5.1c3.55,3.43,5.67,8.36,7.07,13.59s2.17,10.92,4,16.52,4.79,11,9.76,14a43.52,43.52,0,0,0,7.51,3.2,14.85,14.85,0,0,1,6.27,3.89,12.42,12.42,0,0,1,2.68,6.42,21.06,21.06,0,0,1-.3,6.74c-.85,4.33-2.41,8.25-3.21,12a20.87,20.87,0,0,0,0,10.37,11.11,11.11,0,0,0,4.64,6.27,8.46,8.46,0,0,0,4.72,1.45A4.83,4.83,0,0,0,517.54,287.65Z" style="fill:#455a64"></path><path d="M437.46,180.7c0-.12-2-.25-5.07.76A19.41,19.41,0,0,0,419.2,200.8c.17,3.21,1,5,1.14,5s-.34-1.94-.28-5a20.1,20.1,0,0,1,12.63-18.53C435.53,181.09,437.48,180.91,437.46,180.7Z" style="fill:#455a64"></path><path d="M403.82,197.45c-.29-.13-1.49,2.56-1.27,6.09s1.73,6.06,2,5.9-.61-2.7-.79-6S404.16,197.55,403.82,197.45Z" style="fill:#455a64"></path><path d="M576.48,434.1c0,.15-22.67-.7-50.61-1.89s-50.6-2.27-50.6-2.41,22.67.7,50.62,1.89S576.49,434,576.48,434.1Z" style="fill:#eb996e"></path><path d="M437.9,335.32a86.19,86.19,0,0,1-9.58,1.32,92.34,92.34,0,0,1-9.63.8,91.77,91.77,0,0,1,9.57-1.32A92.42,92.42,0,0,1,437.9,335.32Z" style="fill:#eb996e"></path><path d="M494.3,335.29c0,.15-6.48-.2-14.43-.78s-14.41-1.15-14.4-1.3,6.47.21,14.43.78S494.31,335.15,494.3,335.29Z" style="fill:#eb996e"></path><path d="M407,421.8a4.48,4.48,0,0,1-.68-.87c-.41-.57-1-1.42-1.68-2.48-1.39-2.11-3.23-5.07-5.15-8.42s-3.52-6.45-4.63-8.72c-.55-1.14-1-2.07-1.27-2.71a4.5,4.5,0,0,1-.4-1,4.35,4.35,0,0,1,.58.94l1.42,2.63c1.19,2.22,2.85,5.28,4.76,8.63s3.69,6.33,5,8.49c.61,1,1.12,1.86,1.54,2.56A4.29,4.29,0,0,1,407,421.8Z" style="fill:#eb996e"></path></g><g id="freepik--character-1--inject-45"><path d="M326.14,224.44a35.89,35.89,0,0,1,15.7,29.29c0,5.61-1,12.09,2.94,16s11,3.25,14.74,7.31c4.45,4.78,1.66,12.63,3.61,18.87a12.94,12.94,0,0,0,14.47,8.49,50.44,50.44,0,0,1-24.08,12.79l-7.69-8.4c2.89,2.92,2.59,8,.28,11.39s-6.12,5.46-9.94,7a64,64,0,0,1-56.65-4.66" style="fill:#263238"></path><path d="M225.31,282c1.06-4.38,3.09-8.52,3.68-13,1.27-9.6-4.17-19.87-.26-28.73,2.78-6.31,9.49-9.82,15.9-12.37s13.32-4.81,17.83-10c3.32-3.82,5-8.85,8.27-12.68,4.71-5.46,12.1-7.77,19.24-8.78,7.32-1,15-.93,21.87,1.79s12.86,8.39,14.62,15.58c.86,3.51.72,7.26,2.1,10.59,1.53,3.66,4.72,6.35,6.81,9.72a19,19,0,0,1-2.93,23.05L287.07,326.4c-10.3,4.85-36.42,2-45.24-5.15S222.65,293,225.31,282Z" style="fill:#263238"></path><path d="M330.45,248.92c-3.26-14.66-15.92-31.28-30.43-27.41l-44.23,18.88a8.78,8.78,0,0,0-6.38,10l22.37,110.3-.31.12s15.34,29.71,44.32,15.43c5.74-2.83,7.47-9.87,7.62-16.84h.32c-.12-.81-.22-1.56-.33-2.34a73.65,73.65,0,0,0-2.18-15.28h0c-1.3-9-1.88-12.66-1.86-12.58s18.42-6.11,18.46-31.4C337.84,285.23,334.07,265.2,330.45,248.92Z" style="fill:#ffd6be"></path><path d="M296.68,274.57a3.21,3.21,0,0,1-2.55,3.68,3.07,3.07,0,0,1-3.71-2.35,3.2,3.2,0,0,1,2.54-3.67A3.07,3.07,0,0,1,296.68,274.57Z" style="fill:#263238"></path><path d="M329.17,268.05a3.2,3.2,0,0,1-2.55,3.67,3.06,3.06,0,0,1-3.71-2.34,3.2,3.2,0,0,1,2.54-3.67A3.07,3.07,0,0,1,329.17,268.05Z" style="fill:#263238"></path><path d="M329.08,260.29c-.3.61-3.41-1-7.07-.19s-5.85,3.56-6.37,3.13c-.25-.19,0-1.21.89-2.47a8.61,8.61,0,0,1,5-3.14,8.48,8.48,0,0,1,5.78.79C328.63,259.17,329.24,260,329.08,260.29Z" style="fill:#263238"></path><path d="M295,267c-.4.57-3.48-1.31-7.45-.83s-6.63,3-7.13,2.5c-.24-.21.11-1.2,1.26-2.34a9.72,9.72,0,0,1,5.62-2.64,9.42,9.42,0,0,1,6,1.31C294.64,265.85,295.17,266.73,295,267Z" style="fill:#263238"></path><path d="M310.68,289.28c-.05-.19,2-.89,5.37-1.87.86-.22,1.65-.53,1.71-1.14a4.57,4.57,0,0,0-1-2.49c-1.15-2-2.35-4-3.61-6.22-5.05-8.86-8.86-16.21-8.5-16.41s4.75,6.82,9.8,15.69c1.22,2.19,2.4,4.28,3.51,6.28a5.1,5.1,0,0,1,1,3.34,2.2,2.2,0,0,1-1.23,1.49,5.72,5.72,0,0,1-1.45.44C312.86,289.12,310.72,289.47,310.68,289.28Z" style="fill:#263238"></path><path d="M319.36,329.21a63.52,63.52,0,0,1-34.44-3.63s10.68,15.7,35,9.51Z" style="fill:#eb996e"></path><path d="M310.52,297.71a6.19,6.19,0,0,0-5.85-1.41,5.68,5.68,0,0,0-3.55,2.68,3.58,3.58,0,0,0,.37,4.1c1.12,1.15,3.09,1.15,4.64.43a13.07,13.07,0,0,0,3.95-3.28,3.69,3.69,0,0,0,.81-1.16,1.16,1.16,0,0,0-.2-1.27" style="fill:#FF725E"></path><path d="M301,293.21c.55-.12,1.14,3.58,4.72,5.7s7.44,1.1,7.55,1.62c.09.22-.76.85-2.42,1.16a9.33,9.33,0,0,1-6.27-1.14,8.1,8.1,0,0,1-3.72-4.82C300.5,294.21,300.77,293.23,301,293.21Z" style="fill:#263238"></path><path d="M293.73,255.34c-.19,1-3.66,1.07-7.58,2.18s-7,2.71-7.64,2c-.3-.36.12-1.32,1.28-2.42a13.72,13.72,0,0,1,11.6-3.16C293,254.26,293.8,254.88,293.73,255.34Z" style="fill:#263238"></path><path d="M324.91,250.41c-.56.89-3.37.5-6.6,1s-5.87,1.46-6.62.75c-.34-.35,0-1.2,1-2.12a10.33,10.33,0,0,1,5.16-2.1,10,10,0,0,1,5.5.73C324.66,249.25,325.16,250,324.91,250.41Z" style="fill:#263238"></path><path d="M246,244.76c2-3.72,6-5.86,9.8-7.68a229.71,229.71,0,0,1,51.57-17.58c2.53,3.52.86,8.71-2.31,11.67s-7.43,4.36-11.36,6.19-7.89,4.5-9.24,8.62c-1.43,4.38.46,9.28-.76,13.72-2.09,7.65-12.28,10.87-14.32,18.54-1.55,5.79,2.19,11.53,3.48,17.39a21.44,21.44,0,0,1-19.06,26q-4.38-31.87-8.77-63.74C244.44,253.46,243.89,248.68,246,244.76Z" style="fill:#263238"></path><path d="M207.3,302.08c3.13-3.29,7.15-6.24,8.15-10.67,1.46-6.45-4.19-13.44-1.38-19.44,2.55-5.46,11.32-5.89,13.66-11.45,1.82-4.34-.94-7.84-.42-11.57s5.48-7.35,9.24-7.21l32.5,39.94c3.83,13.95,7.15,21.28,4.76,29.81-1.31,4.68-3.13,9.28-3.41,14.13s1.39,10.2,5.53,12.72c-17.31,2.75-34.37-5.08-50.16-12.7l-16.71-8.07a11.73,11.73,0,0,1-4.68-3.31C201.73,310.57,204.17,305.37,207.3,302.08Z" style="fill:#263238"></path><path d="M225,321.4a7.78,7.78,0,0,0,1.89.21,15.75,15.75,0,0,0,5.39-.81,16.81,16.81,0,0,0,7.25-4.68,16.56,16.56,0,0,0,4.18-10.58,17.16,17.16,0,0,0-1.1-6.64,27.4,27.4,0,0,0-3.75-6.22,25.65,25.65,0,0,1-3.87-6.45c-.83-2.37-1.06-5.25.35-7.47s4.32-3,7-4.32a7.06,7.06,0,0,0,4.34-7.71c-.29-3.18-1.88-6-2.7-8.92a9.8,9.8,0,0,1-.38-4.45,6.19,6.19,0,0,1,2.23-3.73c2.38-2,5.56-2.54,8.63-3a18.89,18.89,0,0,0,8.77-3.36,16.92,16.92,0,0,0,5.62-7.15,27.82,27.82,0,0,0,1.61-8.53,38.89,38.89,0,0,1,1.09-8,17.4,17.4,0,0,1,3.61-6.5,19.59,19.59,0,0,1,22.59-5,23.92,23.92,0,0,1,7.12,4.58,30.91,30.91,0,0,1,4.62,5.62s-.05-.16-.2-.44a13.25,13.25,0,0,0-.71-1.23,22.26,22.26,0,0,0-3.44-4.24,23.78,23.78,0,0,0-7.17-4.82,20.55,20.55,0,0,0-11.3-1.58,20.82,20.82,0,0,0-12.14,6.57,18.06,18.06,0,0,0-3.84,6.81,40,40,0,0,0-1.17,8.15,27,27,0,0,1-1.57,8.23,16,16,0,0,1-5.31,6.72,18,18,0,0,1-8.35,3.16c-3,.52-6.45,1-9.11,3.27a7.2,7.2,0,0,0-2.58,4.33,10.93,10.93,0,0,0,.4,4.91c.89,3.09,2.43,5.81,2.69,8.74a6.09,6.09,0,0,1-3.79,6.75c-1.26.65-2.63,1.14-3.93,1.82a8.28,8.28,0,0,0-3.38,2.86c-1.63,2.61-1.29,5.75-.4,8.27a26.57,26.57,0,0,0,4,6.66,26.26,26.26,0,0,1,3.7,6,16.5,16.5,0,0,1,1.11,6.33,16.09,16.09,0,0,1-3.88,10.23,16.71,16.71,0,0,1-7,4.67A18.85,18.85,0,0,1,225,321.4Z" style="fill:#455a64"></path><path d="M199.37,293.21a3.83,3.83,0,0,0-.46,1.47A6.32,6.32,0,0,0,200,299a6.67,6.67,0,0,0,2.42,2.16,7,7,0,0,0,3.8.7,8.74,8.74,0,0,0,7.25-5.45,11.73,11.73,0,0,0,.82-5.41,16.45,16.45,0,0,0-1.68-5.66c-1.69-3.67-4.49-7.14-4.89-11.54a8.07,8.07,0,0,1,1.55-6.16c1.43-1.69,3.79-2.27,6.18-2.48s5-.17,7.48-1.38a6.53,6.53,0,0,0,2.89-2.85,9.28,9.28,0,0,0,1-3.95c.11-2.74-.73-5.26-1.24-7.7a17.06,17.06,0,0,1-.17-7.21,18.22,18.22,0,0,1,7.27-11.29c3.6-2.57,7.95-3.17,11.87-3.71s7.76-1.08,10.89-2.62A23.46,23.46,0,0,0,266.67,213a16.64,16.64,0,0,0,1.64-5.69,32.83,32.83,0,0,1-2,5.52,23.68,23.68,0,0,1-3.91,5.62,22.77,22.77,0,0,1-7.3,5.26c-3,1.44-6.74,1.94-10.7,2.43S236,227.25,232.12,230a19,19,0,0,0-7.71,11.87,17.94,17.94,0,0,0,.15,7.61c.53,2.5,1.32,5,1.22,7.45s-1.14,4.92-3.31,5.94-4.68,1-7.13,1.29-5.13.83-6.81,2.84a9,9,0,0,0-1.74,6.88,17.12,17.12,0,0,0,2.11,6.37c1,1.91,2.08,3.67,2.94,5.44a15.75,15.75,0,0,1,1.67,5.37,11,11,0,0,1-.71,5.06,8.12,8.12,0,0,1-6.64,5.16,6.49,6.49,0,0,1-3.53-.56,6.43,6.43,0,0,1-3.52-6C199.19,293.72,199.43,293.23,199.37,293.21Z" style="fill:#263238"></path><path d="M383.86,289.08a6.86,6.86,0,0,1,.31,4.56,6.06,6.06,0,0,1-3.33,4,6.35,6.35,0,0,1-6.54-1.24,5.86,5.86,0,0,1-1.79-3.53,12.25,12.25,0,0,1,.32-4.47c.69-3,2.33-6.38,1.73-10.21a14.09,14.09,0,0,0-6.1-9.65,16.58,16.58,0,0,0-5.65-2.43,24.51,24.51,0,0,0-6.28-.4,32.21,32.21,0,0,1-6.08-.15,8.08,8.08,0,0,1-4.92-2.54,9.89,9.89,0,0,1-2.1-5,19.6,19.6,0,0,1,0-5.41c.44-3.54,1.22-7,.76-10.32a15.62,15.62,0,0,0-3.78-8.22,20.1,20.1,0,0,0-6.06-4.35,37,37,0,0,1-4.79-2.77,11.75,11.75,0,0,1-3.15-3.45.92.92,0,0,0,.1.3,4.93,4.93,0,0,0,.42.83,9.16,9.16,0,0,0,2.39,2.63,34.6,34.6,0,0,0,4.75,3,19.73,19.73,0,0,1,5.79,4.33,14.78,14.78,0,0,1,3.49,7.85c.4,3.12-.37,6.49-.85,10.1a20.27,20.27,0,0,0,0,5.67,10.85,10.85,0,0,0,2.31,5.53,9,9,0,0,0,5.51,2.89,33.73,33.73,0,0,0,6.27.17,23.57,23.57,0,0,1,6,.37,15.45,15.45,0,0,1,5.31,2.27,13.17,13.17,0,0,1,5.73,9c.59,3.49-.91,6.71-1.62,9.88a12.72,12.72,0,0,0-.27,4.78,6.53,6.53,0,0,0,2.08,3.94,6.89,6.89,0,0,0,7.24,1.23,6.67,6.67,0,0,0,3.38-7.94A3.39,3.39,0,0,0,383.86,289.08Z" style="fill:#263238"></path><path d="M368.7,407.73l-3.4,51H239.82s-3.66-18.37-5.86-35.83c-1.16-9.28-3.91-14-4.26-14.76-.9-1.92,5.52-51.41,5.52-51.41l62.24-7a247.15,247.15,0,0,1,39.65-2.62c21.91.49,28,13.38,28.78,29.58Z" style="fill:#ffd6be"></path><path d="M235.22,356.73s-16.63,2.78-23.38,14.19-39.34,87.81-39.34,87.81l49.62,1.75,21.54-46.79Z" style="fill:#ffd6be"></path><path d="M234,422.9s17.39-27.52,41.27-16.6,29.26,30.88,29.26,30.88,11.28-38.19,37.92-35.36,23.45,27.77,23.35,23.18l-.46,33.73H239Z" style="fill:#263238"></path><path d="M225.74,398.4a9.06,9.06,0,0,1,.76,1.27c.46.83,1.08,2.06,1.8,3.6a78.82,78.82,0,0,1,6.84,25.56c.15,1.69.23,3.07.24,4a8.78,8.78,0,0,1,0,1.47,7.25,7.25,0,0,1-.18-1.46c-.07-.94-.21-2.31-.41-4A90,90,0,0,0,228,403.42c-.67-1.55-1.24-2.8-1.64-3.66A8.54,8.54,0,0,1,225.74,398.4Z" style="fill:#ffb294"></path><path d="M292.14,353.63c-8.17,33.52-7.44,57.73.72,60.89L281.3,453.58,264,457c17.4,7.84,32,7.56,32,7.56l-10.58-9.88,12.31-38.78c16,.51,22.67-56.47,22.67-56.47Z" style="fill:#fafafa"></path><path d="M292.14,353.63l.47.08L294,354l5.5,1.08,20.83,4.17.14,0,0,.14a236.11,236.11,0,0,1-5.1,27.71,109.58,109.58,0,0,1-5.26,16.17,38.24,38.24,0,0,1-4.47,8,15.3,15.3,0,0,1-3.37,3.35,7.75,7.75,0,0,1-4.63,1.48l.24-.16c-3.79,12-7.95,25.07-12.29,38.78l-.07-.27c3.36,3.15,7,6.49,10.58,9.88l.48.45h-.65c-1.15,0-2.37-.06-3.6-.15a87.49,87.49,0,0,1-28.47-7.43l-.74-.33.79-.16,17.35-3.37-.19.18c4.2-14.14,8.1-27.29,11.59-39.05l.13.25a6.7,6.7,0,0,1-2.84-2.27,13.21,13.21,0,0,1-1.66-3.12,29.55,29.55,0,0,1-1.58-6.56,72.85,72.85,0,0,1-.44-12.38,153.18,153.18,0,0,1,2.24-19.87c.94-5.44,1.88-9.66,2.55-12.52.32-1.43.61-2.54.79-3.27s.29-1.09.29-1.09-.08.4-.24,1.14-.41,1.83-.72,3.25c-.63,2.87-1.52,7.09-2.43,12.53a156.69,156.69,0,0,0-2.14,19.84,73.26,73.26,0,0,0,.48,12.32,29,29,0,0,0,1.58,6.46,13.1,13.1,0,0,0,1.61,3,6.3,6.3,0,0,0,2.66,2.13l.18.07-.05.19c-3.47,11.76-7.35,24.92-11.53,39.07l0,.14-.15,0L264,457.2l.06-.48a87.33,87.33,0,0,0,28.3,7.38c1.21.09,2.43.15,3.54.15l-.17.45-10.58-9.88-.12-.11,0-.16c4.36-13.7,8.53-26.81,12.33-38.77l.05-.17h.19a7.27,7.27,0,0,0,4.34-1.39,14.78,14.78,0,0,0,3.27-3.24,38,38,0,0,0,4.43-7.88A108.44,108.44,0,0,0,315,387a239.45,239.45,0,0,0,5.2-27.65l.12.17-20.72-4.31-5.51-1.17-1.43-.31Z" style="fill:#263238"></path><path d="M292.3,368.75l22.86,4.49s-6.2,42-17.21,41.05S285.34,396.47,292.3,368.75Z" style="fill:#FF725E"></path><g style="opacity:0.30000000000000004"><path d="M288,397.48c8.86-3.82,17.46-8,25.35-13.58l-1.19,4.73-23.71,13Z" style="fill:#fff"></path></g><path d="M320.6,359.73a4.55,4.55,0,0,1-1.14.29,27.13,27.13,0,0,1-3.17.44,34.34,34.34,0,0,1-4.75.09,40.59,40.59,0,0,1-5.78-.73,39.1,39.1,0,0,1-5.6-1.64,33.74,33.74,0,0,1-4.32-2,25.37,25.37,0,0,1-2.73-1.67,4.73,4.73,0,0,1-.93-.72c.05-.08,1.43.86,3.83,2.07a39.63,39.63,0,0,0,4.32,1.85,39.49,39.49,0,0,0,11.23,2.34,39,39,0,0,0,4.7,0C318.94,360,320.58,359.64,320.6,359.73Z" style="fill:#263238"></path><path d="M228.4,460.33l27.44-39.2L258.37,395l14.77-18.16,5.9-5.89h21.52s1.27,5.48-6.33,8l-8.86.85-5.48,5.48,8.44-3.37,25.31,7.17s0,6.33-5.06,5.91-17.3-3.38-17.3-3.38l-15.4,6.75L290,402.56l13.93,19.83s-4.22,5.07-8,2.53l-.84,3.8a30.87,30.87,0,0,1-7.6-4.64l-4.22-3.37-5.48-.85.3,10.72A13.11,13.11,0,0,1,276,438l-14.3,22.44Z" style="fill:#ffd6be"></path><path d="M228.4,460.33h33.32l-.13.07,11-17.3c1-1.6,2.11-3.2,3-4.9a19.72,19.72,0,0,0,2.21-8.69c0-1-.05-2.09-.07-3.15-.06-2.13-.13-4.29-.19-6.49v-.25l.25,0,5.48.83h.06l0,0c1.75,1.38,3.56,2.89,5.46,4.32a30.92,30.92,0,0,0,6.3,3.65l-.3.16c.25-1.16.54-2.47.84-3.79l.06-.31.29.16a4.2,4.2,0,0,0,1.93.66,5.09,5.09,0,0,0,2.12-.4,10.58,10.58,0,0,0,3.66-2.75l0,.29L289.81,402.7l.13.1-14.13-4.21-.67-.2.64-.28,15.4-6.75.07,0,.09,0c3.88.92,7.89,1.81,12,2.58,1,.19,2.05.36,3.09.52a16.22,16.22,0,0,0,3.08.26,3.61,3.61,0,0,0,2.54-1.38,6.3,6.3,0,0,0,1.18-2.81,9.06,9.06,0,0,0,.16-1.45l.19.25-25.31-7.17h.16L280,385.5l-1.16.46.89-.88,5.48-5.48.07-.07h.09l8.86-.85-.06,0a10.83,10.83,0,0,0,4.65-2.83,6,6,0,0,0,1.52-4.9l.24.19H279l.17-.07L273.3,377v0L258.53,395.1l0-.11q-1.41,14.37-2.56,26.15v.05l0,0-27.58,39.1c.74-1.07,10.24-14.76,27.3-39.3l0,.08q1.11-11.76,2.49-26.16v-.06l0-.05L273,376.66h0l5.9-5.9.07-.07h21.82l0,.19a6.52,6.52,0,0,1-1.63,5.34,11.22,11.22,0,0,1-4.86,3h-.05l-8.86.85.15-.07-5.48,5.48-.28-.41,8.44-3.38.08,0,.09,0,25.31,7.17.2.05v.2a8.86,8.86,0,0,1-.17,1.55,6.85,6.85,0,0,1-1.28,3,4.1,4.1,0,0,1-2.9,1.58,16.83,16.83,0,0,1-3.21-.26c-1-.16-2.08-.34-3.11-.53-4.11-.77-8.12-1.66-12-2.59h.16L276,398.58l0-.48,14.13,4.22.09,0,.05.07,13.91,19.84.11.15-.12.13a11.1,11.1,0,0,1-3.84,2.88,5.5,5.5,0,0,1-2.32.43,4.75,4.75,0,0,1-2.17-.73l.35-.15c-.29,1.33-.58,2.64-.84,3.8l-.06.27-.24-.11a31.06,31.06,0,0,1-6.4-3.72c-1.93-1.45-3.71-2.94-5.47-4.34l.1.05-5.48-.85.24-.21q.09,3.3.17,6.49c0,1.07.08,2.11.07,3.17a21.41,21.41,0,0,1-.31,3.12,20.24,20.24,0,0,1-2,5.73c-1,1.75-2.07,3.32-3.06,4.92-4.07,6.35-7.77,12.13-11.05,17.27l0,.06h-.08Z" style="fill:#ffb294"></path><path d="M295.92,424.92a6.33,6.33,0,0,1-.69-1.05l-1.8-2.93c-.76-1.23-1.69-2.68-2.79-4.24-.55-.78-1.15-1.58-1.82-2.37a8,8,0,0,0-2.33-2,17.42,17.42,0,0,0-3-1c-1-.26-2-.47-2.92-.68-1.87-.39-3.57-.7-5-1l-3.38-.61a6.64,6.64,0,0,1-1.23-.27,5.45,5.45,0,0,1,1.26.07c.81.09,2,.23,3.41.44s3.15.49,5,.86c.94.19,1.93.4,2.95.66a18.19,18.19,0,0,1,3.11,1,8.27,8.27,0,0,1,2.49,2.18c.68.81,1.28,1.63,1.82,2.42,1.09,1.59,2,3.08,2.72,4.33s1.28,2.3,1.65,3A6,6,0,0,1,295.92,424.92Z" style="fill:#ffb294"></path><path d="M264.81,391.83a77,77,0,0,1,8-3.66,76,76,0,0,1,8.23-3.17,76.57,76.57,0,0,1-8,3.66A75.4,75.4,0,0,1,264.81,391.83Z" style="fill:#ffb294"></path><path d="M382.81,375.73a7.8,7.8,0,0,0-13-5.73c-2.73-2.75-7.14-4.13-10.63-2.44s-5,6.93-2.32,9.72a7.88,7.88,0,1,0,3.39,15.31,9.66,9.66,0,0,0,8.9,6.16,11.29,11.29,0,0,0,9.53-5.54,13.6,13.6,0,0,0,1-11.14,5.81,5.81,0,0,0,3.09-7" style="fill:#f5f5f5"></path></g><g id="freepik--Foam--inject-45"><path d="M243.9,448.3c-1.35-7.3-12.26-11.68-19.67-11.7s-11.43,3.19-18,6.57a21.05,21.05,0,0,0-36.66-16.67c.17-10.83-8.62-21.09-19.35-22.58s-22,6-24.77,16.44a22.93,22.93,0,0,0-36,16.77c-14-5.93-33,3.23-37.83,17.67H278.3C270.52,444.55,254,440.36,243.9,448.3ZM70.11,451.12a4.7,4.7,0,1,1,4.71-4.7A4.7,4.7,0,0,1,70.11,451.12Zm7.8-2.42a1.5,1.5,0,1,1,1.49-1.5A1.5,1.5,0,0,1,77.91,448.7Zm.59-4.89a2.09,2.09,0,1,1,2.09-2.09A2.1,2.1,0,0,1,78.5,443.81Zm28-9.32a5.26,5.26,0,1,1,5.25-5.26A5.25,5.25,0,0,1,106.51,434.49Z" style="fill:#e0e0e0"></path><path d="M435.13,452.94C429.63,442.8,416,438,405.34,442.48a17.12,17.12,0,0,0-23.79-10.75,17.89,17.89,0,0,0-29.82-7.6c-2,2-3.57,4.49-6.09,5.72-2.05,1-4.42,1-6.66,1.36a20.36,20.36,0,0,0-14.84,11.15,20.87,20.87,0,0,0-21.79,7.43,14.74,14.74,0,0,0-18,5.21H436.16C435.81,455,435.47,452.94,435.13,452.94Z" style="fill:#ebebeb"></path></g><g id="freepik--Bathtub--inject-45"><path d="M682.48,454.71h-8.09V360.16c0-.13.32-14.64-8.59-23.8-5-5.11-12-7.71-21-7.71-9.49,0-16.86,2.63-21.9,7.81-8,8.22-7.77,20.43-7.76,20.55l-8.09.26c0-.63-.39-15.65,10-26.38,6.63-6.85,16-10.32,27.76-10.32,11.24,0,20.26,3.43,26.82,10.21,11,11.39,10.86,28.12,10.83,29.57Z" style="fill:#e0e0e0"></path><path d="M682.48,454.71s0-.38,0-1.1,0-1.81,0-3.21c0-2.83,0-7,0-12.31,0-10.67-.06-26.09-.1-45.15,0-9.52,0-19.94,0-31.13a50,50,0,0,0-2.56-17A36.55,36.55,0,0,0,670,329.51a33.59,33.59,0,0,0-17.16-8.05,51.12,51.12,0,0,0-9.92-.6,47.55,47.55,0,0,0-10,1.36,34.74,34.74,0,0,0-9.48,3.94,29.14,29.14,0,0,0-4.2,3.07c-.67.56-1.28,1.18-1.9,1.79l-1.75,2a38.08,38.08,0,0,0-7.94,19.56,36.46,36.46,0,0,0-.28,4.71l-.26-.25,8.08-.26-.25.27a34.28,34.28,0,0,1,1.19-8.52,30,30,0,0,1,3.29-7.83,24.07,24.07,0,0,1,5.51-6.33,25.21,25.21,0,0,1,7.26-4,40.42,40.42,0,0,1,16-1.84,28.74,28.74,0,0,1,14.67,4.94,24.91,24.91,0,0,1,2.92,2.49c.46.44.85.94,1.28,1.41a15.21,15.21,0,0,1,1.17,1.48,28.24,28.24,0,0,1,3.58,6.52,41.74,41.74,0,0,1,2.85,14c0,9.31,0,18.15,0,26.45-.06,33.17-.11,57.66-.13,68.87l-.07-.07,6.11,0,2,0s-.62,0-1.94,0l-6.15,0h-.07v-.07c0-11.21-.06-35.71-.13-68.87,0-8.3,0-17.13,0-26.44a41.25,41.25,0,0,0-2.83-13.86,28.34,28.34,0,0,0-3.54-6.41,12.2,12.2,0,0,0-1.15-1.45c-.42-.46-.8-.95-1.25-1.38a22.94,22.94,0,0,0-2.86-2.43A28.3,28.3,0,0,0,648.1,329a40.23,40.23,0,0,0-15.77,1.82,25.18,25.18,0,0,0-7.11,3.9,23.77,23.77,0,0,0-5.39,6.2,29.09,29.09,0,0,0-3.23,7.7,33.67,33.67,0,0,0-1.17,8.37v.26h-.25l-8.08.26h-.26v-.26a35.68,35.68,0,0,1,.29-4.79,38.6,38.6,0,0,1,8-19.83l1.77-2c.64-.62,1.26-1.25,2-1.82a28.82,28.82,0,0,1,4.27-3.12,35,35,0,0,1,9.61-4,48.13,48.13,0,0,1,10.14-1.38,52.1,52.1,0,0,1,10,.62,33.92,33.92,0,0,1,17.4,8.19,36.93,36.93,0,0,1,9.82,15.48,50,50,0,0,1,2.56,17.18c0,11.22,0,21.68,0,31.22,0,19.07-.07,34.5-.09,45.17,0,5.32,0,9.44,0,12.26,0,1.38,0,2.45,0,3.17S682.48,454.71,682.48,454.71Z" style="fill:#263238"></path><path d="M713.84,470.87H34.16a8,8,0,0,1-8-8h0a8,8,0,0,1,8-8H713.84a8,8,0,0,1,8,8h0A8,8,0,0,1,713.84,470.87Z" style="fill:#455a64"></path><path d="M712.87,455c0,.14-151.71.26-338.82.26S35.19,455.14,35.19,455s151.69-.26,338.86-.26S712.87,454.85,712.87,455Z" style="fill:#263238"></path></g><g id="freepik--Bottle--inject-45"><path d="M139.49,357.37h8.12a23.18,23.18,0,0,1,23.18,23.18V454.8a0,0,0,0,1,0,0H116.31a0,0,0,0,1,0,0V380.55A23.18,23.18,0,0,1,139.49,357.37Z" style="fill:#455a64"></path><rect x="136.65" y="301.83" width="13.8" height="68.35" style="fill:#455a64"></rect><rect x="136.65" y="323.03" width="13.8" height="20.99" style="fill:#FF725E"></rect><rect x="116.31" y="389.18" width="28" height="53.84" style="fill:#263238"></rect></g><g id="freepik--Candles--inject-45"><rect x="567.27" y="402.63" width="24.1" height="52" rx="2.99" style="fill:#ebebeb"></rect><path d="M588.37,454.64a3.69,3.69,0,0,0,1.41-.41A3,3,0,0,0,591,453a2.61,2.61,0,0,0,.29-1.07c0-.4,0-.85,0-1.31,0-3.75,0-9.13-.08-15.76s0-14.58-.06-23.37v-5a5.3,5.3,0,0,0-.14-1.62,2.74,2.74,0,0,0-2.36-1.88c-1.13,0-2.35,0-3.54,0H570.27a2.76,2.76,0,0,0-2.61,1.91,2.68,2.68,0,0,0-.13.84v2.8c0,2.47,0,4.91,0,7.3,0,4.79,0,9.41,0,13.81s0,8.57,0,12.49c0,1.95,0,3.84,0,5.66,0,.9,0,1.79,0,2.67a5.65,5.65,0,0,0,.25,2.43,2.8,2.8,0,0,0,1.64,1.51,7.49,7.49,0,0,0,2.23.16l4.23,0,6.78.05,4.29,0,1.11,0,.38,0a1.59,1.59,0,0,1-.38,0l-1.11,0-4.29.05-6.78,0-4.23,0h-1.14a3.41,3.41,0,0,1-1.21-.17,3.18,3.18,0,0,1-2.15-3v-1.29c0-.88,0-1.77,0-2.67,0-1.82,0-3.71,0-5.66,0-3.92,0-8.1,0-12.49s0-9,0-13.81v-10.1a3.46,3.46,0,0,1,.15-1,3.28,3.28,0,0,1,3.11-2.27h14.81c1.21,0,2.36,0,3.58,0a3.25,3.25,0,0,1,2.79,2.22,5.52,5.52,0,0,1,.16,1.78v1.7c0,1.13,0,2.24,0,3.34,0,8.79,0,16.71-.05,23.37s-.06,12-.08,15.76c0,.47,0,.89,0,1.32a3,3,0,0,1-2.69,2.75A1.83,1.83,0,0,1,588.37,454.64Z" style="fill:#263238"></path><path d="M582.51,375.14a1.9,1.9,0,0,0-3.11-.43,33.21,33.21,0,0,0-4.53,6,14.32,14.32,0,0,0-1.85,9.91c.76,3.36,3.47,6.38,6.88,6.84,4.06-1.16,5.15-4.56,5.8-8.64C586.45,384.14,584.66,379.5,582.51,375.14Z" style="fill:#FF725E"></path><g style="opacity:0.30000000000000004"><path d="M580.84,384.5a.9.9,0,0,0-1.48-.21,15.48,15.48,0,0,0-2.16,2.88,6.79,6.79,0,0,0-.88,4.72,4.16,4.16,0,0,0,3.27,3.26c1.94-.55,2.46-2.17,2.77-4.11C582.72,388.78,581.86,386.57,580.84,384.5Z" style="fill:#fff"></path></g><path d="M579,402.63a62.72,62.72,0,0,1,0-11.41,62.72,62.72,0,0,1,0,11.41Z" style="fill:#263238"></path><path d="M583.18,392.93c-.15,0,.52-2.6.47-5.83s-.76-5.77-.6-5.81a13.59,13.59,0,0,1,1.12,5.81A13.39,13.39,0,0,1,583.18,392.93Z" style="fill:#fff"></path><path d="M590.87,421.77s-.06.11-.29.19a1.19,1.19,0,0,1-1-.15,2.6,2.6,0,0,1-1-1.18,3.07,3.07,0,0,0-1.17-1.48,2.39,2.39,0,0,0-2.16.28c-.74.4-1.38,1.12-2.27,1.66a3.17,3.17,0,0,1-1.54.51,3,3,0,0,1-1.66-.42,5.37,5.37,0,0,1-2.17-2.68c-.46-1.08-.75-2.17-1.22-3.1a4.44,4.44,0,0,0-2-2.13,7.34,7.34,0,0,0-2.69-.32,3.14,3.14,0,0,1-2.32-1,4.29,4.29,0,0,1-.91-1.88,8.46,8.46,0,0,1-.21-1.54,4.31,4.31,0,0,1,.05-1.31,12.42,12.42,0,0,1,.15,1.29,10.6,10.6,0,0,0,.29,1.48,4.11,4.11,0,0,0,.9,1.71,2.77,2.77,0,0,0,2.07.84,7.39,7.39,0,0,1,2.87.32,4.84,4.84,0,0,1,2.22,2.33c.51,1,.8,2.09,1.24,3.12a4.88,4.88,0,0,0,1.95,2.44,2.49,2.49,0,0,0,2.7-.05c.82-.48,1.47-1.19,2.31-1.63a2.73,2.73,0,0,1,2.53-.23,3.32,3.32,0,0,1,1.26,1.67,2.44,2.44,0,0,0,.88,1.14A1.13,1.13,0,0,0,590.87,421.77Z" style="fill:#263238"></path><rect x="595.78" y="423.08" width="24.1" height="31.56" rx="2.99" style="fill:#ebebeb"></rect><path d="M616.89,454.64a4.91,4.91,0,0,0,1-.25,2.92,2.92,0,0,0,1.81-2.24c.07-2.64,0-6.56,0-11.35,0-2.41,0-5,0-7.86,0-1.41,0-2.87,0-4.38v-2.29a2.84,2.84,0,0,0-.69-2,2.74,2.74,0,0,0-1.94-.93H598.78a2.71,2.71,0,0,0-2.16,1.06,2.83,2.83,0,0,0-.52,1.11,7.53,7.53,0,0,0-.06,1.28v5.28c0,3.45,0,6.78,0,10s0,6.19,0,9a3.48,3.48,0,0,0,.33,1.92,2.8,2.8,0,0,0,1.35,1.24,4.24,4.24,0,0,0,1.82.24h1.84l11.38.09,3.09,0,.8,0,.28,0a.9.9,0,0,1-.28,0l-.8,0-3.09.05-11.38.08H599.5a4.59,4.59,0,0,1-2-.25,3.27,3.27,0,0,1-1.56-1.41,3.92,3.92,0,0,1-.39-2.12q0-4.24,0-9c0-3.18,0-6.51,0-10v-5.28a7.43,7.43,0,0,1,.06-1.39,3.41,3.41,0,0,1,.62-1.32,3.26,3.26,0,0,1,2.57-1.27H617a3.24,3.24,0,0,1,2.28,1.11,3.31,3.31,0,0,1,.8,2.32c0,.78,0,1.54,0,2.29,0,1.51,0,3,0,4.38,0,2.82,0,5.45,0,7.86-.05,4.81,0,8.67-.14,11.39a3,3,0,0,1-2,2.3A2.11,2.11,0,0,1,616.89,454.64Z" style="fill:#263238"></path><path d="M610.74,394.86a1.9,1.9,0,0,0-3.11-.43,34,34,0,0,0-4.53,6,14.28,14.28,0,0,0-1.84,9.92c.75,3.35,3.46,6.37,6.87,6.83,4.06-1.16,5.15-4.56,5.8-8.63C614.68,403.86,612.89,399.22,610.74,394.86Z" style="fill:#FF725E"></path><g style="opacity:0.30000000000000004"><path d="M609.07,404.22a.9.9,0,0,0-1.48-.21,16.29,16.29,0,0,0-2.16,2.88,6.81,6.81,0,0,0-.88,4.73,4.14,4.14,0,0,0,3.27,3.25c1.94-.55,2.46-2.17,2.77-4.11C611,408.51,610.1,406.29,609.07,404.22Z" style="fill:#fff"></path></g><path d="M607.21,422.35a62.72,62.72,0,0,1,0-11.41,62.72,62.72,0,0,1,0,11.41Z" style="fill:#263238"></path><path d="M611.42,412.65c-.16,0,.51-2.6.46-5.83s-.76-5.77-.6-5.81a13.29,13.29,0,0,1,1.12,5.81A13.65,13.65,0,0,1,611.42,412.65Z" style="fill:#fff"></path><path d="M619.11,441.49s-.07.11-.29.19a1.21,1.21,0,0,1-1-.15,2.6,2.6,0,0,1-1-1.18,3.07,3.07,0,0,0-1.17-1.48,2.39,2.39,0,0,0-2.16.28c-.73.4-1.38,1.12-2.26,1.66a3.36,3.36,0,0,1-1.55.52,3,3,0,0,1-1.66-.43,5.37,5.37,0,0,1-2.17-2.68c-.46-1.08-.74-2.16-1.21-3.1a4.44,4.44,0,0,0-2-2.12,6.94,6.94,0,0,0-2.69-.32,3.19,3.19,0,0,1-2.32-1,4.41,4.41,0,0,1-.91-1.88,9.17,9.17,0,0,1-.21-1.54,4.83,4.83,0,0,1,0-1.31,10.59,10.59,0,0,1,.16,1.3,9.59,9.59,0,0,0,.28,1.48,4.26,4.26,0,0,0,.9,1.7,2.79,2.79,0,0,0,2.07.84,7.39,7.39,0,0,1,2.87.32,4.88,4.88,0,0,1,2.22,2.33c.51,1,.8,2.09,1.24,3.12a4.91,4.91,0,0,0,2,2.45,2.51,2.51,0,0,0,2.7-.06c.82-.48,1.48-1.19,2.31-1.63a2.73,2.73,0,0,1,2.53-.23,3.3,3.3,0,0,1,1.26,1.68,2.54,2.54,0,0,0,.88,1.14A1.17,1.17,0,0,0,619.11,441.49Z" style="fill:#263238"></path><rect x="559.4" y="449.21" width="67.65" height="5.79" style="fill:#263238"></rect></g><g id="freepik--Hearts--inject-45"><path d="M389,179.38a14.44,14.44,0,0,0-3.9-7.74,13.82,13.82,0,0,0-7.32-4.26,11.19,11.19,0,0,0-12.17,6.05,11.14,11.14,0,0,0-12.19-5A13.85,13.85,0,0,0,346.3,173a14.4,14.4,0,0,0-3.51,7.92,17.57,17.57,0,0,0,2.45,10.73,24.8,24.8,0,0,0,8.75,7.8c5.67,3.23,13.13,7.26,13.13,7.26s6.1-4.8,11.6-8.3a24.81,24.81,0,0,0,8.35-8.23A17.54,17.54,0,0,0,389,179.38Z" style="fill:#FF725E"></path><path d="M400.13,121.37a8.06,8.06,0,0,0-1.73-4.5,7.72,7.72,0,0,0-3.82-2.77,6.2,6.2,0,0,0-7.07,2.68,6.2,6.2,0,0,0-1.69-2.14,6.34,6.34,0,0,0-4.78-1.32,7.66,7.66,0,0,0-4.19,2.17,7.91,7.91,0,0,0-2.38,4.19,9.72,9.72,0,0,0,.76,6.08,13.88,13.88,0,0,0,4.41,4.8c3,2.1,6.86,4.75,6.86,4.75s3.65-2.33,6.89-4a13.89,13.89,0,0,0,5.08-4.09A9.75,9.75,0,0,0,400.13,121.37Z" style="fill:#FF725E"></path><path d="M322.8,156.71a5.31,5.31,0,0,0-1.65-2.73,5.07,5.07,0,0,0-2.82-1.37,4.22,4.22,0,0,0-3.14,1,4.14,4.14,0,0,0-1.16,1.61,4.13,4.13,0,0,0-4.62-1.5,5.09,5.09,0,0,0-2.49,1.9,5.33,5.33,0,0,0-1.06,3,6.44,6.44,0,0,0,1.2,3.88,9,9,0,0,0,3.43,2.62c2.18,1,5,2.3,5,2.3s2.1-1.94,4-3.38a9.18,9.18,0,0,0,2.84-3.26A6.43,6.43,0,0,0,322.8,156.71Z" style="fill:#FF725E"></path><path d="M332.42,135.23s.23.23.65.58a4.81,4.81,0,0,0,2.07,1,5.69,5.69,0,0,0,3.32-.34,6.78,6.78,0,0,0,3-2.78,12.92,12.92,0,0,0,1.41-7.44c-.12-2-.29-3.23-.21-3.24a2.46,2.46,0,0,1,.23.85c.11.55.24,1.35.35,2.36a16.73,16.73,0,0,1,0,3.56,10.44,10.44,0,0,1-1.35,4.18,7.06,7.06,0,0,1-3.27,3,5.89,5.89,0,0,1-3.59.26,4.71,4.71,0,0,1-2.13-1.17A1.88,1.88,0,0,1,332.42,135.23Z" style="fill:#263238"></path><path d="M355.39,137.15a16.12,16.12,0,0,1-2.89-.44,11.08,11.08,0,0,1-3.05-1.05,5.49,5.49,0,0,1-2.59-3,12.13,12.13,0,0,1-.68-3.89,18.24,18.24,0,0,1,.18-3.2,8.16,8.16,0,0,1,.77-2.83c.08,0-.24,1.09-.4,2.88a16.53,16.53,0,0,0,.62,6.85,5.16,5.16,0,0,0,2.34,2.78,11.75,11.75,0,0,0,2.89,1.1A16.2,16.2,0,0,1,355.39,137.15Z" style="fill:#263238"></path><path d="M342,148.6c-.08,0,.17-.7.19-1.82A6.81,6.81,0,0,0,341,142.7a6.88,6.88,0,0,0-3.47-2.48c-1.06-.34-1.79-.32-1.78-.41a3.33,3.33,0,0,1,1.88.06,6.41,6.41,0,0,1,5,6.93A3.35,3.35,0,0,1,342,148.6Z" style="fill:#263238"></path><path d="M348.53,147.62a3,3,0,0,1-1-1.66,5.49,5.49,0,0,1,.68-4.54,5.42,5.42,0,0,1,4-2.32,3.12,3.12,0,0,1,1.9.26c0,.1-.74-.09-1.85.1a5.23,5.23,0,0,0-4.34,6.41A16.91,16.91,0,0,0,348.53,147.62Z" style="fill:#263238"></path><path d="M398.18,153.69a4.2,4.2,0,0,0,1.92,1.11,4,4,0,0,0,2.36-.18,4.78,4.78,0,0,0,2.18-1.89,9.4,9.4,0,0,0,1.2-5.27,15.63,15.63,0,0,1,0-2.33,7.63,7.63,0,0,1,.4,2.31,8.93,8.93,0,0,1-1.13,5.57,5.05,5.05,0,0,1-2.45,2.06,4.24,4.24,0,0,1-2.62.09,3.17,3.17,0,0,1-1.5-.92C398.23,153.93,398.15,153.7,398.18,153.69Z" style="fill:#263238"></path><path d="M414.61,155.6a8.84,8.84,0,0,1-2.08-.34,7.75,7.75,0,0,1-2.18-.81,4,4,0,0,1-1.82-2.25,10.68,10.68,0,0,1-.18-5.13,5.21,5.21,0,0,1,.66-2c.08,0-.15.8-.3,2.07A12.14,12.14,0,0,0,409,152a3.59,3.59,0,0,0,1.58,2,8.61,8.61,0,0,0,2,.87A7.75,7.75,0,0,1,414.61,155.6Z" style="fill:#263238"></path><path d="M404.77,163.5c-.08,0,.1-.51.13-1.31a5.05,5.05,0,0,0-.79-2.91,4.94,4.94,0,0,0-2.38-1.84c-.75-.28-1.26-.31-1.26-.39s.53-.17,1.37,0a4.6,4.6,0,0,1,3.42,5.14C405.13,163.08,404.82,163.53,404.77,163.5Z" style="fill:#263238"></path><path d="M409.44,163s-.45-.35-.69-1.2a3.83,3.83,0,0,1,3.53-4.88c.89,0,1.39.24,1.36.29s-.53,0-1.32.07a4,4,0,0,0-2.57,1.52,4,4,0,0,0-.64,2.92C409.23,162.46,409.52,162.91,409.44,163Z" style="fill:#263238"></path></g></svg>