<?xml version="1.0" encoding="UTF-8" standalone="no"?>
<svg width="277px" height="136px" viewBox="0 0 277 136" version="1.1" xmlns="http://www.w3.org/2000/svg" xmlns:xlink="http://www.w3.org/1999/xlink">
    <defs></defs>
    <g id="Page-1" stroke="none" stroke-width="1" fill="none" fill-rule="evenodd">
        <g id="Desktop-HD" transform="translate(-100.000000, -378.000000)">
            <g id="Fox" transform="translate(100.000000, 378.000000)">
                <path d="M58.515,20.186 C58.515,20.186 58.866,20.673 58.515,20.186 C54.394,14.44 53.069,11.91 47.874,4.144 C45.175,0.108 42.437,-0.7 42.294,5.092 C42.119,12.135 42.006,31.012 42.006,31.012 L58.515,20.186" id="Fill-1" fill="#BD6F0D"></path>
                <path d="M63.646,75.935 C63.646,75.935 67.672,84.899 66.963,90.426 C66.772,91.907 64.876,95.093 60.699,96.075 C57.365,96.86 41.172,99.882 41.172,99.882 C41.172,99.882 33.804,99.637 41.287,108.863 C44.41,112.715 41.569,113.747 39.207,112.654 C37.905,112.052 35.798,109.542 34.787,107.742 C33.003,104.573 29.969,97.342 38.471,95.215 C43.712,93.905 49.016,92.432 52.099,91.365 C53.454,90.896 56.401,89.812 55.665,86.128 L53.606,75.373 L63.035,75.053 L63.646,75.935" id="Fill-2" fill="#BD6F0D"></path>
                <path d="M119.199,72.937 C119.199,72.937 116.188,75.987 116.188,79.999 C116.188,93.754 125.069,102.048 130.947,104.771 C135.615,106.936 151.958,111.352 154.753,113.717 C156.7,115.364 156.237,117.916 156.289,121.49 C156.37,127.22 153.751,127.711 150.854,128.988 C149.549,129.563 148.648,130.168 148.028,130.741 C146.865,131.817 148.22,133.457 149.806,133.456 L151.381,133.455 C153.427,133.453 155.541,133.1 157.101,131.776 C159.395,129.828 160.629,128.88 160.629,125.092 L160.629,115.43 C160.629,109.864 150.778,105.858 147.515,102.904 C144.086,99.801 143.483,98.248 143.385,91.761 C143.336,88.492 143.355,83.827 143.325,77.387 C143.298,71.791 129.895,64.964 119.199,72.937" id="Fill-3" fill="#BD6F0D"></path>
                <path d="M52.552,20.186 C52.552,20.186 52.201,20.673 52.552,20.186 C56.673,14.44 57.997,11.91 63.192,4.144 C65.892,0.108 68.631,-0.7 68.774,5.092 C68.947,12.135 69.062,31.012 69.062,31.012 L52.552,20.186" id="Fill-4" fill="#ED8D1F"></path>
                <path d="M143.998,69.551 C143.998,69.551 183.43,76.745 219.904,82.517 C250.85,87.414 269.726,111.796 275.446,122.017 C277.123,125.01 276.879,126.607 271.913,126.596 C266.35,126.584 255.906,126.581 239.79,126.607 C216.952,126.643 189.038,102.167 173.727,90.65 C158.091,78.887 154.173,76.125 154.173,76.125 L143.998,69.551" id="Fill-5" fill="#ED8D1F"></path>
                <path d="M71.756,81.263 C71.756,81.263 85.031,112.504 87.104,121.817 C87.433,123.29 88.057,126.399 83.433,130.484 C80.941,132.685 79.417,133.016 78.741,134.221 C78.374,134.875 78.715,135.61 79.572,135.633 C81.671,135.688 83.433,135.633 84.638,135.467 C86.405,135.223 87.212,133.765 87.212,133.765 C87.212,133.765 92.181,126.402 91.489,122.244 C89.862,112.481 85.381,84.646 85.381,84.646 L75.806,75.373 L71.756,81.263" id="Fill-6" fill="#ED8D1F"></path>
                <path d="M1.727,41.552 C1.727,41.552 7.079,40.006 26.637,33.631 C30.199,32.47 32.416,29.13 34.103,25.785 C35.882,22.259 39.702,18.551 47.962,18.551 C62.575,18.551 69.054,18.023 69.062,31.012 C69.071,47.289 59.489,53.792 45.044,53.792 C42.85,53.792 38.225,53.745 37.705,53.734 C32.091,53.611 10.18,49.956 1.727,45.627 C-0.102,44.691 0.07,42.555 1.727,41.552" id="Fill-7" fill="#ED8D1F"></path>
                <path d="M158.651,102.904 C155.221,99.801 154.616,98.248 154.52,91.761 C154.47,88.492 154.49,83.827 154.46,77.387 C154.443,74.152 149.955,70.511 144.106,69.551 L144.088,69.499 L91.071,61.888 C81.21,60.083 74.005,58.446 67.739,51.241 L57.302,38.632 L49.276,38.632 C49.276,38.632 50.915,54.189 53.046,71.873 C53.094,72.287 53.925,77.369 54.026,77.768 C58.448,95.126 73.35,96.764 101.104,89.149 C112.631,85.987 118.486,85.123 126.151,84.892 C127.037,84.866 127.807,85.489 127.995,86.355 C130.172,96.336 137.173,102.497 142.081,104.771 C146.751,106.936 163.094,111.352 165.888,113.717 C167.836,115.364 167.372,117.916 167.424,121.49 C167.505,127.22 164.886,127.711 161.988,128.988 C160.683,129.563 159.782,130.168 159.163,130.741 C157.999,131.818 159.354,133.457 160.939,133.456 L162.516,133.455 C164.562,133.453 166.675,133.1 168.236,131.776 C170.53,129.828 171.763,128.88 171.763,125.092 L171.763,115.43 C171.763,109.864 161.914,105.858 158.651,102.904" id="Fill-8" fill="#ED8D1F"></path>
            </g>
        </g>
    </g>
</svg>