<?xml version="1.0" encoding="UTF-8" standalone="no"?>
<svg width="198px" height="51px" viewBox="0 0 198 51" version="1.1" xmlns="http://www.w3.org/2000/svg" xmlns:xlink="http://www.w3.org/1999/xlink">
    <defs></defs>
    <g id="Page-1" stroke="none" stroke-width="1" fill="none" fill-rule="evenodd">
        <g id="Desktop-HD" transform="translate(-413.000000, -687.000000)">
            <g id="Mouse" transform="translate(413.000000, 687.000000)">
                <path d="M124.044,21.059 C127.588,31.834 120.101,39.603 116.394,41.322 C113.446,42.687 110.139,42.739 108.376,44.232 C107.123,45.293 106.904,46.767 107.981,47.167 C108.796,47.471 109.251,47.499 110.741,47.464 C112.714,47.415 113.396,48.496 113.435,49.347 C113.477,50.284 112.521,50.284 112.521,50.284 L107.322,50.278 C107.322,50.278 103.619,50.284 103.619,47.123 C103.619,45.461 103.63,44.12 103.626,43.208 C103.619,41.323 105.21,41.871 105.21,38.623 C105.21,38.623 105.21,29.726 105.221,25.947 C105.23,22.417 124.044,21.059 124.044,21.059" id="Fill-20" fill="#808080"></path>
                <path d="M161.167,34.507 L157.403,39.973 C156.781,40.878 156.606,42.052 157.111,43.028 C157.264,43.323 157.426,43.623 157.583,43.906 C158.143,44.916 159.041,45.698 160.105,46.145 L163.103,47.404 C163.556,47.743 163.829,48.281 163.829,48.848 C163.829,49.347 163.425,49.753 162.925,49.753 L159.463,49.753 C158.314,49.753 155.146,47.04 152.931,45.006 C151.351,43.556 150.102,41.531 150.705,39.474 C152.216,34.327 159.521,30.624 161.167,34.507" id="Fill-21" fill="#808080"></path>
                <path d="M152.231,34.507 L148.468,39.973 C147.846,40.878 147.67,42.052 148.175,43.028 C148.327,43.323 148.49,43.623 148.646,43.906 C149.206,44.916 150.104,45.698 151.169,46.144 L154.167,47.404 C154.623,47.743 154.891,48.281 154.891,48.848 C154.891,49.347 154.484,49.753 153.988,49.753 L150.527,49.753 C149.379,49.753 146.21,47.04 143.996,45.006 C142.416,43.556 141.167,41.531 141.77,39.474 C143.28,34.327 150.585,30.624 152.231,34.507" id="Fill-22" fill="#A5AAAE"></path>
                <path d="M90.063,25.437 C90.063,35.031 100.808,38.477 110.403,38.477 L150.431,38.62 C166.817,38.62 167.704,20.574 156.953,15.298 L125.97,6.818 C100.646,0.417 90.063,10.349 90.063,25.437" id="Fill-23" fill="#A5AAAE"></path>
                <path d="M108.897,21.059 C112.441,31.834 104.955,39.603 101.247,41.322 C98.3,42.687 94.993,42.739 93.23,44.232 C91.977,45.293 91.758,46.767 92.836,47.167 C93.649,47.471 94.104,47.499 95.595,47.464 C97.567,47.415 98.249,48.496 98.288,49.347 C98.33,50.284 97.376,50.284 97.376,50.284 L92.176,50.278 C92.176,50.278 88.473,50.284 88.473,47.123 C88.473,45.461 88.483,44.12 88.48,43.208 C88.473,41.323 90.063,41.871 90.063,38.623 C90.063,38.623 90.063,29.726 90.074,25.947 C90.084,22.417 108.897,21.059 108.897,21.059" id="Fill-24" fill="#A5AAAE"></path>
                <path d="M0.687,22.216 C1.305,21.632 2.385,21.524 2.851,22.162 C15.223,39.214 27.035,42.197 37.659,41.951 C40.602,41.884 42.573,41.225 42.789,41.165 L42.998,41.101 C46.994,39.951 49.403,39.256 65.915,26.373 C81.588,14.136 94.598,12.764 97.045,12.613 C97.362,12.594 97.556,12.592 97.617,12.59 L98.305,12.58 L98.33,15.781 L97.369,15.799 C95.063,15.941 82.813,17.24 67.881,28.891 C50.887,42.154 48.398,42.872 43.886,44.174 L43.68,44.234 C41.959,44.731 39.959,45.06 37.884,45.188 C27.63,45.819 11.794,41.775 0.715,24.548 C0.466,24.16 0.201,23.776 0.206,23.323 C0.211,22.899 0.383,22.504 0.687,22.216" id="Fill-25" fill="#A5AAAE"></path>
                <path d="M168.639,9.218 C168.639,14.067 172.566,17.997 177.416,17.997 C182.265,17.997 186.191,14.067 186.191,9.218 C186.191,4.372 182.265,0.442 177.416,0.442 C172.566,0.442 168.639,4.372 168.639,9.218" id="Fill-26" fill="#808080"></path>
                <path d="M158.778,19.88 C157.688,26.946 162.704,32.543 169.821,33.256 C174.321,33.705 189.746,33.499 195.828,33.505 C198.791,33.507 197.85,31.288 196.981,30.565 C192.224,26.599 178.696,12.657 173.875,10.878 C167.033,8.352 159.974,12.157 158.778,19.88" id="Fill-27" fill="#A5AAAE"></path>
                <path d="M154.98,1.78 C160.095,0.588 165.207,3.765 166.399,8.879 C166.532,9.44 166.6,9.997 166.631,10.549 C163.137,12.061 161,15.7 161.423,19.522 C160.763,19.856 160.059,20.126 159.305,20.301 C154.187,21.496 149.074,18.317 147.881,13.203 C146.689,8.088 149.864,2.974 154.98,1.78" id="Fill-28" fill="#BABFC2"></path>
                <path d="M105.247,38.129 C106.419,36.718 109.137,33.163 109.336,28.271 C109.58,22.281 107.323,18.98 107.323,18.98 C107.323,18.98 110.801,22.305 110.803,29.494 C110.804,33.931 109.607,36.529 108.495,38.428 C107.412,38.377 106.324,38.275 105.247,38.129" id="Fill-29" fill="#808080"></path>
            </g>
        </g>
    </g>
</svg>