<?xml version="1.0" encoding="UTF-8" standalone="no"?>
<svg width="111px" height="148px" viewBox="0 0 111 148" version="1.1" xmlns="http://www.w3.org/2000/svg" xmlns:xlink="http://www.w3.org/1999/xlink">
    <defs></defs>
    <g id="Page-1" stroke="none" stroke-width="1" fill="none" fill-rule="evenodd">
        <g id="Desktop-HD" transform="translate(-1183.000000, -440.000000)">
            <g id="Rabbit" transform="translate(1183.000000, 440.000000)">
                <g id="Group">
                    <path d="M82.395,3.453 C80.955,1.367 78.968,0.264 76.647,0.264 C73.167,0.264 69.964,2.702 69.085,3.586 L26.744,40.043 C25.961,40.825 25.591,41.902 25.729,43.001 C25.867,44.098 26.491,45.05 27.441,45.613 C28.252,46.091 29.178,46.345 30.119,46.345 C31.446,46.345 32.708,45.855 33.682,44.96 L76.578,16.652 C80.326,14.288 82.815,11.274 83.406,8.384 C83.77,6.61 83.429,4.952 82.395,3.453" id="Fill-48" fill="#8F999E"></path>
                    <path d="M51.924,77.239 C47.121,78.258 45.684,86.79 45.684,86.79 C45.684,87.424 44.963,87.789 44.451,87.415 L34.174,81.645 C32.958,80.976 32.084,80.384 30.539,80.581 C28.408,80.852 27.982,82.818 27.982,83.829 C27.982,83.829 27.904,85.626 29.285,87.613 C30.197,88.926 33.094,91.138 33.556,88.498 L33.556,86.678 C33.556,86.115 34.236,85.834 34.635,86.232 L42.444,93.495 C43.842,94.908 47.42,97.545 50.061,93.279 L56.478,81.831 C57.229,80.342 56.597,78.527 55.082,77.828 C55.082,77.828 53.205,76.968 51.924,77.239" id="Fill-49" fill="#8F999E"></path>
                    <path d="M65.601,92.372 C63.814,91.554 61.695,91.936 60.307,93.325 L41.551,113.311 C31.619,122.559 40.45,129.829 50.493,135.069 C60.136,140.101 69.768,142.163 69.768,142.163 C70.156,142.388 69.996,142.983 69.548,142.983 L43.535,140.177 C37.159,138.902 34.676,142.646 34.948,146.193 C35.014,147.055 35.62,147.995 37.328,147.995 L88.167,147.995 C89.376,147.995 89.981,146.533 89.127,145.679 L75.079,131.631 C74.417,130.969 68.953,125.834 74.425,122.327 L85.548,117.787 C94.718,110.113 90.083,100.122 88.557,99.423 L65.601,92.372" id="Fill-50" fill="#8F999E"></path>
                    <path d="M75.619,92.372 C73.832,91.554 71.713,91.936 70.324,93.325 L51.568,113.311 C41.637,122.559 50.469,129.829 60.511,135.069 C70.154,140.101 79.786,142.163 79.786,142.163 C80.175,142.388 80.015,142.983 79.566,142.983 L53.553,140.177 C47.178,138.902 44.694,142.646 44.966,146.193 C45.032,147.055 46.025,147.995 48.72,147.995 L98.186,147.995 C99.395,147.995 99.999,146.533 99.145,145.679 L85.098,131.631 C84.436,130.969 78.973,125.834 84.443,122.327 C84.443,122.327 91.04,120.408 93.322,119.066 C103.882,112.854 99.545,100.123 96.186,96.857 L75.619,92.372" id="Fill-51" fill="#C4C8CB"></path>
                    <path d="M94.588,3.903 C93.149,1.817 91.161,0.714 88.842,0.714 C85.36,0.714 82.157,3.153 81.278,4.036 L38.938,40.492 C38.154,41.275 37.784,42.353 37.922,43.451 C38.061,44.548 38.686,45.5 39.637,46.064 C40.445,46.542 41.371,46.796 42.313,46.796 C43.641,46.796 44.902,46.305 45.877,45.41 L88.772,17.102 C92.521,14.737 95.009,11.725 95.601,8.835 C95.963,7.062 95.623,5.403 94.588,3.903" id="Fill-52" fill="#C4C8CB"></path>
                    <path d="M108.408,105.993 C105.707,108.695 101.327,108.695 98.626,105.993 C95.925,103.292 95.925,98.912 98.626,96.211 C100.272,94.565 104.483,94.579 107.521,94.84 C109.511,95.012 110.973,96.777 110.78,98.764 C110.538,101.274 109.929,104.474 108.408,105.993" id="Fill-53" fill="#C4C8CB"></path>
                    <path d="M95.608,96.056 L53.076,41.38 L50.07,37.01 C46.354,33.198 42.568,30.885 38.309,30.17 C34.503,29.532 30.704,30.452 27.475,31.862 C19.616,35.295 4.564,51.934 4.564,51.934 C-0.253,56.394 0.449,61.582 1.99,64.352 C4.561,68.975 9.678,68.918 14.822,68.918 L36.626,68.918 C38.748,68.918 40.635,70.29 41.333,72.295 C47.727,90.671 60.709,130.118 60.709,130.118 C61.201,132.158 63.275,133.394 65.305,132.856 L77.792,125.07 C92.024,115.277 99.412,99.658 95.608,96.056" id="Fill-54" fill="#C4C8CB"></path>
                    <path d="M64.348,77.239 C59.545,78.258 58.107,86.79 58.107,86.79 C58.107,87.424 57.387,87.789 56.875,87.415 L46.598,81.645 C45.381,80.976 44.508,80.384 42.963,80.581 C40.831,80.852 40.405,82.818 40.405,83.829 C40.405,83.829 40.328,85.626 41.709,87.613 C42.621,88.926 45.518,91.138 45.979,88.498 L45.979,86.678 C45.979,86.115 46.66,85.834 47.059,86.232 L54.868,93.495 C56.266,94.908 59.844,97.545 62.484,93.279 L68.9,81.831 C69.653,80.342 69.021,78.527 67.506,77.828 C67.506,77.828 65.629,76.968 64.348,77.239" id="Fill-55" fill="#D4D5D6"></path>
                    <path d="M70.97,92.795 L54.205,110.501 C54.205,110.501 63.059,96.406 66.036,94.094 C69.219,91.623 70.97,92.795 70.97,92.795" id="Fill-56" fill="#8F999E"></path>
                </g>
            </g>
        </g>
    </g>
</svg>