<?xml version="1.0" encoding="UTF-8" standalone="no"?>
<svg width="244px" height="299px" viewBox="0 0 244 299" version="1.1" xmlns="http://www.w3.org/2000/svg" xmlns:xlink="http://www.w3.org/1999/xlink">
    <defs></defs>
    <g id="Page-1" stroke="none" stroke-width="1" fill="none" fill-rule="evenodd">
        <g id="Desktop-HD" transform="translate(-489.000000, -73.000000)">
            <g id="Deer" transform="translate(489.000000, 73.000000)">
                <path d="M77.327,94.94 C77.327,94.94 64.504,94.762 56.538,85.444 C52.093,80.244 52.594,71.591 54.264,71.925 C55.879,72.244 80.108,88.451 80.108,88.451 L77.327,94.94" id="Fill-57" fill="#B37A36"></path>
                <path d="M76.387,88.036 L76.387,88.031 L76.387,88.036 L76.387,88.036 Z M0.134,22.839 C1.108,48.045 25.673,57.596 28.471,58.603 C28.837,58.777 29.51,59.089 30.461,59.521 C30.52,59.554 30.645,59.652 30.833,59.685 C35.118,61.625 43.935,65.484 54.847,69.578 C59.123,71.181 62.777,73.158 65.701,75.45 C67.153,76.403 68.305,77.78 68.305,77.78 C71.302,81.552 72.771,84.072 73.301,86.094 C73.723,87.706 74.965,88.788 76.387,88.788 L76.397,88.788 C77.188,88.787 77.922,88.441 78.411,87.845 C78.865,87.297 79.049,86.586 78.917,85.893 C78.463,83.507 77.01,78.826 72.42,74.074 C72.42,74.074 70.319,72.064 69.39,71.318 C65.351,66.98 65.341,62.423 65.341,62.38 L65.341,47.563 C65.341,46.039 64.1,44.798 62.577,44.798 C61.051,44.798 59.812,46.039 59.812,47.563 L59.812,62.352 C59.812,62.376 59.798,63.261 60.049,64.673 C60.08,64.848 60.04,65.007 59.927,65.139 C59.74,65.366 59.398,65.447 59.104,65.324 C58.362,65.008 57.592,64.698 56.791,64.397 C45.872,60.303 37.097,56.456 32.837,54.526 C30.163,53.355 26.408,50.425 26.408,47.566 C26.408,44.766 27.774,42.407 30.965,40.93 C31.527,40.668 32.067,40.418 32.566,40.173 C39.19,36.926 41.251,32.025 41.888,29.391 C42.063,28.667 41.897,27.911 41.44,27.32 C40.963,26.709 40.236,26.35 39.454,26.344 C38.053,26.344 36.827,27.321 36.301,28.837 C35.666,30.679 34.086,33.274 30.132,35.209 C29.714,35.415 29.268,35.622 28.803,35.838 C26.103,37.09 24.113,39.269 23.02,41.847 C22.901,42.128 22.525,42.228 22.245,42.228 C21.916,42.228 21.844,42.033 21.818,41.961 C20.271,37.754 19.487,32.136 19.496,25.262 C19.501,23.213 19.486,13.001 19.476,6.668 L19.471,3.493 C19.47,2.016 18.227,0.815 16.707,0.815 C15.977,0.816 15.29,1.089 14.773,1.582 C14.234,2.09 13.938,2.771 13.939,3.504 L13.946,6.661 C13.955,12.984 13.973,23.206 13.97,25.254 C13.958,32.662 14.805,38.79 16.489,43.531 C16.708,44.143 15.993,44.687 15.525,44.241 C9.41,38.355 6.062,31.195 5.672,22.932 C5.602,21.44 4.375,20.263 2.877,20.252 C2.07,20.252 1.32,20.562 0.803,21.103 C0.345,21.579 0.107,22.194 0.134,22.839 L0.134,22.839 Z" id="Fill-58" fill="#6B3F12"></path>
                <path d="M177.914,189.599 C178.322,199.219 180.132,209.943 191.16,218.897 C203.928,229.266 216.78,229.312 217.43,238.43 C217.924,245.338 217.497,265.524 217.517,274.895 C217.531,281.163 214.873,282.964 212.586,286.554 L205.072,295.937 C204.19,297.035 204.972,298.667 206.379,298.667 L211.979,298.667 C214.137,298.667 216.149,297.508 217.231,295.642 L222.659,286.293 C224.592,282.812 224.592,278.291 224.592,271.966 L224.592,236.067 C224.592,233.781 224.113,231.519 223.33,229.371 C221.912,225.482 219.685,218.399 218.732,210.104 C217.28,197.464 224.592,177.871 224.592,177.871 C224.592,177.871 222.605,160.907 202.157,160.94 C185.864,160.965 177.463,178.972 177.914,189.599" id="Fill-59" fill="#B37A36"></path>
                <path d="M134.051,184.993 C134.051,184.993 124.934,182.102 124.283,190.569 C123.804,196.785 131.967,223.373 136.337,237.055 C138.086,242.537 139.001,248.256 139.001,254.01 L139.001,274.735 C139.033,279.673 133.05,293.047 131.004,295.907 C130.195,297.039 130.896,298.667 132.287,298.667 L136.742,298.667 C138.736,298.667 140.42,297.175 140.667,295.197 L143.766,274.684 L143.766,241.36 C143.766,241.36 140.563,196.427 140.563,191.871 C140.563,187.313 134.051,184.993 134.051,184.993" id="Fill-60" fill="#B37A36"></path>
                <path d="M241.874,181.271 C241.771,181.961 241.828,181.571 241.874,181.271" id="Fill-61" fill="#D18B49"></path>
                <path d="M241.874,181.271 L241.885,181.204 L241.874,181.271" id="Fill-62" fill="#D18B49"></path>
                <path d="M213.048,152.271 L150.128,152.271 C144.626,152.271 139.411,149.664 136.107,145.263 L89.617,83.315 L81.392,99.598 C81.392,99.598 103.476,180.399 106.805,192.019 C106.838,192.14 106.874,192.256 106.907,192.374 C107.069,192.935 107.177,193.29 107.21,193.383 L107.215,193.389 C108.736,198.116 111.332,202.479 114.552,205.216 C121.323,210.969 127.584,213.967 142.341,213.852 C168.727,213.647 227.809,179.721 227.809,179.721 C233.961,177.319 241.905,181.048 241.905,181.048 C243.684,169.102 238.688,152.271 213.048,152.271" id="Fill-63" fill="#D18B49"></path>
                <path d="M241.885,181.204 L241.905,181.048 L241.885,181.204" id="Fill-64" fill="#D18B49"></path>
                <path d="M228.205,158.799 C228.205,158.799 228.842,157.926 232.318,150.921 C234.371,146.783 236.92,145.002 237.06,148.283 C237.269,153.167 237.03,163.22 237.03,163.22 L228.205,158.799" id="Fill-65" fill="#D18B49"></path>
                <path d="M199.685,190.207 C199.535,186.675 199.315,182.986 200.916,178.691 C201.924,175.988 205.6,167.923 205.6,167.923 C202.833,169.246 194.828,176.924 194.828,192.09 C194.828,197.802 195.651,201.462 198.571,207.361 C199.51,206.983 201.437,207.252 202.357,206.863 C199.953,200.567 199.688,190.331 199.685,190.207" id="Fill-66" fill="#B37A36"></path>
                <path d="M75.041,81.843 L45.327,99.82 C39.545,103.504 41.611,107.011 42.719,109.556 C45.423,115.778 52.121,115.623 52.121,115.623 C57.752,115.829 75.557,115.514 75.557,115.514 C75.557,115.514 87.036,116.366 93.656,107.698 C100.895,98.216 92.446,73.053 75.041,81.843" id="Fill-67" fill="#D18B49"></path>
                <path d="M93.656,107.698 C91.293,110.797 88.31,112.662 85.447,113.8 C85.635,114.448 85.829,115.103 86.029,115.778 C88.815,115.537 92.279,113.191 94.614,110.129 C97.436,106.434 97.973,99.751 95.84,94.427 C96.774,99.36 96.136,104.449 93.656,107.698" id="Fill-68" fill="#B37A36"></path>
                <path d="M197.004,189.599 C197.41,199.219 199.991,210.104 210.247,218.897 C222.741,229.601 235.869,229.312 236.52,238.43 C237.013,245.338 236.584,265.524 236.607,274.895 C236.62,281.163 233.962,282.964 231.677,286.554 L224.16,295.937 C223.278,297.035 224.063,298.667 225.471,298.667 L231.067,298.667 C233.227,298.667 235.237,297.508 236.32,295.642 L241.748,286.293 C243.684,282.812 243.684,278.291 243.684,271.966 L243.684,236.067 C243.684,233.859 242.842,231.733 241.484,229.991 C238.648,226.351 233.972,219.163 233.094,210.46 C231.982,199.455 241.218,188.332 241.909,181.048 C242.009,180.019 241.695,160.907 221.246,160.94 C204.952,160.965 196.552,178.972 197.004,189.599" id="Fill-69" fill="#D18B49"></path>
                <path d="M124.057,187.318 L109.632,198.997 C111.001,201.458 112.668,203.616 114.552,205.216 C117.715,207.905 120.779,209.983 124.638,211.431 L128.628,209.817 C145.487,201.805 139.326,189.924 136.146,186.741 C132.965,183.563 127.555,183.822 124.057,187.318" id="Fill-70" fill="#B37A36"></path>
                <path d="M109.041,245.046 C107.6,245.09 106.224,244.414 105.383,243.247 L87.665,218.687 L82.345,222.289 L100.969,247.633 C102.713,250.009 105.355,251.59 108.271,252.003 L122.154,253.826 C124.567,254.169 125.68,253.76 125.68,251.321 L125.68,246.912 C125.68,245.486 125.084,244.582 122.561,244.663 L109.041,245.046" id="Fill-71" fill="#D18B49"></path>
                <path d="M88.662,94.94 C88.662,94.94 101.485,94.762 109.451,85.444 C113.896,80.244 113.396,71.591 111.727,71.925 C110.109,72.244 85.879,88.451 85.879,88.451 L88.662,94.94" id="Fill-72" fill="#D18B49"></path>
                <path d="M84.766,88.031 L84.766,88.036 L84.766,88.031 L84.766,88.031 Z M160.352,21.103 C159.831,20.562 159.083,20.252 158.276,20.252 C156.779,20.263 155.551,21.44 155.482,22.932 C155.093,31.195 151.742,38.355 145.629,44.241 C145.161,44.687 144.446,44.143 144.662,43.531 C146.348,38.79 147.195,32.662 147.185,25.254 C147.181,23.206 147.196,12.984 147.208,6.661 L147.213,3.504 C147.214,2.771 146.92,2.09 146.381,1.582 C145.862,1.089 145.178,0.816 144.447,0.815 C142.928,0.815 141.685,2.016 141.684,3.493 L141.678,6.668 C141.668,13.001 141.65,23.213 141.656,25.262 C141.667,32.136 140.884,37.754 139.336,41.961 C139.306,42.033 139.235,42.228 138.908,42.228 C138.629,42.228 138.259,42.124 138.135,41.847 C136.964,39.269 133.724,37.339 131.021,36.089 C130.557,35.872 130.109,35.665 129.691,35.46 C125.738,33.524 124.153,30.928 123.521,29.089 C122.996,27.575 121.771,26.594 120.368,26.594 C119.586,26.6 118.862,26.959 118.386,27.572 C117.925,28.163 117.761,28.921 117.937,29.642 C118.572,32.278 120.633,37.178 127.256,40.425 C127.758,40.671 128.295,40.92 128.859,41.18 C132.052,42.659 134.744,44.766 134.744,47.566 C134.744,50.425 130.99,53.355 128.317,54.526 C124.057,56.456 115.282,60.303 104.361,64.397 C103.561,64.698 102.791,65.008 102.051,65.324 C101.753,65.447 101.412,65.366 101.226,65.139 C101.113,65.007 101.071,64.848 101.105,64.673 C101.356,63.261 101.342,62.376 101.342,62.352 L101.342,47.563 C101.342,46.039 100.101,44.798 98.577,44.798 C97.055,44.798 95.811,46.039 95.811,47.563 L95.811,62.38 C95.811,62.423 95.803,66.98 91.765,71.318 C90.835,72.064 88.733,74.074 88.733,74.074 C84.143,78.826 82.691,83.507 82.236,85.893 C82.104,86.586 82.287,87.297 82.74,87.845 C83.231,88.441 83.966,88.787 84.757,88.788 L84.766,88.788 C86.188,88.788 87.43,87.706 87.852,86.094 C88.382,84.072 89.692,80.976 92.848,77.78 C93.862,76.592 94.74,76.199 95.449,75.45 C98.375,73.158 102.028,71.181 106.304,69.578 C117.22,65.484 126.035,61.625 130.319,59.685 C130.51,59.652 132.314,58.777 132.683,58.603 C135.48,57.596 160.045,48.045 161.02,22.839 C161.046,22.194 160.809,21.579 160.352,21.103 L160.352,21.103 Z" id="Fill-73" fill="#6B3F12"></path>
                <path d="M91.085,221.746 C83.354,226.629 79.381,220.9 82.88,217.403 L124.057,184.057 C127.555,180.562 132.965,180.303 136.146,183.481 C139.326,186.663 145.487,198.548 128.628,206.558 L91.085,221.746" id="Fill-74" fill="#D18B49"></path>
            </g>
        </g>
    </g>
</svg>